<?xml version="1.0" standalone="no"?>
<svg id="Nederlands_verkeersbord_A5" width="600" height="600" xmlns="http://www.w3.org/2000/svg" version="1.1">
	<path id="vlak_blauw" fill="#0e518d" d="M0,30 a30,30 0 0,1 30,-30 h540 a30,30 0 0,1 30,30 v540 a30,30 0 0,1 -30,30 h-540 a30,30 0 0,1 -30,-30 z"/>
	<path id="symbool_wit" fill="#f7fbf5" d="M 420.56445 71.986328 C 352.47091 71.986328 311.58789 127.37494 311.58789 206.35938 C 311.58789 286.51432 352.47091 341.08594 420.56445 341.08594 C 488.65799 341.08594 529.54102 285.32684 529.54102 206.35938 C 529.54102 127.37494 489.84547 71.986328 420.56445 71.986328 z M 80.0625 76.421875 L 79.519531 207.45117 L 123.13281 219.07227 C 137.45043 205.31446 163.40617 203.9731 171.82031 203.76953 C 218.70884 202.59901 227.30859 222.68393 227.30859 250.64062 C 227.30859 278.69909 200.62451 292.69531 170.9375 292.69531 C 143.47276 292.69531 90.951836 267.70818 90.646484 266.2832 L 63.894531 310.96484 C 64.640947 310.84609 121.75822 342.26367 170.91992 342.26367 C 263.50949 342.26367 275.80996 279.22648 276.98047 246.96094 C 279.86435 168.0274 213.24591 154.20117 171.1582 154.20117 C 140.58905 154.20117 138.18067 157.23683 126.66211 163.88672 L 127.1543 125.85352 L 253.99414 125.85352 L 253.99414 76.421875 L 80.0625 76.421875 z M 420.56445 121.55469 C 456.00227 121.55469 481.02539 149.37726 481.02539 206.35938 C 481.02539 266.85303 456.00227 292.68945 420.56445 292.68945 C 385.12663 292.68945 362.44531 264.49505 362.44531 206.35938 C 362.44531 149.37726 385.12663 121.55469 420.56445 121.55469 z M 407.76367 403.05859 L 337.85547 564.48828 L 346.25195 564.48828 L 416.14453 403.05859 L 407.76367 403.05859 z M 92.388672 416.1543 L 72.744141 425.875 L 72.744141 536.48047 L 92.388672 536.48047 L 92.388672 509.04883 L 100.53125 499.24414 L 118.36133 536.48047 L 141.94141 536.48047 L 114.84961 483.23047 L 141.22852 449.58984 L 117.08984 449.58984 L 92.388672 482.58594 L 92.388672 416.1543 z M 470.36133 416.19727 L 451.19141 425.91797 L 451.19141 537.15039 L 470.36133 537.15039 L 470.36133 491.99219 C 470.36133 474.63801 471.56644 471.55097 473.94141 469.07422 C 480.67612 461.98327 489.19141 463.86523 489.19141 463.86523 C 500.64212 463.86523 503.9668 471.8386 503.9668 484.375 L 503.9668 537.11523 L 522.05078 537.11523 L 522.05078 475.63867 C 522.05078 446.57932 496.41715 447.15625 490.51367 447.15625 C 482.08256 447.15625 475.97642 448.63118 470.36133 458.35156 L 470.36133 416.19727 z M 227.71289 446.65234 C 227.00044 446.62299 226.28671 446.62428 225.57422 446.6582 C 217.60852 447.03528 208.48499 449.44785 203.16406 458.66797 L 203.16406 449.32031 L 185.92969 449.32031 L 185.92969 537.16016 L 203.50391 537.16016 L 203.50391 491.45898 C 203.50391 489.33848 202.31694 480.87459 204.16602 476.27734 C 207.28739 468.72836 213.0883 464.45312 220.97656 464.45312 C 229.64517 464.45312 237.12695 469.1344 237.12695 484.55469 L 237.12695 537.16016 L 255.71875 537.16016 L 255.71875 491.45898 C 255.71875 489.33848 255.95712 480.65355 257.41602 472.32422 C 258.39994 466.74306 265.06615 463.91016 269.96875 463.91016 C 288.17113 463.91016 285.23668 476.10661 286.27148 484.55469 L 286.27148 537.16016 L 305.89844 537.16016 L 305.89844 474.46094 C 305.89844 453.6461 287.7477 446.6582 277.43359 446.6582 C 267.5266 446.6582 248.55922 452.88318 249.76367 461.6875 C 248.77764 454.41948 238.39959 447.09262 227.71289 446.65234 z "/>
	<path id="streep_rood" style="fill:none;stroke:#c1121c;stroke-width:63;stroke-linecap:round" d="M 50,550 550,50"/>
	<path id="bies_wit" style="fill:none;stroke-width:15;stroke:#f7fbf5" d="M21.5,44 a22.5,22.5 0 0,1 22.5,-22.5 h512 a22.5,22.5 0 0,1 22.5,22.5 v512 a22.5,22.5 0 0,1 -22.5,22.5 h-512 a22.5,22.5 0 0,1 -22.5,-22.5 z"/>
</svg>