<?xml version="1.0" standalone="no"?>
<svg id="Nederlands_verkeersbord_C18" width="300" height="300" viewBox="0 0 300 300"
xmlns="http://www.w3.org/2000/svg" version="1.1">

<circle id="witte_cirkel_met_rode_rand" cx="150" cy="150" r="130.5"
fill="#f7fbf5" stroke="#c1121c" stroke-width="39" />

<path fill="#2a2d2f"
       d="M 208.83843,170.4215 L 208.42183,170.4215 C 210.1454,166.23918 213.5272,165.1936 216.4679,165.03022 C 220.32348,164.84235 224.3506,167.77487 224.70185,170.67473 C 224.28525,167.35827 230.73027,165.03022 234.11207,165.03022 C 237.62457,165.03022 243.8082,167.64418 243.8082,175.4942 L 243.8082,199.07695 L 237.10995,199.07695 L 237.10995,179.2926 C 236.7587,176.09868 237.77977,171.5406 231.5553,171.5406 C 229.89708,171.5406 227.63437,172.59435 227.3158,174.70185 C 226.80118,177.82225 226.744,181.08152 226.744,181.88205 L 226.744,199.07695 L 220.38883,199.07695 L 220.38883,179.2926 C 220.38883,173.48472 217.84022,171.72848 214.89953,171.72848 C 212.22023,171.72848 210.21075,173.32952 209.157,176.16403 C 208.55252,177.92027 208.93645,181.08152 208.93645,181.88205 L 208.93645,199.07695 L 202.9652,199.07695 L 202.9652,166.01862 L 208.83843,166.01862 L 208.83843,170.4215" />

<path fill="#2a2d2f"
       d="M 63.02075,113.7886 C 76.64597,98.595 85.60693,97.99052 96.13625,97.99052 C 112.85738,97.99052 123.3867,109.4429 123.3867,126.44993 C 123.3867,144.12678 110.08005,148.1539 94.89463,159.5736 C 82.92763,168.63258 79.09655,175.37167 78.81065,185.6151 L 125.24097,185.6151 L 124.9224,199.33017 L 61.45238,199.33017 C 62.08953,187.306 62.05685,169.62915 80.9835,153.3818 C 96.71622,139.91995 109.76148,135.73762 110.36595,125.52687 C 111.01127,115.3488 102.00948,111.29717 93.653,111.29717 C 81.62065,111.29717 76.64597,116.87633 72.30028,124.31792 L 63.02075,113.7886" />

<path fill="#2a2d2f"
       d="M 143.55497,196.68355 C 140.39373,206.0366 133.5321,206.86162 133.5321,206.86162 L 132.35582,203.86375 C 133.59745,202.62212 135.7703,201.37232 136.2114,198.91358 C 136.2114,198.91358 132.42117,200.76785 129.8644,197.06747 C 127.34847,193.33442 128.07548,188.51495 130.82013,185.901 C 133.5321,183.27888 139.60137,183.82617 142.56657,187.14262 C 145.81768,190.77765 143.55497,196.68355 143.55497,196.68355" />

<path fill="#2a2d2f"
       d="M 170.45417,154.01895 C 170.45417,154.01895 183.12367,155.23607 183.76082,143.17105 C 184.0794,137.29783 180.88548,133.27888 172.62702,132.9603 C 167.4563,132.77242 161.77095,137.91047 161.77095,140.7123 L 152.17285,135.13315 C 155.26875,130.79562 160.8479,122.74955 174.15455,123.06813 C 184.74922,123.29685 194.19213,130.95083 193.87355,143.01585 C 193.74285,149.23215 190.17317,156.02843 185.54975,158.36465 C 189.25012,160.43947 195.81768,163.75592 195.81768,177.21777 C 195.81768,192.18265 181.62065,200.76785 173.55007,200.76785 C 166.43522,200.76785 153.73305,197.06747 147.54125,182.8051 L 158.35648,179.4233 C 161.1338,183.72815 163.02075,189.91995 171.76115,189.78925 C 178.0183,189.66672 185.60693,185.73762 185.60693,176.93187 C 185.60693,166.11665 177.69972,164.2297 170.45417,164.2297 L 170.45417,154.01895" />

<path fill="#2a2d2f"
       d="M 228.65545,148.1539 L 254.6561,126.16403 C 257.11485,139.47067 257.11485,160.52933 254.6561,168.89397 L 228.65545,148.1539" />

<path fill="#2a2d2f"
       d="M 71.05865,146.9041 L 45.04983,168.89397 C 42.59925,155.55465 42.59925,134.52867 45.04983,126.16403 L 71.05865,146.9041" />

</svg>