<?xml version="1.0" standalone="no"?>
<svg id="Nederlands_verkeersbord_C1" width="300" height="300" viewBox="0 0 300 300"
xmlns="http://www.w3.org/2000/svg" version="1.1">

<circle id="witte_cirkel_met_rode_rand" cx="150" cy="150" r="130.5"
fill="#f7fbf5" stroke="#c1121c" stroke-width="39" />

<path fill="#2a2d2f"
       d="M 206.75797,172.1124 L 206.34955,172.1124 C 208.07308,167.90557 211.48746,166.8845 214.38724,166.72112 C 218.28355,166.53325 222.26972,169.4331 222.65363,172.36563 C 222.20437,169.04917 228.6819,166.72112 232.03093,166.72112 C 235.57601,166.72112 241.73496,169.33508 241.73496,177.1851 L 241.73496,200.76785 L 235.0614,200.76785 L 235.0614,180.9835 C 234.71016,177.79775 235.69853,173.19882 229.51507,173.19882 C 227.84872,173.19882 225.55341,174.28525 225.23484,176.39275 C 224.7284,179.51315 224.66305,182.77242 224.66305,183.57295 L 224.66305,200.76785 L 218.34073,200.76785 L 218.34073,180.9835 C 218.34073,175.17562 215.7922,173.41938 212.82708,173.41938 C 210.14785,173.41938 208.16293,175.02042 207.10921,177.85493 C 206.47208,179.5785 206.88867,182.77242 206.88867,183.57295 L 206.88867,200.76785 L 200.89308,200.76785 L 200.89308,167.70952 L 206.75797,167.70952 L 206.75797,172.1124" />

<path fill="#2a2d2f"
       d="M 150.28181,199.81212 C 147.12882,209.157 140.2347,210.02287 140.2347,210.02287 L 139.08296,206.99232 C 140.33273,205.7752 142.46467,204.53357 142.91393,202.04215 C 142.91393,202.04215 139.11564,203.89642 136.59978,200.19605 C 134.07575,196.49567 134.8109,191.6762 137.5228,189.05408 C 140.26738,186.44012 146.29564,186.95475 149.29344,190.30387 C 152.55262,193.90622 150.28181,199.81212 150.28181,199.81212" />

<path fill="#2a2d2f"
       d="M 89.95017,141.16157 C 89.95017,141.16157 106.69535,142.78713 107.56119,126.83385 C 107.94511,119.04917 103.7629,113.72325 92.7846,113.30665 C 85.98851,113.05342 78.45727,119.88237 78.45727,123.55007 L 65.76361,116.182 C 69.88047,110.4313 77.21567,99.81212 94.82669,100.22055 C 108.83546,100.53913 121.37392,110.66002 120.9655,126.64597 C 120.73679,134.84725 116.04814,143.84088 109.88918,146.9041 C 114.80655,149.64875 123.51404,154.05163 123.51404,171.89185 C 123.51404,191.64352 104.68593,202.99788 94.03436,202.99788 C 84.61622,202.99788 67.8057,198.12122 59.63732,179.25992 L 73.96466,174.75903 C 77.63226,180.47705 80.09094,188.67832 91.6737,188.48227 C 99.93193,188.35158 109.9872,183.12367 109.9872,171.47525 C 109.9872,157.1802 99.52351,154.68878 89.95017,154.68878 L 89.95017,141.16157" />

<path fill="#2a2d2f"
       d="M 150.44518,72.43098 L 128.46407,46.42215 C 141.79486,43.97157 162.82844,43.97157 171.18469,46.42215 L 150.44518,72.43098" />

<path fill="#2a2d2f"
       d="M 150.66572,228.55743 L 172.65499,254.56625 C 159.34871,257.05767 138.29063,257.05767 129.92621,254.56625 L 150.66572,228.55743" />

<path fill="#2a2d2f"
       d="M 158.99747,132.5192 C 163.71879,131.8167 167.19852,129.7092 169.27329,125.02042 L 179.35306,125.02042 L 179.35306,200.76785 L 168.18689,200.76785 L 168.18689,141.6762 L 158.99747,141.6762 L 158.99747,132.5192" />

</svg>