<?xml version="1.0" standalone="no"?>
<svg id="Nederlands_verkeersbord_C20" width="300" height="300" viewBox="0 0 300 300"
xmlns="http://www.w3.org/2000/svg" version="1.1">

<circle id="witte_cirkel_met_rode_rand" cx="150" cy="150" r="130.5"
fill="#f7fbf5" stroke="#c1121c" stroke-width="39" />

<path fill="#2a2d2f"
       d="M 133.96011,123.55718 L 125.15263,123.55718 L 125.15263,141.08262 L 114.62759,141.08262 L 114.62759,123.55718 L 79.33252,123.55718 L 79.33252,113.29263 L 114.14733,63.36996 L 125.15263,63.36996 L 125.15263,113.03215 L 133.96011,113.03215 L 133.96011,123.55718 z M 114.62759,113.03215 C 114.62759,93.89499 114.74969,84.95726 114.74969,82.50712 L 92.81237,113.03215 L 114.62759,113.03215" />

<path fill="#2a2d2f"
       d="M 170.74481,140.63492 C 156.02768,140.63492 152.02279,129.54009 152.24257,123.71998 C 152.37281,120.82214 152.37281,112.64957 161.08262,108.64469 C 156.56492,106.38991 153.86243,102.35246 153.86243,97.01262 C 153.86243,87.27717 162.92226,83.68742 170.37037,83.3374 C 179.64998,82.85714 186.35735,89.37729 186.35735,97.26496 C 186.35735,102.1571 184.73748,106.29223 179.17786,108.64469 C 184.98982,110.26455 188.93773,115.16484 188.93773,122.57224 C 188.93773,127.21205 185.88523,140.63492 170.74481,140.63492 z M 178.47782,97.965 C 178.47782,93.61009 174.84737,90.99715 171.22507,90.99715 C 166.17013,90.99715 162.70248,93.98453 162.70248,98.18478 C 162.70248,101.55474 165.05495,104.9247 169.89011,104.9247 C 175.45788,104.9247 178.47782,102.06756 178.47782,97.965 z M 170.37037,112.33211 C 164.55026,112.81237 160.86284,116.36956 160.60236,122.57224 C 160.38258,127.91209 164.07,132.99959 171.29019,132.56003 C 177.99756,132.11233 180.09768,126.25967 180.09768,122.35246 C 180.09768,118.31502 176.59748,111.85999 170.37037,112.33211" />

<path fill="#2a2d2f"
       d="M 209.35287,104.00488 L 216.34514,104.00488 L 216.34514,111.19251 L 209.35287,111.19251 L 209.35287,130.49247 C 209.82499,132.77981 209.60521,133.96011 213.77289,132.07977 C 214.37525,131.82743 215.14042,127.75743 215.86488,127.65975 L 216.79284,135.57998 C 215.39276,137.41962 215.61254,136.28002 214.02523,138.8197 L 210.74481,140.66748 C 204.48514,141.7501 201.9129,137.83476 201.9129,132.94261 L 201.9129,111.19251 L 196.76028,111.19251 L 196.76028,104.00488 L 201.9129,104.00488 L 201.9129,95.86488 L 209.35287,92.49491 L 209.35287,104.00488" />

<path fill="#2a2d2f"
       d="M 148.70981,137.5173 C 146.42247,144.25722 141.49776,144.89214 141.49776,144.89214 L 140.63492,142.70248 C 141.53032,141.80708 143.08506,140.91982 143.40252,139.13716 C 143.40252,139.13716 140.66748,140.47212 138.85226,137.8022 C 137.04518,135.13228 137.54986,131.66463 139.51974,129.79243 C 141.49776,127.87953 145.85267,128.26211 148.00977,130.67969 C 150.33781,133.29263 148.70981,137.5173 148.70981,137.5173" />

<path fill="#2a2d2f"
       d="M 126.23525,155.22996 L 169.40985,155.22996 L 148.07489,179.36508 L 126.23525,155.22996" />

<path fill="#2a2d2f"
       d="M 163.0525,205.40497 L 204.10256,204.42002 C 204.26536,209.57265 203.97232,220 205.63289,221.65242 C 207.08995,223.08506 209.95523,222.95482 214.40781,222.85714 C 218.4127,222.80016 221.78266,223.6223 223.81766,221.17216 C 225.08751,219.68254 224.73748,209.40985 224.73748,198.31502 C 224.73748,187.50509 225.08751,178.38014 223.56532,177.01262 C 221.81522,175.44974 218.91738,175.83232 214.34269,175.83232 C 209.85755,175.83232 206.90273,175.13228 205.21775,176.7847 C 203.46764,178.50224 204.42002,182.73504 204.10256,193.03215 L 162.92226,190.52503 C 162.92226,190.52503 158.1278,182.06756 148.32723,181.90476 C 138.5348,181.7501 133.79731,190.55759 133.79731,190.55759 L 92.49491,193.06471 C 92.21001,182.73504 93.44729,180 91.57509,177.19984 C 90.71225,175.93 86.87017,175.93 82.41758,175.83232 C 77.83476,175.7672 74.52991,175.86488 73.32519,177.01262 C 71.44485,178.85226 71.47741,186.92715 71.47741,197.965 C 71.47741,209.05983 70.97273,220.06512 73.22751,221.96988 C 74.84737,223.3374 78.50224,222.80016 82.51526,222.85714 C 86.95971,222.95482 89.54009,223.18274 91.09483,221.65242 C 93.19495,219.58486 92.27513,209.60521 92.42979,204.45258 L 133.64265,205.40497 C 133.64265,205.40497 138.6976,213.29263 148.32723,213.29263 C 157.01262,213.29263 163.0525,205.40497 163.0525,205.40497" />

</svg>