<?xml version="1.0" encoding="UTF-8" standalone="no"?>
<svg id="Nederlands_verkeersbord_K2" width="420" height="500" viewBox="0 0 420 500" xmlns="http://www.w3.org/2000/svg" version="1.1">

  <rect id="blauw_vlak" width="420" height="500" fill="#0e518d" />

  <path fill="none" id="witte_bies" stroke="#f7fbf5" stroke-width="6.727"
     d="M 44,7.375 C 23.776653,7.375 7.3749999,23.776656 7.375,44 L 7.375,456 C 7.375,476.22334 23.776654,492.625 44,492.625 L 376,492.625 C 396.22335,492.625 412.625,476.22335 412.625,456 L 412.625,44 C 412.625,23.776656 396.22334,7.3750001 376,7.375 L 44,7.375" />

  <path id="witte_bies_1200m" fill="none" stroke="#f7fbf5" stroke-width="4"
     d="M 260.09375,41.96875 L 50,42.3125 C 45.584001,42.3125 42,45.896499 42,50.3125 L 42,111.59375 C 42,116.00975 45.583999,119.59375 50,119.59375 L 258.5,119.59375 C 262.916,119.59375 266.5,116.00975 266.5,111.59375 L 266.59375,50.3125 C 266.59375,46.4485 263.56329,41.873499 260.09375,41.96875" />

  <path id="witte_tekst_1200m" fill="#f7fbf5"
     d="M 95.65625,62.90625 C 93.849594,62.906287 91.932604,63.26208 89.90625,63.9375 C 87.879874,64.61299 86.069328,65.392938 84.53125,66.3125 C 82.993159,67.232129 81.974605,68.050162 81.4375,68.75 L 85.78125,73.59375 C 86.839184,72.421903 88.314443,71.452502 90.21875,70.6875 C 92.123033,69.922556 93.975896,69.532582 95.75,69.5 C 98.061179,69.50003 100.01365,69.817739 101.625,70.46875 C 103.23631,71.119821 104.03122,72.191433 104.03125,73.65625 C 104.03122,74.518905 103.91664,75.176131 103.65625,75.65625 C 103.39581,76.136417 102.9977,76.527692 102.46875,76.8125 C 101.93975,77.097353 101.03579,77.44501 99.75,77.84375 C 98.464172,78.242535 97.363914,78.597026 96.46875,78.90625 C 95.068994,79.378276 93.674139,80.023132 92.25,80.8125 C 90.825834,81.601906 89.688791,82.316423 88.875,83 C 87.166007,84.448583 85.704419,86.178724 84.5,88.15625 C 83.295568,90.133798 82.470699,92.123054 82.03125,94.125 C 81.559242,96.094405 81.343746,97.96094 81.34375,99.71875 L 110.78125,99.71875 L 110.78125,93.3125 L 89.5,93.3125 C 89.776682,92.433601 90.398426,91.376961 91.375,90.15625 C 92.351549,88.935557 93.507798,87.878918 94.875,87 C 95.688785,86.462904 96.520489,86.066094 97.375,85.78125 C 98.229472,85.496433 99.504211,85.098321 101.15625,84.59375 C 102.80824,84.089208 103.95766,83.670589 104.625,83.3125 C 105.69919,82.742856 106.69854,82.084328 107.59375,81.34375 C 108.48891,80.603209 109.22654,79.633809 109.8125,78.4375 C 110.39841,77.241233 110.68747,75.81643 110.6875,74.15625 C 110.68747,71.666043 109.87627,69.438181 108.28125,67.46875 C 107.09307,65.971388 105.4378,64.827509 103.28125,64.0625 C 101.12465,63.297562 98.585917,62.906287 95.65625,62.90625 z M 131.96875,62.90625 C 127.73697,62.906287 124.20702,64.468785 121.375,67.59375 C 118.3151,70.995471 116.78124,75.610702 116.78125,81.4375 C 116.78124,87.296888 118.3151,91.955737 121.375,95.40625 C 124.19075,98.466147 127.72069,100 131.96875,100 C 132.99412,100 133.99901,99.905925 135,99.71875 C 136.00096,99.531576 136.94985,99.241212 137.8125,98.875 C 138.67511,98.50879 139.52178,98.054689 140.34375,97.46875 C 141.16566,96.882815 141.9238,96.187504 142.65625,95.40625 C 145.69984,91.972013 147.21872,87.313164 147.21875,81.4375 C 147.21872,79.972676 147.13278,78.591492 146.9375,77.28125 C 146.74216,75.971052 146.45309,74.748071 146.0625,73.625 C 145.67184,72.501981 145.16468,71.432971 144.5625,70.375 C 143.96026,69.317088 143.29489,68.375031 142.5625,67.59375 C 139.74672,64.468785 136.21678,62.906287 131.96875,62.90625 z M 168,62.90625 C 163.76821,62.906287 160.23827,64.468785 157.40625,67.59375 C 154.34635,70.995471 152.8125,75.610702 152.8125,81.4375 C 152.8125,87.296888 154.34635,91.955737 157.40625,95.40625 C 160.22199,98.466147 163.75194,100 168,100 C 169.02537,100 170.03025,99.905925 171.03125,99.71875 C 172.0322,99.531576 172.9811,99.241212 173.84375,98.875 C 174.70636,98.50879 175.55303,98.054689 176.375,97.46875 C 177.19691,96.882815 177.95505,96.187504 178.6875,95.40625 C 181.73109,91.972013 183.24997,87.313164 183.25,81.4375 C 183.24997,79.972676 183.16403,78.591492 182.96875,77.28125 C 182.7734,75.971052 182.48435,74.748071 182.09375,73.625 C 181.7031,72.501981 181.19593,71.432971 180.59375,70.375 C 179.9915,69.317088 179.32615,68.375031 178.59375,67.59375 C 175.77797,64.468785 172.24802,62.906287 168,62.90625 z M 67.625,63.21875 C 67.624992,64.000036 66.87369,64.90954 65.34375,66 C 64.871739,66.34183 64.147782,66.705762 63.1875,67.03125 L 62,67.3125 L 62,72.5 L 67.03125,72.5 L 67.03125,99.71875 L 73.28125,99.71875 L 73.28125,63.21875 L 67.625,63.21875 z M 216.875,69.21875 C 215.28904,69.218781 213.78774,69.527374 212.375,70.15625 C 210.96222,70.785185 209.72655,71.656278 208.6875,72.75 L 208.6875,69.59375 L 202,69.59375 L 202,100 L 208.6875,100 L 208.6875,82.15625 C 208.68749,80.497415 209.27082,79.085958 210.4375,77.9375 C 211.60415,76.789086 212.98956,76.218774 214.59375,76.21875 C 216.19789,76.218774 217.60545,76.779971 218.78125,77.9375 C 219.95701,79.095073 220.53122,80.515644 220.53125,82.15625 L 220.53125,100 L 227.28125,100 L 227.28125,82.15625 C 227.28122,80.497415 227.85153,79.085958 229,77.9375 C 230.1484,76.789086 231.56507,76.218774 233.1875,76.21875 C 234.80986,76.218774 236.16402,76.789086 237.3125,77.9375 C 238.46089,79.085958 239.06246,80.497415 239.0625,82.15625 L 239.0625,100 L 245.84375,100 L 245.84375,80.4375 C 245.8437,78.888042 245.55203,77.42971 244.96875,76.0625 C 244.38537,74.695338 243.58328,73.52086 242.5625,72.5 C 241.54162,71.479195 240.33589,70.677113 238.96875,70.09375 C 237.60152,69.510447 236.14319,69.218781 234.59375,69.21875 C 232.82548,69.218781 231.16533,69.609405 229.625,70.375 C 228.0846,71.140654 226.80726,72.169299 225.75,73.5 C 224.69268,72.169299 223.39711,71.140654 221.875,70.375 C 220.35284,69.609405 218.67966,69.218781 216.875,69.21875 z M 131.96875,69.59375 C 134.2311,69.59378 136.13995,70.448597 137.71875,72.125 C 138.40232,72.841172 138.96677,73.659206 139.40625,74.5625 C 139.84568,75.465844 140.1865,76.477562 140.40625,77.625 C 140.62595,78.772482 140.74997,80.082702 140.75,81.53125 C 140.74997,85.665378 139.75063,88.774099 137.78125,90.90625 C 136.95115,91.736336 136.06085,92.351245 135.125,92.75 C 134.18911,93.14877 133.17056,93.375006 132.03125,93.375 C 129.73631,93.375006 127.81118,92.533861 126.28125,90.90625 C 124.27928,88.790375 123.28124,85.681654 123.28125,81.53125 C 123.28124,77.380881 124.24934,74.240911 126.21875,72.125 C 127.08137,71.246122 127.9798,70.586292 128.875,70.1875 C 129.77016,69.788767 130.79686,69.59378 131.96875,69.59375 z M 168,69.59375 C 170.26235,69.59378 172.20245,70.448597 173.78125,72.125 C 174.46482,72.841172 174.99802,73.659206 175.4375,74.5625 C 175.87693,75.465844 176.21775,76.477562 176.4375,77.625 C 176.6572,78.772482 176.78122,80.082702 176.78125,81.53125 C 176.78122,85.665378 175.78187,88.774099 173.8125,90.90625 C 172.9824,91.736336 172.0921,92.351245 171.15625,92.75 C 170.22036,93.14877 169.2018,93.375006 168.0625,93.375 C 165.76756,93.375006 163.84244,92.533861 162.3125,90.90625 C 160.31054,88.790375 159.31249,85.681654 159.3125,81.53125 C 159.31249,77.380881 160.31184,74.240911 162.28125,72.125 C 163.14387,71.246122 164.01106,70.586292 164.90625,70.1875 C 165.80142,69.788767 166.82811,69.59378 168,69.59375" />

  <path id="witte_pijl" fill="#f7fbf5"   
     d="M 288.97368,112.64217 L 338.76451,66.97633 L 318.58582,54.65558 C 313.02397,52.23832 311.94611,47.03748 318.04951,45.43909 L 379.27711,34.47228 C 384.77618,33.52002 386.69374,35.43764 385.74149,40.93675 L 374.77478,102.16428 C 373.17631,108.26767 367.97549,107.18985 365.55812,101.62798 L 353.29992,81.51182 L 307.7591,131.42763" />

  <path id="witte_tekst_Arnhem" fill="#f7fbf5"
     d="M 54.199217,152.73828 L 71.316404,193.61719 L 63.988279,193.61719 L 59.914061,183.88281 L 41.484373,183.88281 L 37.328123,193.61719 L 29.999998,193.61719 L 47.144529,152.73828 L 54.199217,152.73828 z M 50.671873,161.87109 L 44.273436,177.10156 L 57.042967,177.10156 L 50.671873,161.87109 z M 99.972654,171.93359 C 99.042942,170.52997 97.566381,169.82815 95.542967,169.82812 C 93.811177,169.82815 92.320944,170.44338 91.072264,171.67383 C 89.823551,172.90432 89.199202,174.39455 89.199217,176.14453 L 89.199217,193.61719 L 82.499998,193.61719 L 82.499998,163.21094 L 89.199217,163.21094 L 89.199217,166.30078 C 90.31118,165.15237 91.482403,164.26826 92.712889,163.64844 C 93.943338,163.02868 95.333311,162.71878 96.882811,162.71875 C 98.067683,162.71878 99.052057,162.86006 99.835936,163.14258 C 100.61976,163.42516 101.3307,163.83987 101.96875,164.38672 L 99.972654,171.93359 z M 118.40234,193.61719 L 111.70312,193.61719 L 111.70312,163.21094 L 118.40234,163.21094 L 118.40234,166.30078 C 119.44139,165.22529 120.68097,164.36852 122.12109,163.73047 C 123.56118,163.09248 125.04685,162.77347 126.57812,162.77344 C 128.60154,162.77347 130.47914,163.27933 132.21094,164.29102 C 133.94268,165.30276 135.31442,166.66995 136.32617,168.39258 C 137.33786,170.11526 137.84371,171.9883 137.84375,174.01172 L 137.84375,193.61719 L 131.11719,193.61719 L 131.11719,176.14453 C 131.11716,174.97788 130.83005,173.91604 130.25586,172.95898 C 129.68161,172.00197 128.91143,171.24091 127.94531,170.67578 C 126.97914,170.1107 125.91274,169.82815 124.74609,169.82812 C 123.59763,169.82815 122.53579,170.11526 121.56054,170.68945 C 120.58527,171.26369 119.81509,172.03388 119.25,173 C 118.68488,173.96617 118.40233,175.01434 118.40234,176.14453 L 118.40234,193.61719 z M 153.59375,154.35156 L 160.375,151.45312 L 160.375,166.30078 C 162.54425,163.98571 165.18748,162.82816 168.30469,162.82812 C 170.36456,162.82816 172.24216,163.32946 173.9375,164.33203 C 175.63278,165.33466 176.97718,166.70185 177.9707,168.43359 C 178.96416,170.16539 179.4609,172.04299 179.46094,174.06641 L 179.46094,193.61719 L 172.67969,193.61719 L 172.67969,176.14453 C 172.67966,175.01434 172.41078,173.96617 171.87304,173 C 171.33526,172.03388 170.59698,171.26369 169.6582,170.68945 C 168.71938,170.11526 167.67576,169.82815 166.52734,169.82812 C 165.36066,169.82815 164.30792,170.11526 163.36914,170.68945 C 162.43032,171.26369 161.6966,172.03843 161.16797,173.01367 C 160.63931,173.98895 160.37498,175.03257 160.375,176.14453 L 160.375,193.61719 L 153.59375,193.61719 L 153.59375,154.35156 z M 215.58203,189.29688 C 214.10544,190.84636 212.46937,192.01758 210.67383,192.81055 C 208.87823,193.60352 206.91404,194 204.78125,194 C 202.8854,194 201.12173,193.61263 199.49023,192.83789 C 197.85871,192.06315 196.45051,190.96485 195.26562,189.54297 C 194.08072,188.1211 193.16926,186.45769 192.53125,184.55273 C 191.89322,182.6478 191.57421,180.59246 191.57422,178.38672 C 191.57421,175.43361 192.12564,172.78127 193.22851,170.42969 C 194.33137,168.07815 195.88996,166.22333 197.90429,164.86523 C 199.91861,163.50719 202.21092,162.82816 204.78125,162.82812 C 207.35154,162.82816 209.64841,163.50719 211.67187,164.86523 C 213.69528,166.22333 215.25388,168.08271 216.34765,170.44336 C 217.44137,172.80406 217.98825,175.45184 217.98828,178.38672 C 217.98825,179.20705 217.97002,179.82684 217.93359,180.24609 L 198.84765,180.24609 C 199.08462,182.4336 199.71808,184.22006 200.74804,185.60547 C 201.77798,186.99089 203.12238,187.6836 204.78125,187.68359 C 206.18488,187.6836 207.31052,187.50131 208.1582,187.13672 C 209.00584,186.77214 209.78513,186.17058 210.49609,185.33203 L 215.58203,189.29688 z M 210.49609,174.85938 C 210.13149,173.1094 209.47068,171.73765 208.51367,170.74414 C 207.55662,169.75067 206.31248,169.25393 204.78125,169.25391 C 201.84634,169.25393 199.95962,171.12242 199.12109,174.85938 L 210.49609,174.85938 z M 237.62109,166.35547 C 238.66014,165.26175 239.88605,164.40042 241.29883,163.77148 C 242.71157,163.14261 244.21091,162.82816 245.79687,162.82812 C 247.60154,162.82816 249.26495,163.21097 250.78711,163.97656 C 252.30921,164.74222 253.59893,165.79039 254.65625,167.12109 C 255.71351,165.79039 257.01233,164.74222 258.55273,163.97656 C 260.09306,163.21097 261.74736,162.82816 263.51562,162.82812 C 265.06506,162.82816 266.52339,163.11982 267.89062,163.70312 C 269.25776,164.28649 270.45177,165.08857 271.47265,166.10938 C 272.49344,167.13023 273.29552,168.32424 273.8789,169.69141 C 274.46219,171.05862 274.75385,172.51695 274.7539,174.06641 L 274.7539,193.61719 L 267.97265,193.61719 L 267.97265,175.76172 C 267.97261,174.10288 267.39839,172.69924 266.25,171.55078 C 265.10152,170.40237 263.7161,169.82815 262.09375,169.82812 C 260.47131,169.82815 259.0859,170.40237 257.9375,171.55078 C 256.78903,172.69924 256.21481,174.10288 256.21484,175.76172 L 256.21484,193.61719 L 249.46094,193.61719 L 249.46094,175.76172 C 249.46091,174.12111 248.87302,172.72203 247.69726,171.56445 C 246.52146,170.40692 245.13149,169.82815 243.52734,169.82812 C 241.92316,169.82815 240.53774,170.40237 239.37109,171.55078 C 238.20441,172.69924 237.62108,174.10288 237.62109,175.76172 L 237.62109,193.61719 L 230.92187,193.61719 L 230.92187,163.21094 L 237.62109,163.21094 L 237.62109,166.35547" />

  <path id="witte_tekst_Apeldoorn" fill="#f7fbf5"
     d="M 54.199219,223.97656 L 71.316406,264.85547 L 63.988281,264.85547 L 59.914062,255.12109 L 41.484375,255.12109 L 37.328125,264.85547 L 30,264.85547 L 47.144531,223.97656 L 54.199219,223.97656 z M 50.671875,233.10938 L 44.273438,248.33984 L 57.042969,248.33984 L 50.671875,233.10938 z M 89.28125,272.07422 L 82.5,275 L 82.5,234.44922 L 89.28125,234.44922 L 89.28125,235.84375 C 91.049463,234.69534 93.063784,234.12112 95.324219,234.12109 C 97.894508,234.12112 100.19138,234.80016 102.21484,236.1582 C 104.23825,237.5163 105.79684,239.37568 106.89062,241.73633 C 107.98434,244.09703 108.53122,246.74481 108.53125,249.67969 C 108.53122,251.83074 108.21676,253.86785 107.58789,255.79102 C 106.95895,257.7142 106.06572,259.37761 104.9082,260.78125 C 103.75062,262.1849 102.35153,263.27865 100.71094,264.0625 C 99.070288,264.84635 97.274717,265.23828 95.324219,265.23828 C 93.063784,265.23828 91.049463,264.66406 89.28125,263.51562 L 89.28125,272.07422 z M 89.28125,255.66797 C 90.429672,257.38152 92.106753,258.23829 94.3125,258.23828 C 95.679666,258.23829 96.860004,257.8737 97.853516,257.14453 C 98.846981,256.41537 99.608048,255.40821 100.13672,254.12305 C 100.66534,252.8379 100.92966,251.35678 100.92969,249.67969 C 100.92966,248.00262 100.66534,246.5215 100.13672,245.23633 C 99.608048,243.95119 98.846981,242.94403 97.853516,242.21484 C 96.860004,241.4857 95.679666,241.12112 94.3125,241.12109 C 92.106753,241.12112 90.429672,241.97789 89.28125,243.69141 L 89.28125,255.66797 z M 141.42578,260.53516 C 139.94919,262.08464 138.31313,263.25586 136.51758,264.04883 C 134.72198,264.8418 132.75779,265.23828 130.625,265.23828 C 128.72915,265.23828 126.96548,264.85091 125.33398,264.07617 C 123.70246,263.30143 122.29426,262.20313 121.10938,260.78125 C 119.92447,259.35938 119.01301,257.69597 118.375,255.79102 C 117.73697,253.88608 117.41796,251.83074 117.41797,249.625 C 117.41796,246.67189 117.9694,244.01955 119.07227,241.66797 C 120.17512,239.31643 121.73372,237.46162 123.74805,236.10352 C 125.76236,234.74547 128.05467,234.06644 130.625,234.06641 C 133.19529,234.06644 135.49217,234.74547 137.51562,236.10352 C 139.53904,237.46162 141.09763,239.32099 142.19141,241.68164 C 143.28513,244.04234 143.832,246.69012 143.83203,249.625 C 143.832,250.44533 143.81377,251.06512 143.77734,251.48438 L 124.69141,251.48438 C 124.92837,253.67189 125.56184,255.45834 126.5918,256.84375 C 127.62173,258.22917 128.96613,258.92188 130.625,258.92188 C 132.02863,258.92188 133.15428,258.73959 134.00195,258.375 C 134.84959,258.01042 135.62888,257.40886 136.33984,256.57031 L 141.42578,260.53516 z M 136.33984,246.09766 C 135.97524,244.34768 135.31443,242.97593 134.35742,241.98242 C 133.40037,240.98896 132.15623,240.49221 130.625,240.49219 C 127.69009,240.49221 125.80337,242.3607 124.96484,246.09766 L 136.33984,246.09766 z M 156.76562,264.85547 L 156.76562,225.58984 L 163.46484,222.74609 L 163.46484,264.85547 L 156.76562,264.85547 z M 194.85547,225.58984 L 201.63672,222.74609 L 201.63672,264.85547 L 194.85547,264.85547 L 194.85547,263.46094 C 193.03253,264.64583 191.01821,265.23828 188.8125,265.23828 C 186.24217,265.23828 183.9453,264.55469 181.92188,263.1875 C 179.89843,261.82032 178.33984,259.95639 177.24609,257.5957 C 176.15234,255.23504 175.60546,252.57814 175.60547,249.625 C 175.60546,246.69012 176.15234,244.04234 177.24609,241.68164 C 178.33984,239.32099 179.89387,237.46162 181.9082,236.10352 C 183.92251,234.74547 186.22394,234.06644 188.8125,234.06641 C 190.98175,234.06644 192.99607,234.64066 194.85547,235.78906 L 194.85547,225.58984 z M 194.85547,243.69141 C 193.68878,241.97789 192.02993,241.12112 189.87891,241.12109 C 187.80076,241.12112 186.16926,241.90041 184.98438,243.45898 C 183.79947,245.0176 183.20702,247.07293 183.20703,249.625 C 183.20702,252.1771 183.79947,254.24155 184.98438,255.81836 C 186.16926,257.39519 187.80076,258.1836 189.87891,258.18359 C 192.0117,258.1836 193.67055,257.32683 194.85547,255.61328 L 194.85547,243.69141 z M 240.19141,249.625 C 240.19138,252.57814 239.6445,255.23504 238.55078,257.5957 C 237.457,259.95639 235.90297,261.82032 233.88867,263.1875 C 231.87433,264.55469 229.5729,265.23828 226.98438,265.23828 C 224.41405,265.23828 222.11717,264.55469 220.09375,263.1875 C 218.0703,261.82032 216.51171,259.95639 215.41797,257.5957 C 214.32421,255.23504 213.77734,252.57814 213.77734,249.625 C 213.77734,246.69012 214.32421,244.04234 215.41797,241.68164 C 216.51171,239.32099 218.06575,237.46162 220.08008,236.10352 C 222.09439,234.74547 224.39582,234.06644 226.98438,234.06641 C 229.55467,234.06644 231.85154,234.74547 233.875,236.10352 C 235.89841,237.46162 237.457,239.32099 238.55078,241.68164 C 239.6445,244.04234 240.19138,246.69012 240.19141,249.625 L 240.19141,249.625 z M 226.98438,240.49219 C 225.6354,240.49221 224.50975,240.89325 223.60742,241.69531 C 222.70506,242.49742 222.03514,243.58205 221.59766,244.94922 C 221.16014,246.31642 220.94139,247.87502 220.94141,249.625 C 220.94139,252.32293 221.45181,254.52866 222.47266,256.24219 C 223.49348,257.95574 224.99738,258.81251 226.98438,258.8125 C 228.97133,258.81251 230.47524,257.95574 231.49609,256.24219 C 232.5169,254.52866 233.02732,252.32293 233.02734,249.625 C 233.02732,247.87502 232.80857,246.31642 232.37109,244.94922 C 231.93357,243.58205 231.26365,242.49742 230.36133,241.69531 C 229.45896,240.89325 228.33331,240.49221 226.98438,240.49219 L 226.98438,240.49219 z M 275.51953,249.625 C 275.5195,252.57814 274.97263,255.23504 273.87891,257.5957 C 272.78513,259.95639 271.23109,261.82032 269.2168,263.1875 C 267.20245,264.55469 264.90102,265.23828 262.3125,265.23828 C 259.74217,265.23828 257.4453,264.55469 255.42188,263.1875 C 253.39843,261.82032 251.83984,259.95639 250.74609,257.5957 C 249.65234,255.23504 249.10546,252.57814 249.10547,249.625 C 249.10546,246.69012 249.65234,244.04234 250.74609,241.68164 C 251.83984,239.32099 253.39387,237.46162 255.4082,236.10352 C 257.42251,234.74547 259.72394,234.06644 262.3125,234.06641 C 264.88279,234.06644 267.17967,234.74547 269.20312,236.10352 C 271.22654,237.46162 272.78513,239.32099 273.87891,241.68164 C 274.97263,244.04234 275.5195,246.69012 275.51953,249.625 L 275.51953,249.625 z M 262.3125,240.49219 C 260.96353,240.49221 259.83788,240.89325 258.93555,241.69531 C 258.03319,242.49742 257.36327,243.58205 256.92578,244.94922 C 256.48827,246.31642 256.26952,247.87502 256.26953,249.625 C 256.26952,252.32293 256.77994,254.52866 257.80078,256.24219 C 258.8216,257.95574 260.32551,258.81251 262.3125,258.8125 C 264.29946,258.81251 265.80336,257.95574 266.82422,256.24219 C 267.84503,254.52866 268.35545,252.32293 268.35547,249.625 C 268.35545,247.87502 268.1367,246.31642 267.69922,244.94922 C 267.2617,243.58205 266.59178,242.49742 265.68945,241.69531 C 264.78709,240.89325 263.66144,240.49221 262.3125,240.49219 L 262.3125,240.49219 z M 305.48828,243.17188 C 304.55857,241.76825 303.08201,241.06643 301.05859,241.06641 C 299.3268,241.06643 297.83657,241.68166 296.58789,242.91211 C 295.33918,244.1426 294.71483,245.63283 294.71484,247.38281 L 294.71484,264.85547 L 288.01562,264.85547 L 288.01562,234.44922 L 294.71484,234.44922 L 294.71484,237.53906 C 295.82681,236.39065 296.99803,235.50654 298.22852,234.88672 C 299.45897,234.26696 300.84894,233.95706 302.39844,233.95703 C 303.58331,233.95706 304.56768,234.09834 305.35156,234.38086 C 306.13539,234.66344 306.84633,235.07815 307.48438,235.625 L 305.48828,243.17188 z M 323.91797,264.85547 L 317.21875,264.85547 L 317.21875,234.44922 L 323.91797,234.44922 L 323.91797,237.53906 C 324.95702,236.46357 326.1966,235.6068 327.63672,234.96875 C 329.0768,234.33076 330.56248,234.01175 332.09375,234.01172 C 334.11716,234.01175 335.99477,234.51761 337.72656,235.5293 C 339.4583,236.54104 340.83005,237.90823 341.8418,239.63086 C 342.85348,241.35354 343.35934,243.22658 343.35938,245.25 L 343.35938,264.85547 L 336.63281,264.85547 L 336.63281,247.38281 C 336.63279,246.21616 336.34568,245.15432 335.77148,244.19727 C 335.19724,243.24026 334.42706,242.47919 333.46094,241.91406 C 332.49477,241.34898 331.42836,241.06643 330.26172,241.06641 C 329.11326,241.06643 328.05141,241.35354 327.07617,241.92773 C 326.10089,242.50198 325.33071,243.27216 324.76562,244.23828 C 324.20051,245.20445 323.91795,246.25262 323.91797,247.38281 L 323.91797,264.85547" />

  <path id="witte_achtergrond_vliegveld_Terlet" fill="#f7fbf5"
     d="M 35,296 C 32.24,296 30,298.24 30,301 L 30,353 C 30,355.76 32.24,358 35,358 L 325,358 C 327.76,358 330,355.76 330,353 L 330,301 C 330,298.24 327.76,296 325,296 L 35,296" />

  <path id="zwarte_tekst_vliegveld_Terlet" fill="#2a2d2f"
     d="M 69.0625,300.375 L 76.75,317.84375 L 76.75,323.9375 L 68.5,323.9375 C 65.419253,324.0469 62.593735,324.44534 59.96875,325.15625 L 55.40625,318.75 L 53.125,318.75 L 54.625,326.0625 L 52,326.65625 L 54.625,327.3125 L 53.125,334.5625 L 55.40625,334.5625 L 59.96875,328.1875 C 60.5703,328.35158 61.406236,328.50914 62.5,328.71875 C 63.593734,328.92841 64.54165,329.09638 65.34375,329.1875 C 66.145815,329.27867 67.18748,329.3646 68.5,329.4375 L 76.75,329.4375 L 76.75,335.53125 L 69.0625,353 L 74.0625,353 L 91.4375,329.4375 L 97.8125,329.4375 C 99.398386,329.43752 100.74084,329.34246 101.84375,329.1875 C 102.94656,329.03257 103.91141,328.79689 104.75,328.46875 C 105.44265,328.19533 106.01296,327.87372 106.46875,327.5 C 106.92442,327.12633 107.15619,326.83856 107.15625,326.65625 C 107.15619,326.45575 106.93353,326.18622 106.46875,325.8125 C 106.00385,325.43882 105.42443,325.11201 104.75,324.875 C 104.00255,324.5469 103.11063,324.31122 102.0625,324.15625 C 101.01427,324.00132 99.598907,323.93753 97.8125,323.9375 L 91.4375,323.9375 L 74.0625,300.375 L 69.0625,300.375 z M 242.1875,304.5 L 235.46875,307.34375 L 235.46875,346.625 L 242.1875,346.625 L 242.1875,304.5 z M 129,305.75 L 129,311.6875 L 140.4375,311.6875 L 140.4375,346.625 L 147.21875,346.625 L 147.21875,311.6875 L 158.875,311.6875 L 158.875,305.75 L 129,305.75 z M 301.53125,306.125 L 294.84375,309 L 294.84375,316.25 L 289.40625,316.25 L 289.40625,323.0625 L 294.84375,323.0625 L 294.84375,339.84375 C 294.84374,341.13802 295.17446,342.3125 295.8125,343.40625 C 296.45051,344.5 297.29035,345.38411 298.375,346.03125 C 299.45962,346.67838 300.66925,347 302,347 C 303.71352,347 304.91925,346.88412 305.59375,346.65625 C 306.26821,346.42839 307.01821,346.07292 307.875,345.5625 L 309.4375,338.125 C 307.96091,339.65626 306.30988,340.40625 304.46875,340.40625 C 303.68488,340.40625 302.98957,340.12761 302.40625,339.5625 C 301.8229,338.9974 301.53124,338.32033 301.53125,337.5 L 301.53125,323.0625 L 309.15625,323.0625 L 309.15625,316.25 L 301.53125,316.25 L 301.53125,306.125 z M 220.65625,315.71875 C 219.10675,315.71878 217.73045,316.03649 216.5,316.65625 C 215.26951,317.27607 214.08071,318.16409 212.96875,319.3125 L 212.96875,316.21875 L 206.28125,316.21875 L 206.28125,346.625 L 212.96875,346.625 L 212.96875,329.15625 C 212.96873,327.40627 213.59504,325.91799 214.84375,324.6875 C 216.09243,323.45705 217.58071,322.81252 219.3125,322.8125 C 221.33591,322.81253 222.82029,323.53388 223.75,324.9375 L 225.75,317.375 C 225.11195,316.82815 224.40883,316.43883 223.625,316.15625 C 222.84112,315.87373 221.84112,315.71878 220.65625,315.71875 z M 180.125,315.8125 C 177.55468,315.81254 175.26431,316.51696 173.25,317.875 C 171.23567,319.2331 169.69661,321.08596 168.59375,323.4375 C 167.49088,325.78908 166.9375,328.42189 166.9375,331.375 C 166.9375,333.58074 167.23698,335.65757 167.875,337.5625 C 168.51302,339.46746 169.44009,341.10938 170.625,342.53125 C 171.80988,343.95313 173.21223,345.06901 174.84375,345.84375 C 176.47524,346.61849 178.22915,347 180.125,347 C 182.2578,347 184.23566,346.60547 186.03125,345.8125 C 187.8268,345.01953 189.46091,343.86199 190.9375,342.3125 L 185.84375,338.34375 C 185.13279,339.1823 184.34763,339.76042 183.5,340.125 C 182.65232,340.48959 181.52863,340.68751 180.125,340.6875 C 178.46613,340.68751 177.12368,339.97917 176.09375,338.59375 C 175.06379,337.20834 174.42447,335.43751 174.1875,333.25 L 193.28125,333.25 C 193.31767,332.83075 193.34372,332.19533 193.34375,331.375 C 193.34372,328.44012 192.78122,325.7982 191.6875,323.4375 C 190.59372,321.07685 189.05466,319.2331 187.03125,317.875 C 185.00779,316.51696 182.69529,315.81254 180.125,315.8125 z M 267.53125,315.8125 C 264.96092,315.81254 262.67056,316.51696 260.65625,317.875 C 258.64192,319.2331 257.07161,321.08596 255.96875,323.4375 C 254.86588,325.78908 254.31249,328.42189 254.3125,331.375 C 254.31249,333.58074 254.64322,335.65757 255.28125,337.5625 C 255.91926,339.46746 256.8151,341.10938 258,342.53125 C 259.18489,343.95313 260.58723,345.06901 262.21875,345.84375 C 263.85025,346.61849 265.6354,347 267.53125,347 C 269.66404,347 271.61065,346.60547 273.40625,345.8125 C 275.20179,345.01953 276.83591,343.86199 278.3125,342.3125 L 273.25,338.34375 C 272.53904,339.1823 271.75389,339.76042 270.90625,340.125 C 270.05857,340.48959 268.93487,340.68751 267.53125,340.6875 C 265.87238,340.68751 264.52994,339.97917 263.5,338.59375 C 262.47004,337.20834 261.83072,335.43751 261.59375,333.25 L 280.6875,333.25 C 280.72393,332.83075 280.71872,332.19533 280.71875,331.375 C 280.71872,328.44012 280.18747,325.7982 279.09375,323.4375 C 277.99998,321.07685 276.42966,319.2331 274.40625,317.875 C 272.38279,316.51696 270.10154,315.81254 267.53125,315.8125 z M 180.125,322.25 C 181.65623,322.25002 182.91795,322.75653 183.875,323.75 C 184.83201,324.74351 185.47914,326.12502 185.84375,327.875 L 174.46875,327.875 C 175.30728,324.13804 177.19009,322.25002 180.125,322.25 z M 267.53125,322.25 C 269.06248,322.25002 270.29295,322.75653 271.25,323.75 C 272.20701,324.74351 272.8854,326.12502 273.25,327.875 L 261.875,327.875 C 262.71353,324.13804 264.59634,322.25002 267.53125,322.25" />

  <path id="geel_bord_N50" fill="#f0ca00"
     d="M 35,387.8125 C 32.479736,388.0687 30.5,390.22501 30.5,392.8125 L 30.5,456.3125 C 30.5,459.0725 32.74,461.31251 35.5,461.3125 L 183.59375,461.3125 C 186.35375,461.3125 188.59374,459.07251 188.59375,456.3125 L 188.59375,392.8125 C 188.59375,390.0525 186.35374,387.81251 183.59375,387.8125 L 35,387.8125" />

  <path id="zwarte_tekst_N50" fill="#2a2d2f"
     d="M 155.96875,403.40625 C 153.72654,403.40629 151.59503,403.86592 149.5625,404.75 C 147.52993,405.63415 145.72004,406.92842 144.125,408.6875 C 142.52994,410.44665 141.27734,412.64716 140.375,415.28125 C 139.47265,417.91539 139.03125,420.87503 139.03125,424.15625 C 139.03125,427.43752 139.49479,430.41017 140.40625,433.0625 C 141.3177,435.71486 142.53905,437.90626 144.125,439.65625 C 145.71093,441.40625 147.52993,442.75391 149.5625,443.65625 C 151.59503,444.5586 153.72654,445 155.96875,445 C 158.24737,445 160.41794,444.5586 162.46875,443.65625 C 164.5195,442.75391 166.32939,441.42839 167.90625,439.6875 C 169.48303,437.94662 170.74475,435.75001 171.65625,433.125 C 172.56767,430.50002 172.99997,427.51044 173,424.15625 C 172.99997,420.78388 172.56767,417.81644 171.65625,415.21875 C 170.74475,412.62113 169.49216,410.43753 167.90625,408.6875 C 166.32028,406.93754 164.51038,405.63415 162.46875,404.75 C 160.42706,403.86592 158.24737,403.40629 155.96875,403.40625 z M 99.25,403.75 L 98.34375,422.9375 L 105.0625,425 C 105.37238,424.81773 105.95181,424.56122 106.78125,424.1875 C 107.61066,423.81383 108.78123,423.43622 110.3125,423.0625 C 111.84373,422.68882 113.53383,422.50003 115.375,422.5 C 116.41404,422.50003 117.41795,422.7357 118.375,423.21875 C 119.33201,423.70185 120.16404,424.34117 120.875,425.125 C 121.58591,425.90888 122.15232,426.8008 122.5625,427.8125 C 122.97263,428.82424 123.15622,429.84116 123.15625,430.84375 C 123.15622,431.80991 122.89971,432.87762 122.34375,434.0625 C 121.78774,435.24741 120.83461,436.3073 119.53125,437.21875 C 118.22784,438.13022 116.52081,438.5625 114.40625,438.5625 C 111.58071,438.5625 108.74999,438.14714 105.90625,437.28125 C 103.06249,436.41537 100.99999,435.67709 99.6875,435.09375 L 97,440.875 C 98.20312,441.54949 100.36458,442.40756 103.5,443.4375 C 106.63541,444.46745 110.39322,444.98177 114.75,445 C 116.29946,445 117.91144,444.68229 119.625,444.0625 C 121.33852,443.44271 122.94268,442.52474 124.4375,441.3125 C 125.93226,440.10026 127.17705,438.60417 128.125,436.78125 C 129.07288,434.95834 129.53122,432.90366 129.53125,430.625 C 129.53122,428.25522 129.12366,426.15757 128.3125,424.34375 C 127.50126,422.52997 126.42054,421.01564 125.0625,419.8125 C 123.7044,418.6094 122.22524,417.71747 120.59375,417.125 C 118.96222,416.53258 117.28904,416.25002 115.59375,416.25 C 113.07811,416.25002 110.91665,416.45576 109.09375,416.875 C 107.27082,417.2943 105.96613,417.63284 105.21875,417.90625 L 105.5625,410.15625 L 125.5625,410.15625 L 125.5625,403.75 L 99.25,403.75 z M 47,404.125 L 47,445 L 53.78125,445 L 53.78125,416.03125 L 73.125,445 L 79.9375,445 L 79.9375,404.125 L 73.125,404.125 L 73.125,432.28125 L 53.78125,404.125 L 47,404.125 z M 155.96875,409.84375 C 157.24477,409.84378 158.48435,410.08857 159.6875,410.5625 C 160.8906,411.03649 162.0143,411.81644 163.0625,412.9375 C 164.11065,414.05863 164.9557,415.56904 165.59375,417.4375 C 166.23174,419.30601 166.56247,421.53128 166.5625,424.15625 C 166.56247,426.83596 166.24476,429.11851 165.625,430.96875 C 165.00518,432.81903 164.18617,434.29428 163.15625,435.40625 C 162.12628,436.51824 160.97654,437.3112 159.71875,437.8125 C 158.46092,438.3138 157.23435,438.5625 156.03125,438.5625 C 154.31768,438.5625 152.66665,438.10808 151.0625,437.1875 C 149.45832,436.26693 148.1289,434.73569 147.0625,432.59375 C 145.99609,430.45184 145.43749,427.63804 145.4375,424.15625 C 145.43749,421.53128 145.77734,419.2969 146.40625,417.4375 C 147.03515,415.57815 147.8802,414.06774 148.9375,412.9375 C 149.99478,411.80733 151.11848,411.0365 152.3125,410.5625 C 153.5065,410.08857 154.71092,409.84378 155.96875,409.84375" />

</svg>