<?xml version="1.0" standalone="no"?>
<svg id="Nederlands_verkeersbord_K3" width="675" height="575" viewBox="0 0 675 575"
xmlns="http://www.w3.org/2000/svg" version="1.1">

<path id="achtergrond_blauw" fill="#0e518d"
     d="M 0,0 675,0 675,575 0,575 0,0" />

<path id="bies_wit" fill="#f7fbf5"
     d="M 50,7.5 C 26.5279,7.5 7.5,26.5279 7.5,50 l 0,475 c 0,23.47211 19.027899,42.5 42.5,42.5 l 575,0 c 23.4721,0 42.5,-19.02789 42.5,-42.5 l 0,-475 C 667.5,26.5279 648.4721,7.5 625,7.5 l -575,0 z m 0,10 575,0 c 17.94926,0 32.5,14.55075 32.5,32.5 l 0,475 c 0,17.94925 -14.55074,32.5 -32.5,32.5 l -575,0 C 32.050748,557.5 17.5,542.94925 17.5,525 l 0,-475 C 17.5,32.05075 32.05075,17.5 50,17.5" />

<path id="pijl_wit" fill="#f7fbf5"
     d="M 564.74701,85.594596 534.98142,66.96843 c -1.0401,-0.711639 -2.6318,-1.448537 -3.32934,-2.473889 -0.48635,-0.80217 -0.86745,-1.57908 -0.78954,-2.63285 0.14739,-1.591717 1.30327,-3.185527 2.65791,-3.751474 l 2.77664,-0.606366 88.24413,-17.059721 c 0.8548,-0.06318 1.38116,-0.35582 2.10544,-0.1053 0.80217,0.189486 1.56646,0.473728 2.28966,1.198003 0.46109,0.473715 0.7369,1.223249 0.97272,1.789614 0.26319,0.867444 -0.12636,1.829629 -0.14739,2.882562 l -17.89621,87.918411 c -0.14738,0.82956 -0.51372,2.89603 -0.93482,3.60683 -0.73689,0.8948 -1.77699,1.5917 -2.98698,1.84225 -1.10534,0.12636 -1.9349,-0.30317 -2.88192,-0.80218 -0.8948,-0.56635 -1.86963,-2.35554 -2.5002,-3.39607 L 584.31011,105.39199 520.64695,175.00006 495,149.09435 564.74261,85.594366" />

<path id="parkeren_wit" fill="#f7fbf5"
     d="m 75,209.00006 0,68 0,25 0,57 24.999998,0 0,-57 36.499992,0 c 25.66888,0 46.50001,-20.51746 46.50001,-46.21875 0,-25.70129 -20.83113,-46.78125 -46.50001,-46.78125 l -61.49999,0 z m 24.999998,25 36.499992,0 c 0.0106,-2e-5 0.0206,0 0.0312,0 11.8916,0 21.46876,9.53915 21.46876,21.3125 0,11.77335 -9.51466,21.6875 -21.40626,21.6875 -0.0318,0 -0.062,1.4e-4 -0.0937,0 l -36.499992,0 0,-43" />

<path id="achtergrond_restaurant_wit" fill="#f7fbf5"
     d="m 249.375,209.00006 c -5.17767,0 -9.375,4.19733 -9.375,9.375 l 0,131.25 c 0,5.17766 4.19733,9.375 9.375,9.375 l 131.25,0 c 5.1761,0 9.37246,-4.19402 9.375,-9.38438 l 0,-131.25 c -0.005,-5.17334 -4.20047,-9.36562 -9.375,-9.36562 l -131.25,0" />

<path id="vork_zwart" fill="#2a2d2f"
     d="m 313.39409,285.23834 c 4.22521,-5.5333 6.27339,-8.26496 8.9633,-12.35727 10.27911,-14.02404 11.16485,-24.67364 14.84323,-29.72288 l 18.4323,-23.25167 1.88148,1.45431 -18.64066,23.68447 2.30775,2.09484 18.64104,-23.8981 2.09496,1.47488 -18.85395,23.87767 2.52141,1.88074 18.6563,-23.66431 1.85908,1.46887 -18.63482,23.67374 2.52176,1.88165 18.67637,-23.6856 1.85358,1.46102 -18.24219,23.48206 c -3.31346,4.03487 -13.21806,7.10477 -25.37533,21.16035 -7.60202,8.55499 -11.31638,13.02911 -10.53037,12.76406 -12.11969,14.73628 -17.0197,23.29916 -26.91919,43.36032 -16.06211,24.6996 -35.5471,16.51694 -13.20432,-9.74099 18.72215,-15.37987 24.3784,-21.72706 37.14827,-37.39816" />

<path id="lepel_zwart" fill="#2a2d2f"
     d="m 329.25636,303.09861 c -2.28174,-2.91621 -2.59786,-3.27703 -16.42437,-19.09745 -10.39692,-11.89625 -20.6656,-5.80076 -37.75658,-21.19241 -26.18047,-28.35437 -0.14993,-58.40702 27.96184,-27.65705 10.00308,10.85091 7.39423,34.83625 14.27855,43.96277 13.88618,18.40887 2.22266,3.73364 15.34271,20.47544 17.95231,18.83343 20.99047,17.2153 28.05941,25.82449 15.89742,19.36134 6.5906,30.57264 -9.71783,13.51446 -13.09334,-13.69528 -6.36754,-14.94815 -21.74373,-35.83025" />

<path id="achtergrond_benzinepomp_wit" fill="#f7fbf5"
     d="m 459.375,209.00006 c -5.17767,0 -9.375,4.19733 -9.375,9.375 l 0,131.25 c 0,5.17766 4.19733,9.375 9.375,9.375 l 131.25,0 c 5.1761,0 9.37246,-4.19402 9.375,-9.38438 l 0,-131.25 c -0.005,-5.17334 -4.20047,-9.36562 -9.375,-9.36562 l -131.25,0" />

<path id="benzinepomp_zwart" fill="#2a2d2f"    
     d="m 510.75,223.25006 c -2.48528,0 -4.5,2.01472 -4.5,4.5 l 0,112.2 -1.95,0 0,-107.25 c -2.48528,0 -4.5,2.01472 -4.5,4.5 l 0,8.29219 -13.13438,7.71093 c -0.7911,0.58509 -1.76161,0.86057 -2.09531,2.09532 l -1.87969,6.49687 1.24219,0.21094 3.14063,1.05 1.26094,0.40781 0.83437,-3.14062 c 1.76809,-7.57 5.97574,-4.95747 4.19062,-3.14063 l -1.66875,2.09531 2.92501,2.72813 2.52187,-1.04531 2.2875,0.83437 0.375,1.22344 0,76.93125 -18,0 0,4.8 63.9,0 4.5,0 18,0 0,-4.8 -18,0 0,-102.75 c 0,-2.48528 -2.01472,-4.5 -4.5,-4.5 l 0,107.25 -1.95,0 0,-112.2 c 0,-2.48528 -2.01472,-4.5 -4.5,-4.5 l -28.5,0 z m 3.6,13.8 21.3,0 0,7.5 -21.3,0 0,-7.5 z m 0,11.4 21.3,0 0,15 -21.3,0 0,-15" />

<path id="slang_zwart" fill="none" stroke="#2a2d2f" stroke-width="3.3"
     d="m 486.17719,260.10276 c -3.66162,12.70951 -9.39644,32.99117 -9.9696,46.54688 -0.36286,8.58197 0.32751,26.70546 8.18837,26.76005 8.22477,0.0586 12.01137,-13.73683 11.75562,-27.95161 -0.2957,-16.43546 -1.00165,-23.49887 -2.20862,-31.29314 -1.23374,-7.96714 -2.81722,-11.72268 -0.69389,-13.53174 l 1.89861,-1.67674" />

<path id="achtergrond_Boermark_wit" fill="#f7fbf5"
     d="m 83.75,407 c -4.832492,0 -8.75,3.91751 -8.75,8.75 l 0,82.5 c 0,4.83249 3.917508,8.75 8.75,8.75 l 507.5,0 c 4.83249,0 8.75,-3.91751 8.75,-8.75 l 0,-82.5 c 0,-4.83249 -3.91751,-8.75 -8.75,-8.75 l -507.5,0" />

<path id="tekst_Boermark_zwart" fill="#2a2d2f"
     d="m 538.98656,456.22816 11.88538,29.30428 -12.50888,0 -7.9106,-19.56217 -6.00114,7.2871 0,12.27507 -11.65157,0 0,-55.45212 11.4957,-4.71519 0,29.61604 11.41776,-12.78166 15.54841,0 z m -38.96845,-11.57364 -3.81891,12.39197 c -0.20787,-0.23378 -0.5391,-0.60398 -0.9937,-1.1106 -0.45467,-0.50656 -0.88981,-0.90274 -1.30544,-1.18854 -0.4157,-0.28573 -0.97425,-0.53253 -1.67565,-0.7404 -0.70146,-0.2078 -1.62371,-0.31171 -2.76676,-0.31174 -1.68866,3e-5 -3.2474,0.68847 -4.67621,2.06532 -1.45485,1.45486 -2.18226,3.35132 -2.18224,5.6894 l 0,24.08251 -11.7295,0 0,-43.33293 11.65157,0 0,2.88367 c 1.22098,-1.16902 2.84467,-2.0523 4.87105,-2.64986 1.22099,-0.36366 3.14343,-0.54551 5.76734,-0.54556 2.67579,0.31179 4.96194,1.23405 6.85845,2.76676 z m -61.92089,40.87792 0,-1.75358 c -2.54597,1.35091 -5.76736,2.06533 -9.66418,2.14326 -1.58474,-0.052 -3.02008,-0.22731 -4.30602,-0.52607 -1.28597,-0.29876 -2.50698,-0.75988 -3.66303,-1.38338 -1.15608,-0.62349 -2.27967,-1.38987 -3.37077,-2.29914 -1.55875,-1.40286 -2.68884,-2.98757 -3.39026,-4.75415 -0.70144,-1.76656 -1.05215,-3.72797 -1.05215,-5.88424 0,-2.13026 0.34422,-4.07219 1.03267,-5.82578 0.68843,-1.75356 1.82501,-3.34477 3.40974,-4.77364 1.68862,-1.48078 3.57859,-2.63684 5.66991,-3.46819 2.09129,-0.8313 4.30599,-1.24697 6.64412,-1.247 2.02634,3e-5 3.676,0.11045 4.94899,0.33124 1.27295,0.22085 2.54591,0.61703 3.81891,1.18853 -3e-5,-1.92241 -0.49363,-3.33177 -1.4808,-4.22807 -0.98723,-0.89624 -2.67586,-1.34438 -5.0659,-1.34442 -2.31215,4e-5 -4.30603,0.33776 -5.98166,1.01318 -1.67566,0.67549 -3.33182,1.50682 -4.96848,2.49399 l -4.94899,-8.5341 c 2.3381,-1.35086 4.59826,-2.49394 6.78051,-3.42922 2.85767,-1.09108 6.13102,-1.6756 9.82005,-1.75358 2.442,4e-5 4.69567,0.27282 6.76103,0.81834 2.0653,0.5456 3.86434,1.38991 5.39714,2.53295 3.55907,2.59793 5.33863,5.83231 5.33867,9.70314 l 0,30.97993 z m -0.0779,-11.88538 0,-6.15702 c -1.06517,-0.80533 -2.16278,-1.38985 -3.29283,-1.75358 -1.13012,-0.36368 -2.61741,-0.54554 -4.46189,-0.54556 -1.35093,2e-5 -2.70184,0.4027 -4.05272,1.20803 -1.35093,0.80536 -2.02638,2.13029 -2.02636,3.97478 -2e-5,1.84452 0.65595,3.19542 1.9679,4.05272 1.31192,0.85731 2.63035,1.28597 3.9553,1.28596 3.22137,10e-6 5.85823,-0.68843 7.9106,-2.06533 z m -92.90085,-31.44755 0,2.88367 c 2.41602,-2.33807 5.79328,-3.50712 10.1318,-3.50717 2.31209,5e-5 4.5268,0.4352 6.64412,1.30545 2.11725,0.87034 3.9033,2.2667 5.35817,4.18911 1.53271,-1.94839 3.35124,-3.36424 5.45558,-4.24756 2.10425,-0.88325 4.53328,-1.32489 7.2871,-1.32493 4.31245,4e-5 8.14435,1.61074 11.4957,4.83209 3.19534,3.11751 4.79305,6.89745 4.79312,11.33982 l 0,27.86245 -11.57363,0 0,-24.5891 c -6e-5,-2.28612 -0.71449,-4.22155 -2.14327,-5.8063 -1.32498,-1.40283 -3.00063,-2.10427 -5.02693,-2.1043 -1.9225,3e-5 -3.54618,0.70147 -4.87106,2.1043 -1.37693,1.50681 -2.06537,3.44224 -2.06533,5.8063 l 0,24.5891 -11.57363,0 0,-24.5891 c -4e-5,-2.51993 -0.70147,-4.48134 -2.1043,-5.88424 -1.22104,-1.27294 -2.72782,-1.90942 -4.52034,-1.90945 -2.07834,3e-5 -3.75399,0.63651 -5.02693,1.90945 -1.45485,1.45485 -2.18226,3.41626 -2.18223,5.88424 l 0,24.5891 -11.65157,0 0,-43.33293 z m -24.35528,2.45501 -3.81891,12.39197 c -0.20786,-0.23378 -0.5391,-0.60398 -0.99369,-1.1106 -0.45467,-0.50656 -0.88982,-0.90274 -1.30545,-1.18854 -0.41569,-0.28573 -0.97424,-0.53253 -1.67564,-0.7404 -0.70146,-0.2078 -1.62372,-0.31171 -2.76676,-0.31174 -1.68866,3e-5 -3.2474,0.68847 -4.67622,2.06532 -1.45484,1.45486 -2.18225,3.35132 -2.18223,5.6894 l 0,24.08251 -11.72951,0 0,-43.33293 11.65157,0 0,2.88367 c 1.22099,-1.16902 2.84468,-2.0523 4.87106,-2.64986 1.22098,-0.36366 3.14343,-0.54551 5.76733,-0.54556 2.6758,0.31179 4.96195,1.23405 6.85845,2.76676 z m -57.67333,27.70658 8.06647,6.23495 c -4.67625,4.93601 -9.97595,7.40401 -15.89913,7.40401 -5.63746,0 -10.23573,-2.10429 -13.79483,-6.31289 -3.50717,-4.13065 -5.26075,-9.41736 -5.26075,-15.86016 0,-6.33885 1.77956,-11.61257 5.33868,-15.8212 3.61107,-4.23453 8.23532,-6.35181 13.87278,-6.35186 5.71534,5e-5 10.33959,2.18228 13.87277,6.5467 1.79251,2.10434 3.07846,4.38399 3.85788,6.83897 0.77932,2.45504 1.16901,5.51406 1.16905,9.17707 l 0,2.72779 -26.30371,0 c 0.20781,2.44204 1.05213,4.57232 2.53295,6.39083 0.64945,0.7534 1.4548,1.33793 2.41604,1.75358 0.9612,0.41568 1.80552,0.62351 2.53295,0.6235 3.01354,10e-6 5.54648,-1.11709 7.59885,-3.35129 z m -14.61317,-14.53524 13.63896,0 c -0.51961,-1.94839 -1.3899,-3.40321 -2.61089,-4.36446 -1.22104,-0.96119 -2.61091,-1.4418 -4.16962,-1.44184 -1.53278,4e-5 -2.92915,0.48065 -4.18911,1.44184 -1.26,0.96125 -2.14978,2.41607 -2.66934,4.36446 z m -24.16045,6.00115 c -5e-5,6.41682 -1.76661,11.70353 -5.29971,15.86016 -3.48122,4.2086 -8.10547,6.31289 -13.87278,6.31289 -5.74137,0 -10.3916,-2.10429 -13.9507,-6.31289 -3.45522,-4.07869 -5.18282,-9.3654 -5.18281,-15.86016 -1e-5,-6.36482 1.72759,-11.63855 5.18281,-15.8212 3.61106,-4.23453 8.26129,-6.35181 13.9507,-6.35186 5.71535,5e-5 10.3396,2.11733 13.87278,6.35186 1.74055,2.10433 3.05898,4.46842 3.9553,7.09226 0.89623,2.62391 1.34436,5.53355 1.34441,8.72894 z m -19.09455,-11.4957 c -1.29897,3e-5 -2.3706,0.27931 -3.2149,0.83782 -0.84433,0.55858 -1.65618,1.44836 -2.43553,2.66934 -0.62351,1.01321 -1.08464,2.18876 -1.38338,3.52665 -0.29877,1.33794 -0.44815,2.85121 -0.44813,4.53982 -2e-5,1.66268 0.14286,3.15647 0.42865,4.48138 0.28575,1.32494 0.75337,2.51997 1.40286,3.5851 0.46761,0.77938 0.9677,1.42885 1.50029,1.94842 0.53255,0.51959 1.12357,0.90927 1.77307,1.16905 0.64945,0.2598 1.4418,0.3897 2.37707,0.38969 1.27295,10e-6 2.33808,-0.27927 3.19542,-0.83783 0.85727,-0.55853 1.64963,-1.44831 2.37707,-2.66933 1.29892,-2.2082 1.94839,-4.89702 1.94843,-8.06648 -4e-5,-3.16941 -0.64951,-5.85823 -1.94843,-8.06647 -0.70146,-1.195 -1.49382,-2.07828 -2.37707,-2.64985 -0.88332,-0.57151 -1.94845,-0.85728 -3.19542,-0.85731 z m -53.15298,33.20113 -28.33007,0 0,-58.17991 28.64182,0 c 4.67617,5e-5 8.63796,1.5458 11.88538,4.63724 3.40319,3.32536 5.10481,7.05334 5.10487,11.18395 -6e-5,2.00042 -0.4417,4.01379 -1.32493,6.04011 -0.88334,2.0264 -2.01343,3.80596 -3.39026,5.33868 4.00071,3.68904 6.00109,8.1834 6.00114,13.48309 -5e-5,2.46802 -0.42221,4.67623 -1.26647,6.62464 -0.84437,1.94843 -2.1758,3.81892 -3.99427,5.61146 -3.61113,3.50716 -8.05353,5.26074 -13.32721,5.26074 z m -17.34097,-36.31861 16.75644,0 c 2.07828,4e-5 3.74093,-0.4481 4.98796,-1.34441 1.24695,-0.89623 1.87044,-2.22766 1.87049,-3.99427 -5e-5,-1.76652 -0.61705,-3.09794 -1.851,-3.99426 -1.23405,-0.89623 -2.90319,-1.34437 -5.00745,-1.34442 l -16.75644,0 z m 0.0779,25.44641 17.10715,0 c 2.20817,1e-5 4.09165,-0.74039 5.65043,-2.2212 1.48075,-1.40285 2.22115,-3.0785 2.2212,-5.02693 -5e-5,-2.05232 -0.74045,-3.77992 -2.2212,-5.18281 -1.42889,-1.42882 -3.31236,-2.14324 -5.65043,-2.14327 l -17.10715,0" />

</svg>