<?xml version="1.0" encoding="utf-8"?>
<!-- Generator: Adobe Illustrator 14.0.0, SVG Export Plug-In . SVG Version: 6.00 Build 43363)  -->
<!DOCTYPE svg PUBLIC "-//W3C//DTD SVG 1.1//EN" "http://www.w3.org/Graphics/SVG/1.1/DTD/svg11.dtd">
<svg version="1.1" id="Layer_1" xmlns="http://www.w3.org/2000/svg" xmlns:xlink="http://www.w3.org/1999/xlink" x="0px" y="0px"
	 width="663.18px" height="323.848px" viewBox="0 0 663.18 323.848" enable-background="new 0 0 663.18 323.848"
	 xml:space="preserve">
<polygon fill="#008754" points="659.043,28.422 659.891,28.234 660.643,27.762 661.114,27.01 661.198,26.162 661.198,3.19 
	661.114,2.341 660.643,1.583 659.891,1.118 659.043,0.93 604.809,0.93 604.059,1.118 603.309,1.583 602.835,2.341 602.641,3.19 
	602.641,26.162 602.835,27.01 603.309,27.762 604.059,28.234 604.809,28.422 610.734,28.422 616.866,28.422 623.165,28.422 
	629.854,28.422 636.723,28.422 643.885,28.422 651.325,28.422 "/>
<polygon fill="#008754" points="155.907,190.441 154.968,190.156 154.12,189.689 153.55,188.841 153.366,187.896 153.366,161.634 
	153.55,160.688 154.12,159.848 154.968,159.277 155.907,159.089 208.061,159.089 209.007,159.277 209.855,159.848 210.418,160.688 
	210.603,161.634 210.603,187.896 210.418,188.841 209.855,189.689 209.007,190.156 208.061,190.441 "/>
<polygon fill="#0e518d" points="364.152,216.611 364.152,192.603 340.147,192.603 23.821,192.603 -0.188,192.603 -0.188,216.611 
	-0.188,299.741 -0.188,323.848 23.821,323.848 340.147,323.848 364.152,323.848 364.152,299.741 "/>
<path fill="#f7fbf5" d="M358.318,299.741l-0.278,3.573l-1.036,3.394l-1.697,3.205l-2.259,2.726l-2.831,2.357l-3.101,1.6l-3.01,1.037
	l-2.162,0.374h-0.289h-0.56h-0.849h-1.224h-1.513h-1.787h-2.072h-2.354h-2.729h-3.011h-3.296h-3.674h-3.952h-4.144h-4.614h-4.797
	h-5.177h-5.461h-5.748h-6.021h-6.501h-6.585h-6.97h-7.343h-7.533h-7.909h-8.281h-8.473h-8.851h-9.133h-9.415h-9.696h-9.695h-9.415
	h-9.133h-8.852h-8.472h-8.288h-7.902h-7.534h-7.35h-6.963h-6.592h-6.494h-6.021h-5.748H68.07h-5.177h-4.797h-4.614h-4.144h-3.959
	h-3.667h-3.295h-3.011h-2.736h-2.346H28.25h-1.791h-1.509h-1.224h-0.849h-0.56h-0.285l-2.166-0.374l-3.01-1.037l-3.105-1.6
	l-2.827-2.357l-2.256-2.726l-1.697-3.205l-1.039-3.394l-0.285-3.573v-83.13l0.285-3.483l1.039-3.386l1.697-3.206l2.256-2.725
	l2.827-2.357l3.105-1.592l3.01-1.043l2.166-0.375h0.285h0.56h0.849h1.224h1.509h1.791h2.072h2.346h2.736h3.011h3.295h3.667h3.959
	h4.144h4.614h4.797h5.177h5.461h5.748h6.021h6.494h6.592h6.963h7.35h7.534h7.902h8.288h8.472h8.852h9.133h9.415h9.695h9.696h9.415
	h9.133h8.851h8.473h8.281h7.909h7.533h7.343h6.97h6.585h6.501h6.021h5.748h5.461h5.177h4.797h4.614h4.144h3.952h3.674h3.296h3.011
	h2.729h2.354h2.072h1.787h1.513h1.224h0.849h0.56h0.289l2.162,0.375l3.01,1.043l3.101,1.592l2.831,2.357l2.259,2.725l1.697,3.206
	l1.036,3.386l0.278,3.483V299.741z M361.998,216.611l-0.473-4.234l-1.134-4.144l-2.072-3.665l-2.732-3.303l-3.295-2.822
	l-3.762-1.982l-1.981-0.744l-1.592-0.473l-1.418-0.376h-1.224h-0.278h-0.569h-0.939h-1.224h-1.412h-1.888h-2.162h-2.351h-2.735
	h-3.011h-3.39h-3.671h-3.859h-4.238h-4.613h-4.797h-5.177h-5.461h-5.747h-6.115h-6.401h-6.686h-6.97h-7.249h-7.627h-7.909h-8.281
	h-8.473h-8.851h-9.133h-9.415h-9.696h-9.695h-9.415h-9.133h-8.852h-8.472h-8.288h-7.902h-7.627h-7.256h-6.963h-6.686h-6.4h-6.122
	h-5.74h-5.461h-5.177h-4.805h-4.613h-4.238h-3.859H41.62h-3.389H35.21h-2.726h-2.357h-2.163h-1.881h-1.418h-1.216h-0.946H21.94
	h-0.285h-1.224l-1.412,0.376l-1.599,0.473l-1.975,0.744l-3.765,1.982l-3.296,2.822l-2.736,3.303l-2.065,3.665l-1.13,4.144
	l-0.473,4.234v83.13l0.473,4.333l1.13,4.052l2.065,3.763l2.736,3.393l3.296,2.636l3.765,2.071l1.975,0.752l1.599,0.472l1.412,0.278
	l1.224,0.09h0.285h0.563h0.946h1.216h1.418h1.881h2.163h2.357h2.726h3.021h3.389h3.665h3.859h4.238h4.613h4.805h5.177h5.461h5.74
	h6.122h6.4h6.686h6.963h7.256h7.627h7.902h8.288h8.472h8.852h9.133h9.415h9.695h9.696h9.415h9.133h8.851h8.473h8.281h7.909h7.627
	h7.249h6.97h6.686h6.401h6.115h5.747h5.461h5.177h4.797h4.613h4.238h3.859h3.671h3.39h3.011h2.735h2.351h2.162h1.888h1.412h1.224
	h0.939h0.569h0.278l1.224-0.09l1.418-0.278l1.592-0.472l1.981-0.752l3.762-2.071l3.295-2.636l2.732-3.393l2.072-3.763l1.134-4.052
	l0.473-4.333V216.611z"/>
<polygon fill="#f7fbf5" points="309.554,303.322 279.145,276.115 279.051,276.115 278.582,275.365 278.391,274.516 278.582,273.668 
	279.051,272.91 279.805,272.444 280.654,272.25 281.123,272.347 303.998,277.812 303.998,274.892 303.998,271.401 303.998,267.64 
	303.998,263.405 315.106,263.405 315.106,267.64 315.106,271.401 315.106,274.892 315.106,277.812 337.891,272.347 338.454,272.25 
	339.299,272.444 340.054,272.91 340.433,273.668 340.623,274.516 340.433,275.365 340.054,276.115 339.869,276.115 "/>
<polygon fill="#f7fbf5" points="218.421,303.322 220.399,302.947 222.096,301.904 223.128,300.312 223.504,298.24 223.504,264.441 
	223.128,262.459 222.096,260.86 220.399,259.825 218.421,259.359 145.557,259.359 143.575,259.825 141.883,260.86 140.749,262.459 
	140.464,264.441 140.464,298.24 140.749,300.312 141.883,301.904 143.575,302.947 145.557,303.322 "/>
<polygon fill="#f7fbf5" points="54.421,303.322 84.83,276.115 84.92,276.115 85.393,275.365 85.584,274.516 85.393,273.668 
	84.92,272.91 84.166,272.444 83.321,272.25 82.848,272.347 59.973,277.812 59.973,274.892 59.973,271.401 59.973,267.64 
	59.973,263.405 48.866,263.405 48.866,267.64 48.866,271.401 48.866,274.892 48.866,277.812 26.084,272.347 25.521,272.25 
	24.673,272.444 23.918,272.91 23.542,273.668 23.348,274.516 23.542,275.365 23.918,276.115 24.102,276.115 "/>
<polygon fill="#c1121c" points="145.554,301.251 144.421,301.057 143.481,300.401 142.825,299.373 142.633,298.24 142.633,264.441 
	142.825,263.405 143.481,262.369 144.421,261.709 145.554,261.521 218.417,261.521 219.548,261.709 220.49,262.369 221.15,263.405 
	221.334,264.441 221.334,298.24 221.15,299.373 220.49,300.401 219.548,301.057 218.417,301.251 "/>
<polygon fill="#f7fbf5" points="210.512,270.087 210.512,274.322 199.968,274.322 199.874,277.526 200.347,277.339 200.816,277.241 
	201.571,277.054 202.509,276.866 203.548,276.678 204.675,276.588 205.898,276.776 207.216,277.151 208.632,277.714 
	209.949,278.563 210.981,279.787 211.924,281.198 212.393,282.888 212.678,284.584 212.393,286.378 211.83,288.075 210.981,289.486 
	209.852,290.613 208.534,291.55 207.123,292.113 205.715,292.497 204.112,292.497 202.509,292.497 200.722,292.212 199.029,291.739 
	197.611,291.363 196.488,290.987 195.64,290.613 195.17,290.424 194.701,290.237 196.578,286.378 197.142,286.656 197.896,287.032 
	199.213,287.504 200.816,287.97 202.509,288.255 204.018,288.353 205.335,288.255 206.368,287.97 207.216,287.414 207.877,286.656 
	208.256,285.62 208.44,284.681 208.256,283.555 207.971,282.512 207.216,281.664 206.278,281.198 205.43,280.919 204.675,280.815 
	203.921,280.815 203.173,280.919 202.325,281.101 201.379,281.385 200.629,281.573 200.062,281.761 199.683,281.949 
	199.213,282.144 195.545,281.01 195.918,270.087 "/>
<polygon fill="none" stroke="#c1121c" stroke-width="0.055" points="210.512,270.087 210.512,274.322 199.968,274.322 
	199.874,277.526 200.347,277.339 200.816,277.241 201.571,277.054 202.509,276.866 203.548,276.678 204.675,276.588 
	205.898,276.776 207.216,277.151 208.632,277.714 209.949,278.563 210.981,279.787 211.924,281.198 212.393,282.888 
	212.678,284.584 212.393,286.378 211.83,288.075 210.981,289.486 209.852,290.613 208.534,291.55 207.123,292.113 205.715,292.497 
	204.112,292.497 202.509,292.497 200.722,292.212 199.029,291.739 197.611,291.363 196.488,290.987 195.64,290.613 195.17,290.424 
	194.701,290.237 196.578,286.378 197.142,286.656 197.896,287.032 199.213,287.504 200.816,287.97 202.509,288.255 204.018,288.353 
	205.335,288.255 206.368,287.97 207.216,287.414 207.877,286.656 208.256,285.62 208.44,284.681 208.256,283.555 207.971,282.512 
	207.216,281.664 206.278,281.198 205.43,280.919 204.675,280.815 203.921,280.815 203.173,280.919 202.325,281.101 201.379,281.385 
	200.629,281.573 200.062,281.761 199.683,281.949 199.213,282.144 195.545,281.01 195.918,270.087 "/>
<polygon fill="#f7fbf5" points="188.954,270.184 188.954,292.497 185.28,292.497 185.28,275.357 182.266,275.357 182.266,272.534 
	182.738,272.347 183.208,272.159 183.777,271.971 184.432,271.596 185.002,271.123 185.377,270.748 185.565,270.469 
	185.749,270.184 "/>
<polygon fill="none" stroke="#c1121c" stroke-width="0.055" points="188.954,270.184 188.954,292.497 185.28,292.497 
	185.28,275.357 182.266,275.357 182.266,272.534 182.738,272.347 183.208,272.159 183.777,271.971 184.432,271.596 185.002,271.123 
	185.377,270.748 185.565,270.469 185.749,270.184 "/>
<path fill="#f7fbf5" d="M164.285,270.275l9.227,22.222h-3.859l-2.357-5.458h-9.79l-2.256,5.458h-3.959l9.421-22.222H164.285z
	 M159.108,283.36h6.686l-3.202-8.003L159.108,283.36z"/>
<path fill="none" stroke="#c1121c" stroke-width="0.055" d="M164.285,270.275l9.227,22.222h-3.859l-2.357-5.458h-9.79l-2.256,5.458
	h-3.959l9.421-22.222H164.285z M159.108,283.36h6.686l-3.202-8.003L159.108,283.36z"/>
<polygon fill="#f7fbf5" points="655.178,7.049 655.178,22.394 652.729,22.394 652.729,10.622 650.657,10.622 650.657,8.558 
	650.942,8.459 651.229,8.459 651.7,8.272 652.068,7.987 652.451,7.709 652.729,7.424 652.91,7.236 653.015,7.049 "/>
<polygon fill="none" stroke="#008754" stroke-width="0.055" points="655.178,7.049 655.178,22.394 652.729,22.394 652.729,10.622 
	650.657,10.622 650.657,8.558 650.942,8.459 651.229,8.459 651.7,8.272 652.068,7.987 652.451,7.709 652.729,7.424 652.91,7.236 
	653.015,7.049 "/>
<polygon fill="#f7fbf5" points="646.798,7.049 646.798,22.394 644.164,22.394 644.164,10.622 642.188,10.622 642.188,8.558 
	642.467,8.459 642.745,8.459 643.225,8.272 643.593,7.987 643.969,7.709 644.261,7.424 644.44,7.236 644.539,7.049 "/>
<polygon fill="none" stroke="#008754" stroke-width="0.055" points="646.798,7.049 646.798,22.394 644.164,22.394 644.164,10.622 
	642.188,10.622 642.188,8.558 642.467,8.459 642.745,8.459 643.225,8.272 643.593,7.987 643.969,7.709 644.261,7.424 644.44,7.236 
	644.539,7.049 "/>
<polygon fill="#f7fbf5" points="636.543,13.828 636.82,14.112 637.099,14.391 637.475,14.856 637.856,15.615 638.143,16.463 
	638.232,17.401 638.143,18.347 637.856,19.286 637.099,20.322 636.07,21.17 635.125,21.831 634.089,22.206 632.97,22.394 
	631.829,22.484 630.41,22.303 628.908,21.74 627.497,20.892 626.837,20.419 626.559,19.946 626.183,19.474 625.995,19.195 
	628.067,17.881 628.255,18.159 628.532,18.534 629.096,19 629.944,19.563 630.896,19.849 631.926,20.044 632.97,19.946 
	633.999,19.563 634.847,19.098 635.402,18.534 635.694,17.971 635.785,17.401 635.694,16.838 635.402,16.372 635.027,15.9 
	634.471,15.524 633.901,15.337 633.239,15.239 632.016,15.239 632.016,12.799 633.239,12.799 633.623,12.799 634.089,12.694 
	634.373,12.416 634.749,12.131 634.847,11.665 634.937,11.192 634.847,10.72 634.555,10.253 634.179,9.878 633.623,9.496 
	632.865,9.308 632.016,9.21 631.258,9.308 630.515,9.496 629.758,9.878 629.187,10.156 628.908,10.441 628.631,10.72 626.837,9.03 
	627.129,8.745 627.497,8.37 628.255,7.896 629.382,7.333 630.605,6.958 632.016,6.763 633.623,6.958 635.027,7.424 636.07,8.182 
	636.82,9.21 637.294,10.253 637.384,11.283 637.294,12.319 637.009,13.167 636.723,13.542 "/>
<polygon fill="none" stroke="#008754" stroke-width="0.055" points="636.543,13.828 636.82,14.112 637.099,14.391 637.475,14.856 
	637.856,15.615 638.143,16.463 638.232,17.401 638.143,18.347 637.856,19.286 637.099,20.322 636.07,21.17 635.125,21.831 
	634.089,22.206 632.97,22.394 631.829,22.484 630.41,22.303 628.908,21.74 627.497,20.892 626.837,20.419 626.559,19.946 
	626.183,19.474 625.995,19.195 628.067,17.881 628.255,18.159 628.532,18.534 629.096,19 629.944,19.563 630.896,19.849 
	631.926,20.044 632.97,19.946 633.999,19.563 634.847,19.098 635.402,18.534 635.694,17.971 635.785,17.401 635.694,16.838 
	635.402,16.372 635.027,15.9 634.471,15.524 633.901,15.337 633.239,15.239 632.016,15.239 632.016,12.799 633.239,12.799 
	633.623,12.799 634.089,12.694 634.373,12.416 634.749,12.131 634.847,11.665 634.937,11.192 634.847,10.72 634.555,10.253 
	634.179,9.878 633.623,9.496 632.865,9.308 632.016,9.21 631.258,9.308 630.515,9.496 629.758,9.878 629.187,10.156 628.908,10.441 
	628.631,10.72 626.837,9.03 627.129,8.745 627.497,8.37 628.255,7.896 629.382,7.333 630.605,6.958 632.016,6.763 633.623,6.958 
	635.027,7.424 636.07,8.182 636.82,9.21 637.294,10.253 637.384,11.283 637.294,12.319 637.009,13.167 636.723,13.542 "/>
<polygon fill="#f7fbf5" points="619.779,7.049 619.779,9.496 611.213,9.496 611.213,12.979 616.102,12.979 616.102,15.427 
	611.213,15.427 611.213,19.849 620.064,19.849 620.064,22.394 608.676,22.394 608.676,7.049 "/>
<polygon fill="none" stroke="#008754" stroke-width="0.055" points="619.779,7.049 619.779,9.496 611.213,9.496 611.213,12.979 
	616.102,12.979 616.102,15.427 611.213,15.427 611.213,19.849 620.064,19.849 620.064,22.394 608.676,22.394 608.676,7.049 "/>
<polygon fill="#0e518d" points="663.18,302.759 663.18,323.848 642.091,323.848 406.162,323.848 385.081,323.848 385.081,302.759 
	385.081,51.388 385.081,30.299 406.162,30.299 642.091,30.299 663.18,30.299 663.18,51.388 "/>
<path fill="#f7fbf5" d="M658.097,302.759l-0.375,3.102l-0.849,3.018l-1.508,2.732l-1.981,2.441l-2.441,1.981l-2.732,1.508
	l-3.01,0.849l-3.109,0.375H406.162l-3.101-0.375l-3.018-0.849l-2.733-1.508l-2.447-1.981l-1.968-2.441l-1.516-2.732l-0.848-3.018
	l-0.376-3.102V51.395l0.376-3.108l0.848-3.011l1.516-2.732l1.968-2.448l2.447-1.981l2.733-1.412l3.018-0.938l3.101-0.286h235.929
	l3.109,0.286l3.01,0.938l2.732,1.412l2.441,1.981l1.981,2.448l1.508,2.732l0.849,3.011l0.375,3.108V302.759z M661.206,51.395
	l-0.286-3.678l-1.127-3.671l-1.786-3.289l-2.357-2.92l-2.921-2.357l-3.295-1.787l-3.573-1.036l-3.77-0.375H406.162l-3.768,0.375
	l-3.575,1.036l-3.296,1.787l-2.92,2.357l-2.35,2.92l-1.793,3.289l-1.127,3.671l-0.278,3.678v251.364l0.278,3.77l1.127,3.573
	l1.793,3.295l2.35,2.921l2.92,2.35l3.296,1.787l3.575,1.126l3.768,0.384h235.929l3.77-0.384l3.573-1.126l3.295-1.787l2.921-2.35
	l2.357-2.921l1.786-3.295l1.127-3.573l0.286-3.77V51.395z"/>
<polygon fill="#f7fbf5" points="192.059,173.781 192.344,174.066 192.723,174.441 193.091,175.005 193.568,175.853 193.846,176.792 
	193.939,177.828 193.846,178.954 193.471,179.997 192.723,181.221 191.589,182.159 190.366,182.82 189.232,183.293 188.009,183.571 
	186.691,183.662 185.096,183.474 183.301,182.82 181.699,181.784 181.045,181.312 180.576,180.749 180.197,180.268 180.006,179.893 
	182.363,178.391 182.547,178.767 182.926,179.149 183.587,179.712 184.529,180.268 185.568,180.65 186.792,180.838 188.009,180.65 
	189.142,180.268 190.081,179.803 190.741,179.24 191.026,178.481 191.214,177.828 191.026,177.257 190.835,176.694 190.272,176.139 
	189.702,175.756 189.048,175.568 188.294,175.471 186.882,175.471 186.882,172.647 188.294,172.647 188.764,172.647 189.142,172.46 
	189.611,172.175 189.987,171.8 190.182,171.327 190.182,170.861 190.081,170.208 189.803,169.728 189.333,169.255 188.669,168.879 
	187.915,168.601 186.882,168.601 186.038,168.691 185.096,168.879 184.251,169.255 183.587,169.637 183.301,169.922 
	183.023,170.208 181.045,168.316 181.229,167.94 181.699,167.663 182.547,166.905 183.872,166.334 185.189,165.868 186.882,165.778 
	188.669,165.959 190.272,166.529 191.589,167.377 192.438,168.601 192.908,169.728 193.091,170.861 192.813,172.084 
	192.528,173.023 192.344,173.496 "/>
<polygon fill="none" stroke="#008754" stroke-width="0.055" points="192.059,173.781 192.344,174.066 192.723,174.441 
	193.091,175.005 193.568,175.853 193.846,176.792 193.939,177.828 193.846,178.954 193.471,179.997 192.723,181.221 
	191.589,182.159 190.366,182.82 189.232,183.293 188.009,183.571 186.691,183.662 185.096,183.474 183.301,182.82 181.699,181.784 
	181.045,181.312 180.576,180.749 180.197,180.268 180.006,179.893 182.363,178.391 182.547,178.767 182.926,179.149 
	183.587,179.712 184.529,180.268 185.568,180.65 186.792,180.838 188.009,180.65 189.142,180.268 190.081,179.803 190.741,179.24 
	191.026,178.481 191.214,177.828 191.026,177.257 190.835,176.694 190.272,176.139 189.702,175.756 189.048,175.568 
	188.294,175.471 186.882,175.471 186.882,172.647 188.294,172.647 188.764,172.647 189.142,172.46 189.611,172.175 189.987,171.8 
	190.182,171.327 190.182,170.861 190.081,170.208 189.803,169.728 189.333,169.255 188.669,168.879 187.915,168.601 
	186.882,168.601 186.038,168.691 185.096,168.879 184.251,169.255 183.587,169.637 183.301,169.922 183.023,170.208 
	181.045,168.316 181.229,167.94 181.699,167.663 182.547,166.905 183.872,166.334 185.189,165.868 186.882,165.778 188.669,165.966 
	190.272,166.529 191.589,167.377 192.438,168.601 192.908,169.728 193.091,170.861 192.813,172.084 192.528,173.023 
	192.344,173.496 "/>
<polygon fill="#f7fbf5" points="203.639,165.966 203.639,183.571 200.722,183.571 200.722,170.109 198.462,170.109 198.462,167.753 
	198.74,167.656 199.12,167.656 199.589,167.371 200.159,167.093 200.534,166.808 200.813,166.529 201.008,166.147 201.098,165.966 
	"/>
<polygon fill="none" stroke="#008754" stroke-width="0.055" points="203.639,165.966 203.639,183.571 200.722,183.571 
	200.722,170.109 198.462,170.109 198.462,167.753 198.74,167.656 199.12,167.656 199.589,167.371 200.159,167.093 200.534,166.808 
	200.813,166.529 201.008,166.147 201.098,165.966 "/>
<polygon fill="#f7fbf5" points="172.949,165.966 172.949,168.879 163.159,168.879 163.159,172.835 168.714,172.835 168.714,175.659 
	163.159,175.659 163.159,180.65 173.133,180.65 173.133,183.571 160.332,183.571 160.332,174.72 160.332,165.966 "/>
<polygon fill="none" stroke="#008754" stroke-width="0.055" points="172.949,165.966 172.949,168.879 163.159,168.879 
	163.159,172.835 168.714,172.835 168.714,175.659 163.159,175.659 163.159,180.65 173.133,180.65 173.133,183.571 160.332,183.571 
	160.332,174.72 160.332,165.966 "/>
<path fill="#f7fbf5" d="M81.155,217.738h8.101l1.501,0.285l1.227,0.758l0.845,1.224l0.286,1.321l-0.286,1.404l-0.845,1.134
	l-1.227,0.758l-1.501,0.369h-8.101V217.738z M76.733,239.584h4.422v-10.36h7.155l4.898,10.36h4.614l-5.083-11.013l0.563-0.286
	l0.661-0.473l1.033-0.841l1.133-1.412l0.938-1.892l0.375-2.162l-0.184-1.968l-0.755-1.891l-1.317-1.787l-1.693-1.418l-2.072-0.744
	l-2.264-0.375H76.733V239.584z"/>
<path fill="none" stroke="#0e518d" stroke-width="0.055" d="M81.155,217.738h8.101l1.501,0.285l1.227,0.758l0.845,1.224l0.286,1.321
	l-0.286,1.404l-0.845,1.134l-1.227,0.758l-1.501,0.369h-8.101V217.738z M76.733,239.584h4.422v-10.36h7.155l4.898,10.36h4.614
	l-5.083-11.013l0.563-0.286l0.661-0.473l1.033-0.841l1.133-1.412l0.938-1.892l0.375-2.162l-0.184-1.968l-0.755-1.891l-1.317-1.787
	l-1.693-1.418l-2.072-0.744l-2.264-0.375H76.733V239.584z"/>
<path fill="#f7fbf5" d="M112.882,239.87l-1.971-0.285l-2.072-0.849l-1.982-1.689l-1.408-2.267l-0.848-2.531l-0.101-2.643
	l0.285-2.732l0.848-2.35l1.318-2.072l1.888-1.509l2.072-0.946l2.072-0.278l2.162,0.278l2.166,0.946l1.788,1.412l1.408,1.891
	l0.849,2.538l0.284,2.823l-0.284,2.733l-0.849,2.538l-1.408,2.169l-1.881,1.689l-2.173,0.849L112.882,239.87z M114.015,235.44
	l1.029-0.466l0.949-0.938l0.47-1.321l0.378-1.509v-1.696l-0.101-1.689l-0.278-1.412l-0.571-1.133l-0.848-0.75l-0.938-0.563
	l-1.033-0.097l-1.04,0.188L111,224.614l-0.754,0.661l-0.563,1.133l-0.376,1.412l-0.094,1.689v1.606l0.379,1.509l0.47,1.314
	l0.848,0.938l0.938,0.563l1.033,0.194L114.015,235.44z"/>
<path fill="none" stroke="#0e518d" stroke-width="0.055" d="M112.882,239.87l-1.971-0.285l-2.072-0.849l-1.982-1.689l-1.408-2.267
	l-0.848-2.531l-0.101-2.643l0.285-2.732l0.848-2.35l1.318-2.072l1.888-1.509l2.072-0.946l2.072-0.278l2.162,0.278l2.166,0.946
	l1.788,1.412l1.408,1.891l0.849,2.538l0.284,2.823l-0.284,2.733l-0.849,2.538l-1.408,2.169l-1.881,1.689l-2.173,0.849
	L112.882,239.87z M114.015,235.44l1.029-0.466l0.949-0.938l0.47-1.321l0.378-1.509v-1.696l-0.101-1.689l-0.278-1.412l-0.571-1.133
	l-0.848-0.75l-0.938-0.563l-1.033-0.097l-1.04,0.188L111,224.614l-0.754,0.661l-0.563,1.133l-0.376,1.412l-0.094,1.689v1.606
	l0.379,1.509l0.47,1.314l0.848,0.938l0.938,0.563l1.033,0.194L114.015,235.44z"/>
<polygon fill="#f7fbf5" points="135.479,213.413 135.479,219.907 140.186,219.907 140.186,224.336 135.479,224.336 135.479,233.465 
	135.479,234.029 135.569,234.411 135.764,234.786 136.139,235.155 136.609,235.35 137.172,235.44 137.836,235.44 138.306,235.35 
	138.959,235.065 139.623,234.786 139.998,234.411 140.468,234.126 139.529,238.924 139.052,239.118 138.583,239.404 
	138.021,239.584 137.172,239.87 136.417,239.87 135.764,239.87 134.815,239.87 133.876,239.584 133.122,239.118 132.274,238.555 
	131.62,237.707 131.057,236.664 130.866,235.726 130.771,234.592 130.771,224.336 127.292,224.336 127.292,219.907 130.771,219.907 
	130.771,215.2 "/>
<polygon fill="none" stroke="#0e518d" stroke-width="0.055" points="135.479,213.413 135.479,219.907 140.186,219.907 
	140.186,224.336 135.479,224.336 135.479,233.465 135.479,234.029 135.569,234.411 135.764,234.786 136.139,235.155 136.609,235.35 
	137.172,235.44 137.836,235.44 138.306,235.35 138.959,235.065 139.623,234.786 139.998,234.411 140.468,234.126 139.529,238.924 
	139.052,239.118 138.583,239.404 138.021,239.584 137.172,239.87 136.417,239.87 135.764,239.87 134.815,239.87 133.876,239.584 
	133.122,239.118 132.274,238.555 131.62,237.7 131.057,236.664 130.866,235.726 130.771,234.592 130.771,224.336 127.292,224.336 
	127.292,219.907 130.771,219.907 130.771,215.2 "/>
<polygon fill="#f7fbf5" points="154.496,213.413 154.496,219.907 159.296,219.907 159.296,224.336 154.496,224.336 154.496,233.465 
	154.589,234.029 154.589,234.411 154.875,234.786 155.25,235.155 155.722,235.35 156.283,235.44 156.852,235.44 157.416,235.35 
	157.979,235.065 158.549,234.786 159.108,234.411 159.487,234.126 158.549,238.924 158.069,239.118 157.701,239.404 
	157.131,239.584 156.283,239.87 155.528,239.87 154.683,239.87 153.834,239.87 152.987,239.584 152.139,239.118 151.293,238.555 
	150.636,237.707 150.167,236.664 149.882,235.726 149.882,234.592 149.882,224.336 146.309,224.336 146.309,219.907 
	149.882,219.907 149.882,215.2 "/>
<polygon fill="none" stroke="#0e518d" stroke-width="0.055" points="154.496,213.413 154.496,219.907 159.296,219.907 
	159.296,224.336 154.496,224.336 154.496,233.465 154.589,234.029 154.589,234.411 154.875,234.786 155.25,235.155 155.722,235.35 
	156.283,235.44 156.852,235.44 157.416,235.35 157.979,235.065 158.549,234.786 159.108,234.411 159.487,234.126 158.549,238.924 
	158.069,239.118 157.701,239.404 157.131,239.584 156.283,239.87 155.528,239.87 154.683,239.87 153.834,239.87 152.987,239.584 
	152.139,239.118 151.293,238.555 150.636,237.7 150.167,236.664 149.882,235.726 149.882,234.592 149.882,224.336 146.309,224.336 
	146.309,219.907 149.882,219.907 149.882,215.2 "/>
<path fill="#f7fbf5" d="M182.269,230.837h-11.955l0.094,0.556v0.563l0.184,0.849l0.379,0.848l0.567,0.849l0.755,0.66l0.848,0.375
	l0.748,0.188l0.949-0.091l0.845-0.194l0.657-0.278l0.56-0.376l0.379-0.284l0.469-0.188l3.112,2.35l-0.47,0.57l-0.57,0.473
	l-1.123,0.848l-1.603,0.654l-1.697,0.465l-1.693,0.104l-1.978-0.285l-1.881-0.938l-1.693-1.231l-1.317-1.884l-0.949-2.544
	l-0.375-3.101l0.285-3.011l0.938-2.635l1.318-1.884l1.602-1.321l1.978-0.939l2.256-0.375l2.166,0.285l2.169,0.849l1.975,1.592
	l0.754,1.036l0.563,1.126l0.661,2.267l0.184,2.163l-0.091,0.758v0.466V230.837z M177.562,226.784l-0.094-0.375l-0.191-0.472
	l-0.379-0.661l-0.56-0.563l-0.657-0.472l-0.754-0.375l-0.939-0.091l-0.848,0.091l-0.848,0.375l-0.661,0.472l-0.379,0.563
	l-0.375,0.661l-0.184,0.472l-0.101,0.375l-0.094,0.466h7.158L177.562,226.784z"/>
<path fill="none" stroke="#0e518d" stroke-width="0.055" d="M182.269,230.837h-11.955l0.094,0.556v0.563l0.191,0.849l0.372,0.848
	l0.567,0.849l0.755,0.66l0.848,0.375l0.748,0.188l0.949-0.091l0.845-0.194l0.657-0.278l0.56-0.376l0.379-0.284l0.469-0.188
	l3.112,2.35l-0.47,0.57l-0.57,0.473l-1.123,0.848l-1.603,0.654l-1.697,0.465l-1.693,0.104l-1.978-0.285l-1.881-0.938l-1.693-1.231
	l-1.317-1.884l-0.949-2.544l-0.375-3.101l0.285-3.011l0.938-2.635l1.318-1.884l1.602-1.321l1.978-0.939l2.256-0.375l2.166,0.285
	l2.169,0.849l1.975,1.592l0.754,1.036l0.563,1.126l0.661,2.267l0.184,2.163l-0.091,0.758v0.466V230.837z M177.562,226.784
	l-0.094-0.375l-0.191-0.472l-0.379-0.661l-0.56-0.563l-0.657-0.472l-0.754-0.375l-0.939-0.091l-0.848,0.091l-0.848,0.375
	l-0.661,0.472l-0.379,0.563l-0.375,0.661l-0.184,0.472l-0.094,0.375l-0.101,0.466h7.158L177.562,226.784z"/>
<polygon fill="#f7fbf5" points="195.26,219.907 195.26,221.513 195.64,221.229 195.924,220.943 196.672,220.478 197.517,220.004 
	198.65,219.727 199.683,219.623 200.629,219.727 201.477,219.907 202.231,220.192 202.701,220.38 202.979,220.575 203.357,220.846 
	201.946,225.748 201.755,225.463 201.477,225.275 201.008,224.899 200.437,224.614 199.683,224.434 198.936,224.434 
	198.181,224.524 197.427,224.81 196.485,225.463 195.824,226.311 195.445,227.347 195.26,228.564 195.26,239.591 190.647,239.591 
	190.647,219.907 "/>
<polygon fill="none" stroke="#0e518d" stroke-width="0.055" points="195.26,219.907 195.26,221.513 195.64,221.229 195.924,220.943 
	196.672,220.478 197.517,220.004 198.65,219.727 199.683,219.623 200.629,219.727 201.477,219.907 202.231,220.192 202.701,220.38 
	202.979,220.575 203.357,220.846 201.946,225.748 201.755,225.463 201.477,225.275 201.008,224.899 200.437,224.614 
	199.683,224.434 198.936,224.434 198.181,224.524 197.427,224.81 196.485,225.463 195.824,226.311 195.445,227.347 195.26,228.571 
	195.26,239.591 190.647,239.591 190.647,219.907 "/>
<path fill="#f7fbf5" d="M219.645,233.744l-0.47,0.479l-0.563,0.466l-0.849,0.473l-1.324,0.188l-1.123-0.188l-0.942-0.376
	l-0.946-0.757L212.675,233l-0.372-1.321l-0.191-1.6l0.093-1.606l0.375-1.404l0.664-1.043l0.845-0.938l1.133-0.563l1.317-0.188
	l1.318,0.278l0.938,0.382l0.563,0.466l0.285,0.382V233.744z M219.645,221.318l-0.47-0.375l-0.754-0.376l-0.473-0.278l-0.845-0.194
	l-1.881-0.278l-1.887,0.278l-1.787,0.757l-1.509,1.412l-1.408,2.072l-0.943,2.732l-0.285,3.01l0.379,2.817l0.849,2.544l1.408,1.884
	l1.509,1.412l1.787,0.758l1.887,0.376l1.881-0.285l1.408-0.473l0.664-0.465l0.47-0.285v1.224h4.707v-26.832l-4.707,1.697V221.318z"
	/>
<path fill="none" stroke="#0e518d" stroke-width="0.055" d="M219.645,233.744l-0.47,0.479l-0.563,0.466l-0.849,0.473l-1.324,0.188
	l-1.123-0.188l-0.942-0.376l-0.946-0.757L212.681,233l-0.378-1.321l-0.191-1.6l0.093-1.606l0.375-1.404l0.664-1.043l0.845-0.938
	l1.133-0.563l1.317-0.188l1.318,0.278l0.938,0.382l0.563,0.466l0.285,0.382V233.744z M219.645,221.318l-0.47-0.375l-0.754-0.376
	l-0.473-0.278l-0.845-0.194l-1.881-0.278l-1.887,0.278l-1.787,0.757l-1.509,1.412l-1.408,2.072l-0.943,2.732l-0.285,3.01
	l0.379,2.817l0.849,2.544l1.408,1.884l1.509,1.412l1.787,0.758l1.887,0.376l1.881-0.285l1.408-0.473l0.664-0.465l0.47-0.285v1.224
	h4.707v-26.832l-4.707,1.697V221.318z"/>
<path fill="#f7fbf5" d="M244.126,231.206v3.394l-0.285,0.181l-0.379,0.194l-0.66,0.278l-0.849,0.376l-1.033,0.194h-1.033
	l-0.855-0.194l-0.845-0.376l-0.657-0.473l-0.47-0.654l-0.285-0.57v-0.654l0.094-0.661l0.191-0.654l0.47-0.57l0.657-0.563
	l0.845-0.376l0.949-0.097l1.032,0.097l0.939,0.182l0.849,0.284l0.57,0.195l0.375,0.278L244.126,231.206z M248.549,224.614
	l-0.473-1.501l-0.469-0.751l-0.661-0.667l-1.787-1.133l-1.981-0.654l-1.877-0.09l-1.787,0.09l-1.603,0.382l-1.697,0.466
	l-1.224,0.563l-0.661,0.375l-0.473,0.285l1.697,3.108l0.47-0.188l0.57-0.285l0.939-0.375l1.032-0.286l1.133-0.187l1.13-0.091
	l0.942,0.091l0.848,0.187l0.661,0.48l0.469,0.557l0.279,0.66l0.101,0.75l0.09,0.939l-0.661-0.181l-0.754-0.278l-1.318-0.285
	l-1.787-0.195l-2.072,0.286l-2.072,0.848l-1.501,1.029l-1.04,1.515l-0.657,1.6l-0.191,1.697l0.285,1.787l0.848,1.599l1.224,1.412
	l1.502,0.938l1.317,0.57l1.224,0.188h1.324l1.126-0.285l1.224-0.278l0.848-0.285l0.469-0.278l0.57-0.195v1.037h4.606v-13.184
	L248.549,224.614z"/>
<path fill="none" stroke="#0e518d" stroke-width="0.055" d="M244.126,231.206v3.394l-0.285,0.181l-0.379,0.194l-0.66,0.278
	l-0.849,0.376l-1.033,0.194h-1.039l-0.849-0.194l-0.845-0.376l-0.657-0.473l-0.47-0.654l-0.285-0.57v-0.654l0.094-0.661l0.191-0.654
	l0.47-0.57l0.657-0.563l0.845-0.376l0.949-0.097l1.032,0.097l0.939,0.182l0.849,0.284l0.57,0.195l0.375,0.278L244.126,231.206z
	 M248.549,224.614l-0.473-1.501l-0.469-0.751l-0.661-0.667l-1.787-1.133l-1.981-0.654l-1.877-0.09l-1.787,0.09l-1.603,0.382
	l-1.697,0.466l-1.224,0.563l-0.661,0.375l-0.473,0.285l1.697,3.108l0.47-0.188l0.57-0.285l0.939-0.375l1.032-0.286l1.133-0.187
	l1.13-0.091l0.942,0.091l0.848,0.187l0.661,0.48l0.469,0.557l0.279,0.66l0.101,0.75l0.09,0.939l-0.661-0.181l-0.754-0.278
	l-1.318-0.285l-1.787-0.195l-2.072,0.286l-2.072,0.848l-1.501,1.029l-1.04,1.515l-0.657,1.6l-0.191,1.697l0.285,1.787l0.848,1.599
	l1.224,1.412l1.502,0.938l1.317,0.57l1.224,0.188h1.318l1.133-0.285l1.224-0.278l0.848-0.285l0.469-0.278l0.57-0.195v1.037h4.606
	v-13.184L248.549,224.614z"/>
<polygon fill="#f7fbf5" points="263.515,219.907 263.515,221.604 263.894,221.229 264.273,220.943 265.027,220.575 266.15,220.095 
	267.374,219.817 268.601,219.623 270.11,219.907 271.518,220.29 272.651,220.943 273.398,221.604 273.875,221.979 274.247,222.361 
	274.532,222.076 275.092,221.513 275.94,220.846 277.265,220.192 278.481,219.817 279.99,219.727 281.871,219.907 283.758,220.755 
	285.26,221.979 286.3,223.481 287.054,225.463 287.238,227.625 287.238,239.591 282.44,239.591 282.44,227.82 282.156,226.505 
	281.401,225.275 280.275,224.614 278.96,224.33 277.636,224.614 276.51,225.373 275.756,226.505 275.377,227.91 275.377,239.591 
	270.673,239.591 270.673,227.82 270.388,226.401 269.633,225.275 268.507,224.614 267.283,224.239 265.872,224.524 264.648,225.275 
	263.8,226.401 263.515,227.82 263.515,239.591 258.811,239.591 258.811,219.907 "/>
<polygon fill="none" stroke="#0e518d" stroke-width="0.055" points="263.515,219.907 263.515,221.604 263.894,221.229 
	264.273,220.943 265.027,220.575 266.15,220.095 267.374,219.817 268.601,219.623 270.11,219.907 271.518,220.29 272.651,220.943 
	273.398,221.604 273.875,221.979 274.247,222.361 274.532,222.076 275.092,221.513 275.94,220.846 277.265,220.192 278.481,219.817 
	279.99,219.727 281.871,219.907 283.758,220.755 285.26,221.979 286.3,223.481 287.054,225.463 287.238,227.625 287.238,239.591 
	282.44,239.591 282.44,227.82 282.156,226.505 281.401,225.275 280.275,224.614 278.96,224.33 277.636,224.614 276.51,225.373 
	275.756,226.505 275.377,227.91 275.377,239.591 270.673,239.591 270.673,227.82 270.388,226.401 269.633,225.275 268.507,224.614 
	267.283,224.239 265.872,224.524 264.648,225.275 263.8,226.401 263.515,227.82 263.515,239.591 258.811,239.591 258.811,219.907 
	"/>
<polygon fill="#f7fbf5" points="624.487,62.22 613.758,55.532 613.188,54.969 612.91,54.308 612.91,53.557 613.188,52.806 
	613.758,52.333 614.412,52.048 644.727,46.5 645.108,46.402 645.484,46.5 645.86,46.59 646.234,46.778 646.514,47.063 
	646.708,47.348 646.89,47.626 647.077,48.001 647.077,48.377 647.077,48.752 641.521,79.165 641.243,79.825 640.688,80.389 
	639.93,80.674 639.17,80.576 638.518,80.298 637.947,79.825 631.355,69.09 609.613,92.813 600.665,83.872 "/>
<polygon fill="#f7fbf5" points="425.366,108.632 421.793,109.855 421.604,109.479 421.32,109.007 420.666,108.068 419.623,107.22 
	418.309,106.65 416.897,106.469 415.479,106.65 414.165,107.318 412.948,108.347 412.003,109.946 411.35,112.115 411.154,114.563 
	411.433,117.01 412.101,119.082 413.039,120.688 414.354,121.626 415.674,122.19 416.995,122.28 418.497,122.092 419.908,121.341 
	421.042,120.306 421.695,119.27 421.89,118.609 421.98,118.046 417.837,118.046 417.837,114.375 425.84,114.375 425.84,115.126 
	425.84,115.599 425.84,116.35 425.645,118.512 425.179,120.778 424.616,121.717 423.962,122.753 421.89,124.547 419.533,125.667 
	416.995,126.048 414.548,125.771 412.19,124.728 410.209,123.038 408.707,120.778 407.762,117.858 407.483,114.563 407.762,111.267 
	408.61,108.347 410.209,105.802 411.252,104.772 412.281,104.015 414.548,102.986 416.897,102.7 419.248,102.986 421.515,104.015 
	423.587,105.621 424.337,106.559 424.797,107.318 424.991,107.874 425.179,108.159 "/>
<polygon fill="none" stroke="#0e518d" stroke-width="0.039" points="425.366,108.632 421.793,109.855 421.604,109.479 
	421.32,109.007 420.666,108.068 419.623,107.22 418.309,106.65 416.897,106.469 415.479,106.65 414.165,107.318 412.948,108.347 
	412.003,109.946 411.35,112.115 411.154,114.563 411.433,117.01 412.101,119.082 413.039,120.688 414.354,121.626 415.674,122.19 
	416.995,122.28 418.497,122.092 419.908,121.341 421.042,120.306 421.695,119.27 421.89,118.609 421.98,118.046 417.837,118.046 
	417.837,114.375 425.84,114.375 425.84,115.126 425.84,115.599 425.84,116.35 425.645,118.512 425.179,120.778 424.616,121.717 
	423.962,122.753 421.89,124.547 419.533,125.667 416.995,126.048 414.548,125.771 412.19,124.728 410.209,123.038 408.707,120.778 
	407.762,117.858 407.483,114.563 407.762,111.267 408.61,108.347 410.209,105.802 411.252,104.772 412.281,104.015 414.548,102.986 
	416.897,102.7 419.248,102.986 421.515,104.015 423.587,105.621 424.337,106.559 424.797,107.318 424.991,107.874 425.179,108.159 
	"/>
<path fill="#f7fbf5" d="M439.119,122.378l-0.945-0.188l-0.848-0.473l-0.654-0.849l-0.473-1.126l-0.285-1.321l-0.091-1.412
	l0.195-1.412l0.271-1.314l0.473-0.946l0.66-0.653l0.849-0.474l0.938-0.194l0.938,0.194l0.849,0.376l0.751,0.75l0.473,0.946
	l0.285,1.217l0.091,1.509v1.509l-0.279,1.321l-0.569,1.12l-0.751,0.848l-0.849,0.48L439.119,122.378z M440.997,125.861l1.877-0.849
	l1.704-1.314l1.23-1.981l0.744-2.26l0.285-2.357l-0.285-2.447l-0.744-2.253l-1.23-1.697l-1.6-1.321l-1.885-0.75l-1.884-0.188
	l-1.884,0.188l-1.794,0.848l-1.689,1.314l-1.224,1.794l-0.661,2.169l-0.278,2.343l0.195,2.357l0.653,2.26l1.314,1.981l1.689,1.314
	l1.794,0.849l1.793,0.187L440.997,125.861z"/>
<path fill="none" stroke="#0e518d" stroke-width="0.039" d="M439.119,122.378l-0.945-0.188l-0.848-0.473l-0.654-0.849l-0.473-1.126
	l-0.285-1.321l-0.091-1.412l0.195-1.412l0.271-1.314l0.473-0.946l0.66-0.653l0.849-0.474l0.938-0.194l0.938,0.194l0.849,0.376
	l0.751,0.75l0.473,0.946l0.285,1.217l0.091,1.509v1.509l-0.279,1.321l-0.569,1.12l-0.751,0.848l-0.849,0.48L439.119,122.378z
	 M440.997,125.861l1.877-0.849l1.704-1.314l1.23-1.981l0.744-2.26l0.285-2.357l-0.285-2.447l-0.744-2.253l-1.23-1.697l-1.6-1.321
	l-1.885-0.75l-1.884-0.188l-1.884,0.188l-1.794,0.848l-1.689,1.314l-1.224,1.794l-0.661,2.169l-0.278,2.343l0.195,2.357l0.653,2.26
	l1.314,1.981l1.689,1.314l1.794,0.849l1.793,0.187L440.997,125.861z"/>
<polygon fill="#f7fbf5" points="457.948,108.541 457.948,110.05 458.227,109.765 458.505,109.479 459.172,109.097 459.923,108.722 
	460.868,108.444 461.801,108.354 462.648,108.444 463.406,108.632 463.97,108.827 464.442,109.007 464.72,109.202 465.013,109.382 
	463.781,113.714 463.594,113.526 463.315,113.241 462.94,112.956 462.468,112.686 461.801,112.588 461.146,112.491 460.486,112.588 
	459.729,112.866 458.978,113.437 458.414,114.187 458.039,115.132 457.948,116.162 457.948,125.861 453.804,125.861 
	453.804,108.541 "/>
<polygon fill="none" stroke="#0e518d" stroke-width="0.039" points="457.948,108.541 457.948,110.05 458.227,109.765 
	458.505,109.479 459.172,109.097 459.923,108.722 460.868,108.444 461.801,108.354 462.648,108.444 463.406,108.632 463.97,108.827 
	464.442,109.007 464.72,109.202 465.013,109.382 463.781,113.714 463.594,113.526 463.315,113.241 462.94,112.956 462.468,112.686 
	461.801,112.588 461.146,112.491 460.486,112.588 459.729,112.866 458.978,113.437 458.414,114.187 458.039,115.132 
	457.948,116.162 457.948,125.861 453.804,125.861 453.804,108.541 "/>
<polygon fill="#f7fbf5" points="474.705,108.541 474.705,125.861 470.561,125.861 470.561,108.632 "/>
<polygon fill="none" stroke="#0e518d" stroke-width="0.039" points="474.705,108.541 474.705,125.861 470.561,125.861 
	470.561,108.632 "/>
<polygon fill="#f7fbf5" points="472.724,107.318 471.882,107.13 471.117,106.65 470.756,105.906 470.561,105.058 470.756,104.209 
	471.222,103.549 471.882,103.076 472.724,102.896 473.571,103.076 474.33,103.549 474.795,104.3 474.886,105.148 474.705,105.996 
	474.231,106.65 473.571,107.13 "/>
<polygon fill="none" stroke="#0e518d" stroke-width="0.039" points="472.724,107.318 471.882,107.13 471.117,106.65 
	470.756,105.906 470.561,105.058 470.756,104.209 471.222,103.549 471.882,103.076 472.724,102.896 473.571,103.076 474.33,103.549 
	474.795,104.3 474.886,105.148 474.705,105.996 474.231,106.65 473.571,107.13 "/>
<polygon fill="#f7fbf5" points="487.881,108.541 487.881,109.855 488.354,109.57 488.729,109.292 489.293,109.007 490.141,108.632 
	491.079,108.444 492.115,108.354 493.151,108.444 494.284,108.722 495.703,109.382 496.913,110.419 497.865,111.643 
	498.331,112.775 498.609,114.09 498.609,115.599 498.609,125.861 494.569,125.861 494.569,115.599 494.284,114.375 493.534,113.338 
	492.497,112.588 491.184,112.303 489.953,112.588 488.917,113.338 488.166,114.375 487.881,115.696 487.881,125.861 
	483.743,125.861 483.743,108.541 "/>
<polygon fill="none" stroke="#0e518d" stroke-width="0.039" points="487.881,108.541 487.881,109.855 488.354,109.57 
	488.729,109.292 489.293,109.007 490.141,108.632 491.079,108.444 492.115,108.354 493.151,108.444 494.284,108.722 
	495.689,109.382 496.913,110.419 497.865,111.643 498.331,112.775 498.609,114.09 498.609,115.599 498.609,125.861 494.569,125.861 
	494.569,115.599 494.284,114.375 493.534,113.338 492.497,112.588 491.184,112.303 489.953,112.588 488.917,113.338 
	488.166,114.375 487.881,115.696 487.881,125.861 483.743,125.861 483.743,108.541 "/>
<polygon fill="#f7fbf5" points="520.456,111.928 517.724,114.847 517.633,114.465 517.354,114 516.882,113.437 516.033,112.866 
	514.99,112.393 513.768,112.212 512.544,112.491 511.416,113.061 510.666,113.804 510.096,114.847 509.727,116.071 509.623,117.482 
	509.817,118.797 510.29,120.021 510.944,120.869 511.792,121.529 512.835,122.002 513.864,122.092 514.99,122.002 516.033,121.626 
	516.785,120.959 517.354,120.396 517.535,120.021 517.724,119.646 520.456,122.468 520.08,122.941 519.704,123.414 518.759,124.255 
	517.354,125.104 515.651,125.771 513.864,126.042 512.168,125.861 510.472,125.298 508.691,124.165 507.085,122.468 
	505.951,120.111 505.584,118.797 505.493,117.385 505.771,114.653 506.808,112.393 508.219,110.606 509.915,109.292 511.89,108.632 
	513.864,108.354 515.839,108.632 517.633,109.292 518.947,110.231 519.795,111.079 520.17,111.552 "/>
<polygon fill="none" stroke="#0e518d" stroke-width="0.039" points="520.456,111.928 517.724,114.847 517.633,114.465 517.354,114 
	516.882,113.437 516.033,112.866 514.99,112.393 513.768,112.212 512.544,112.491 511.416,113.061 510.666,113.804 510.096,114.847 
	509.727,116.071 509.623,117.482 509.817,118.797 510.29,120.021 510.944,120.869 511.792,121.529 512.835,122.002 513.864,122.092 
	514.99,122.002 516.033,121.626 516.785,120.959 517.354,120.396 517.535,120.021 517.724,119.646 520.456,122.468 520.08,122.941 
	519.704,123.414 518.759,124.255 517.354,125.104 515.651,125.771 513.864,126.042 512.168,125.861 510.472,125.298 
	508.691,124.165 507.085,122.468 505.951,120.111 505.584,118.797 505.493,117.385 505.771,114.653 506.808,112.393 
	508.219,110.606 509.915,109.292 511.89,108.632 513.864,108.354 515.839,108.632 517.633,109.292 518.947,110.231 519.795,111.079 
	520.17,111.552 "/>
<polygon fill="#f7fbf5" points="527.423,102.888 531.657,102.888 531.657,111.364 531.852,111.176 532.13,110.801 532.596,110.328 
	533.263,109.758 534.014,109.292 534.766,108.91 535.613,108.729 536.461,108.639 537.213,108.639 538.061,108.819 538.999,109.104 
	539.854,109.479 540.793,110.231 541.551,111.176 542.017,112.212 542.295,113.151 542.482,114.284 542.482,115.599 
	542.482,125.861 538.339,125.861 538.339,116.447 538.256,115.508 538.061,114.66 537.873,113.902 537.498,113.338 537.032,112.873 
	536.364,112.497 535.71,112.303 535.043,112.303 534.292,112.4 533.541,112.678 532.888,113.151 532.317,113.714 531.942,114.465 
	531.748,115.223 531.657,116.071 531.657,117.01 531.657,125.861 527.423,125.861 "/>
<polygon fill="none" stroke="#0e518d" stroke-width="0.039" points="527.423,102.888 531.657,102.888 531.657,111.364 
	531.852,111.176 532.13,110.801 532.596,110.328 533.263,109.758 534.014,109.292 534.766,108.91 535.613,108.729 536.461,108.639 
	537.213,108.639 538.061,108.819 538.999,109.104 539.854,109.479 540.793,110.231 541.551,111.176 542.017,112.212 
	542.295,113.151 542.482,114.284 542.482,115.599 542.482,125.861 538.339,125.861 538.339,116.447 538.256,115.508 538.061,114.66 
	537.873,113.902 537.498,113.338 537.032,112.873 536.364,112.497 535.71,112.303 535.043,112.303 534.292,112.4 533.541,112.678 
	532.888,113.151 532.317,113.714 531.942,114.465 531.748,115.223 531.657,116.071 531.657,117.01 531.657,125.861 527.423,125.861 
	"/>
<path fill="#f7fbf5" d="M564.051,118.136h-10.547l0.09,0.473v0.57l0.188,0.744l0.285,0.757l0.473,0.661l0.66,0.563l0.759,0.376
	l0.744,0.195l0.758-0.097l0.751-0.188l0.66-0.286l0.466-0.284l0.278-0.181l0.382-0.285l2.83,2.169l-0.473,0.473l-0.473,0.466
	l-1.036,0.654l-1.314,0.667l-1.516,0.376l-1.502,0.09l-1.696-0.284l-1.689-0.849l-1.509-1.12l-1.127-1.606l-0.854-2.162
	l-0.278-2.732l0.278-2.732l0.758-2.26l1.126-1.697l1.411-1.126l1.801-0.848l1.969-0.285l1.884,0.194l1.877,0.751l1.696,1.411
	l0.759,0.946l0.465,0.939l0.57,2.072l0.098,1.877v0.57v0.472V118.136z M559.906,114.66l-0.097-0.383l-0.194-0.466l-0.375-0.473
	l-0.369-0.563l-0.563-0.375l-0.758-0.375l-0.848-0.091l-0.744,0.091l-0.668,0.375l-0.557,0.375l-0.382,0.563l-0.382,0.473
	l-0.084,0.466l-0.104,0.383l-0.091,0.375h6.307L559.906,114.66z"/>
<path fill="none" stroke="#0e518d" stroke-width="0.039" d="M564.051,118.136h-10.547l0.09,0.473v0.57l0.188,0.744l0.285,0.757
	l0.473,0.661l0.66,0.563l0.759,0.376l0.744,0.188l0.758-0.09l0.751-0.188l0.66-0.286l0.466-0.284l0.278-0.181l0.382-0.285
	l2.83,2.169l-0.473,0.473l-0.473,0.466l-1.036,0.654l-1.314,0.667l-1.516,0.376l-1.502,0.09l-1.696-0.284l-1.689-0.849l-1.509-1.12
	l-1.127-1.606l-0.854-2.162l-0.278-2.732l0.278-2.732l0.758-2.26l1.126-1.697l1.411-1.126l1.801-0.848l1.969-0.285l1.884,0.194
	l1.877,0.751l1.696,1.411l0.759,0.946l0.465,0.939l0.57,2.072l0.098,1.877v0.57v0.472V118.136z M559.906,114.66l-0.097-0.383
	l-0.194-0.466l-0.375-0.473l-0.369-0.563l-0.563-0.375l-0.758-0.375l-0.848-0.091l-0.744,0.091l-0.668,0.375l-0.557,0.375
	l-0.382,0.563l-0.382,0.473l-0.084,0.466l-0.104,0.383l-0.091,0.375h6.307L559.906,114.66z"/>
<polygon fill="#f7fbf5" points="575.53,108.541 575.53,110.05 575.815,109.765 576.191,109.479 576.845,109.097 577.79,108.722 
	578.833,108.444 579.953,108.354 581.28,108.541 582.595,108.917 583.533,109.479 584.187,110.05 584.562,110.419 584.854,110.703 
	585.133,110.419 585.605,110.05 586.453,109.382 587.482,108.827 588.623,108.541 589.93,108.444 591.536,108.632 593.143,109.292 
	594.547,110.419 595.492,111.74 596.049,113.437 596.244,115.313 596.244,125.861 592.1,125.861 592.1,115.508 591.821,114.375 
	591.16,113.338 590.222,112.686 588.998,112.491 587.858,112.686 586.829,113.338 586.169,114.375 585.89,115.599 585.89,125.861 
	581.746,125.861 581.746,115.508 581.462,114.284 580.905,113.338 579.953,112.686 578.735,112.4 577.512,112.588 576.469,113.241 
	575.815,114.284 575.53,115.508 575.53,125.861 571.296,125.861 571.296,108.541 "/>
<polygon fill="none" stroke="#0e518d" stroke-width="0.039" points="575.53,108.541 575.53,110.05 575.815,109.765 576.191,109.479 
	576.845,109.097 577.79,108.722 578.833,108.444 579.953,108.354 581.28,108.541 582.595,108.917 583.533,109.479 584.187,110.05 
	584.562,110.419 584.854,110.703 585.133,110.419 585.605,110.05 586.453,109.382 587.482,108.827 588.623,108.541 589.93,108.444 
	591.536,108.632 593.143,109.292 594.547,110.419 595.492,111.74 596.049,113.437 596.244,115.313 596.244,125.861 592.1,125.861 
	592.1,115.501 591.821,114.375 591.16,113.338 590.222,112.686 588.998,112.491 587.858,112.686 586.829,113.338 586.169,114.375 
	585.89,115.599 585.89,125.861 581.746,125.861 581.746,115.501 581.462,114.284 580.905,113.338 579.953,112.686 578.735,112.4 
	577.512,112.588 576.469,113.241 575.815,114.284 575.53,115.501 575.53,125.861 571.296,125.861 571.296,108.541 "/>
<path fill="#f7fbf5" d="M411.252,242.977h7.343l1.32-0.285l1.127-0.653l0.751-1.134l0.194-1.224l-0.194-1.231l-0.751-1.029
	l-1.127-0.757l-1.32-0.278h-7.343V242.977z M411.252,232.617h7.439l1.029-0.188l0.938-0.57l0.57-0.744l0.188-0.938l-0.188-0.946
	l-0.57-0.842l-0.841-0.57l-1.127-0.278h-7.439V232.617z M407.483,223.864h11.299l1.877,0.188l1.606,0.751l1.313,1.134l0.849,1.224
	l0.57,1.501l0.188,1.321l-0.098,1.322l-0.375,1.036l-0.473,0.939l-0.473,0.653l-0.376,0.285l-0.278,0.285l0.376,0.278l0.375,0.375
	l0.563,0.667l0.66,0.938l0.563,1.412l0.188,1.6l-0.188,1.599l-0.563,1.606l-1.042,1.502l-1.502,1.224l-1.885,0.848l-2.26,0.285
	h-10.916V223.864z"/>
<path fill="none" stroke="#0e518d" stroke-width="0.039" d="M411.252,242.977h7.343l1.32-0.285l1.127-0.653l0.751-1.134l0.194-1.224
	l-0.194-1.231l-0.751-1.029l-1.127-0.757l-1.32-0.278h-7.343V242.977z M411.252,232.617h7.439l1.029-0.188l0.938-0.57l0.57-0.744
	l0.188-0.938l-0.188-0.946l-0.57-0.842l-0.841-0.57l-1.127-0.278h-7.439V232.617z M407.483,223.864h11.299l1.877,0.188l1.606,0.751
	l1.313,1.134l0.849,1.224l0.57,1.501l0.188,1.321l-0.098,1.322l-0.375,1.036l-0.473,0.939l-0.473,0.653l-0.376,0.285l-0.278,0.285
	l0.376,0.278l0.375,0.375l0.563,0.667l0.66,0.938l0.563,1.412l0.188,1.6l-0.188,1.599l-0.563,1.606l-1.042,1.502l-1.502,1.224
	l-1.885,0.848l-2.26,0.285h-10.916V223.864z"/>
<polygon fill="#f7fbf5" points="438.361,229.516 438.361,230.921 438.646,230.74 438.925,230.455 439.495,229.982 440.344,229.606 
	441.282,229.419 442.123,229.329 442.972,229.419 443.82,229.606 444.39,229.801 444.766,229.982 445.044,230.177 445.426,230.364 
	444.195,234.689 444.007,234.405 443.729,234.223 443.354,233.938 442.783,233.66 442.221,233.465 441.567,233.465 440.899,233.556 
	440.148,233.841 439.3,234.405 438.744,235.162 438.452,236.011 438.361,237.046 438.361,246.836 434.218,246.836 434.218,229.516 
	"/>
<polygon fill="none" stroke="#0e518d" stroke-width="0.039" points="438.361,229.516 438.361,230.921 438.646,230.74 
	438.925,230.455 439.495,229.982 440.344,229.606 441.282,229.419 442.123,229.329 442.972,229.419 443.82,229.606 444.39,229.801 
	444.766,229.982 445.044,230.177 445.426,230.364 444.195,234.689 444.007,234.405 443.729,234.223 443.354,233.938 442.783,233.66 
	442.221,233.465 441.567,233.465 440.899,233.556 440.148,233.841 439.3,234.405 438.744,235.162 438.452,236.011 438.361,237.046 
	438.361,246.836 434.218,246.836 434.218,229.516 "/>
<path fill="#f7fbf5" d="M463.594,239.111h-10.457v0.473l0.098,0.569l0.098,0.745l0.375,0.758l0.473,0.661l0.653,0.563l0.758,0.375
	l0.759,0.195l0.653-0.097l0.751-0.188l0.667-0.285l0.459-0.278l0.39-0.194l0.375-0.279l2.726,2.163l-0.375,0.375l-0.473,0.57
	l-1.044,0.653l-1.404,0.57l-1.501,0.369l-1.517,0.104l-1.689-0.284l-1.696-0.758l-1.411-1.126l-1.224-1.599l-0.751-2.267
	l-0.375-2.635l0.277-2.726l0.849-2.259l1.029-1.697l1.515-1.126l1.787-0.849l1.885-0.285l1.877,0.195l1.892,0.751l1.786,1.412
	l0.654,0.938l0.466,0.946l0.569,2.065l0.195,1.884v0.57v0.465L463.594,239.111z M459.45,235.628l-0.098-0.376l-0.188-0.466
	l-0.285-0.563l-0.459-0.472l-0.57-0.473L457.093,233l-0.743-0.097L455.501,233l-0.668,0.279l-0.466,0.473l-0.466,0.472l-0.292,0.563
	l-0.181,0.466l-0.097,0.376l-0.098,0.382h6.313L459.45,235.628z"/>
<path fill="none" stroke="#0e518d" stroke-width="0.039" d="M463.594,239.111h-10.457v0.473l0.098,0.569l0.098,0.745l0.375,0.758
	l0.473,0.661l0.653,0.563l0.758,0.375l0.759,0.195l0.653-0.097l0.751-0.188l0.667-0.285l0.459-0.278l0.39-0.194l0.375-0.279
	l2.726,2.163l-0.375,0.375l-0.473,0.57l-1.044,0.653l-1.404,0.57l-1.501,0.369l-1.517,0.104l-1.689-0.284l-1.696-0.758l-1.411-1.126
	l-1.224-1.599l-0.751-2.267l-0.375-2.635l0.277-2.726l0.849-2.259l1.029-1.697l1.515-1.126l1.787-0.849l1.885-0.285l1.877,0.195
	l1.892,0.751l1.786,1.412l0.654,0.938l0.466,0.946l0.569,2.065l0.195,1.884v0.57v0.465L463.594,239.111z M459.45,235.628
	l-0.098-0.376l-0.188-0.466l-0.285-0.563l-0.459-0.472l-0.57-0.473L457.093,233l-0.743-0.097L455.501,233l-0.668,0.279l-0.466,0.473
	l-0.466,0.472l-0.292,0.563l-0.181,0.466l-0.097,0.376l-0.098,0.382h6.313L459.45,235.628z"/>
<path fill="#f7fbf5" d="M479.787,224.711l4.145-1.508v23.632h-4.145v-1.133l-0.466,0.285l-0.569,0.369l-1.231,0.479l-1.592,0.188
	l-1.697-0.278l-1.599-0.661l-1.32-1.231l-1.127-1.689l-0.849-2.169l-0.376-2.538l0.279-2.643l0.849-2.35l1.133-1.877l1.411-1.224
	l1.509-0.66l1.689-0.285l1.689,0.285l0.661,0.188l0.57,0.278l0.569,0.375l0.466,0.285V224.711z M479.787,234.689l-0.285-0.284
	l-0.473-0.376l-0.848-0.473l-1.21-0.181l-1.141,0.181l-0.945,0.563l-0.744,0.757l-0.57,0.938l-0.383,1.231l-0.083,1.321l0.182,1.502
	l0.375,1.224l0.668,0.848l0.75,0.661l0.849,0.369l1.043,0.097l1.029-0.188l0.848-0.375l0.473-0.376l0.466-0.466V234.689z"/>
<path fill="none" stroke="#0e518d" stroke-width="0.039" d="M479.787,224.711l4.145-1.508v23.632h-4.145v-1.133l-0.466,0.285
	l-0.569,0.369l-1.231,0.479l-1.592,0.188l-1.697-0.278l-1.599-0.661l-1.32-1.231l-1.127-1.689l-0.849-2.169l-0.376-2.538
	l0.279-2.643l0.849-2.35l1.133-1.877l1.411-1.224l1.509-0.66l1.689-0.285l1.689,0.285l0.661,0.188l0.57,0.278l0.569,0.375
	l0.466,0.285V224.711z M479.787,234.689l-0.285-0.284l-0.473-0.376l-0.848-0.473l-1.21-0.181l-1.141,0.181l-0.945,0.563
	l-0.744,0.757l-0.57,0.938l-0.383,1.231l-0.083,1.321l0.182,1.502l0.375,1.224l0.668,0.848l0.75,0.661l0.849,0.369l1.043,0.097
	l1.029-0.188l0.848-0.382l0.473-0.369l0.466-0.473V234.689z"/>
<path fill="#f7fbf5" d="M501.252,239.494v2.92l-0.278,0.181l-0.383,0.188l-0.466,0.285l-0.849,0.285l-0.848,0.188h-0.848
	l-0.849-0.188l-0.654-0.285l-0.667-0.473l-0.376-0.556l-0.194-0.571l-0.083-0.563l0.083-0.563l0.194-0.569l0.376-0.473l0.57-0.466
	l0.751-0.278l0.849-0.194l0.938,0.09l0.757,0.104l0.752,0.278l0.563,0.285l0.383,0.181L501.252,239.494z M505.201,233.751
	l-0.466-1.412l-0.466-0.661l-0.57-0.661l-1.6-0.945l-1.696-0.459l-1.696-0.195l-1.502,0.09l-1.412,0.286l-1.509,0.472l-1.133,0.57
	l-0.563,0.278l-0.376,0.188l1.509,2.822l0.467-0.188l0.473-0.285l0.751-0.285l0.945-0.285l0.939-0.181h1.035h0.849l0.758,0.181
	l0.563,0.382l0.376,0.571l0.278,0.556l0.098,0.668v0.848l-0.474-0.195l-0.653-0.284l-1.224-0.279l-1.605-0.09l-1.787,0.278
	l-1.788,0.66l-1.313,0.939l-0.945,1.313l-0.57,1.419l-0.181,1.501l0.277,1.509l0.752,1.501l1.043,1.231l1.313,0.841l1.23,0.382
	l1.029,0.181h1.126l1.037-0.181l1.035-0.285l0.751-0.278l0.473-0.195l0.376-0.181l0.098,0.938h4.047V235.26L505.201,233.751z"/>
<path fill="none" stroke="#0e518d" stroke-width="0.039" d="M501.252,239.494v2.92l-0.278,0.181l-0.383,0.188l-0.466,0.285
	l-0.849,0.285l-0.848,0.188h-0.848l-0.849-0.188l-0.654-0.285l-0.667-0.473l-0.376-0.556l-0.194-0.571l-0.083-0.563l0.083-0.563
	l0.194-0.569l0.376-0.473l0.57-0.466l0.751-0.278l0.849-0.194l0.938,0.09l0.757,0.104l0.752,0.278l0.563,0.285l0.383,0.181
	L501.252,239.494z M505.201,233.751l-0.466-1.412l-0.466-0.661l-0.57-0.661l-1.6-0.945l-1.696-0.459l-1.696-0.195l-1.502,0.09
	l-1.412,0.286l-1.509,0.472l-1.133,0.57l-0.563,0.278l-0.376,0.188l1.509,2.822l0.467-0.188l0.473-0.285l0.751-0.285l0.945-0.285
	l0.939-0.181h1.035h0.849l0.758,0.181l0.563,0.382l0.376,0.571l0.278,0.556l0.098,0.668v0.848l-0.474-0.195l-0.653-0.284
	l-1.224-0.279l-1.605-0.09l-1.787,0.278l-1.788,0.66l-1.313,0.939l-0.945,1.313l-0.57,1.419l-0.181,1.501l0.277,1.509l0.752,1.501
	l1.043,1.231l1.313,0.841l1.23,0.382l1.029,0.181h1.126l1.037-0.181l1.035-0.285l0.751-0.278l0.473-0.195l0.376-0.181l0.098,0.938
	h4.047V235.26L505.201,233.751z"/>
<polygon fill="#f7fbf5" points="425.84,183.383 425.84,197.407 425.645,199.194 425.088,200.891 424.337,202.49 423.204,203.909 
	421.793,205.035 420.194,205.883 418.399,206.453 416.522,206.634 414.645,206.453 412.948,205.883 411.343,205.035 
	409.931,203.909 408.895,202.588 408.137,200.988 407.671,199.194 407.483,197.317 407.483,183.383 411.154,183.383 
	411.154,197.317 411.53,199.389 412.656,201.176 414.354,202.4 415.479,202.685 416.522,202.872 417.648,202.775 418.685,202.49 
	420.472,201.266 421.695,199.479 421.98,198.45 422.07,197.407 422.07,183.383 "/>
<polygon fill="none" stroke="#0e518d" stroke-width="0.039" points="425.84,183.383 425.84,197.407 425.645,199.194 
	425.088,200.891 424.337,202.49 423.204,203.909 421.793,205.035 420.194,205.883 418.399,206.453 416.522,206.634 414.645,206.453 
	412.948,205.883 411.343,205.035 409.931,203.909 408.895,202.588 408.137,200.988 407.671,199.194 407.483,197.317 
	407.483,183.383 411.154,183.383 411.154,197.317 411.53,199.389 412.656,201.176 414.354,202.4 415.479,202.685 416.522,202.872 
	417.648,202.775 418.685,202.49 420.472,201.266 421.695,199.479 421.98,198.45 422.07,197.407 422.07,183.383 "/>
<polygon fill="#f7fbf5" points="439.773,183.383 439.773,189.126 444.015,189.126 444.015,192.985 439.87,192.985 439.87,200.988 
	439.87,201.461 439.87,201.836 440.059,202.115 440.44,202.49 440.907,202.685 441.372,202.775 441.846,202.685 442.408,202.588 
	442.874,202.4 443.444,202.115 443.826,201.836 444.195,201.551 443.347,205.792 442.972,205.973 442.597,206.168 442.04,206.349 
	441.372,206.544 440.719,206.634 439.961,206.634 439.203,206.544 438.452,206.349 437.799,205.973 437.047,205.41 436.38,204.659 
	436.004,203.812 435.823,202.963 435.727,201.934 435.727,192.985 432.619,192.985 432.619,189.126 435.727,189.126 
	435.727,184.885 "/>
<polygon fill="none" stroke="#0e518d" stroke-width="0.039" points="439.773,183.383 439.773,189.126 444.015,189.126 
	444.015,192.985 439.87,192.985 439.87,200.988 439.87,201.461 439.87,201.836 440.059,202.115 440.44,202.49 440.907,202.685 
	441.372,202.775 441.846,202.685 442.408,202.588 442.874,202.4 443.444,202.115 443.826,201.836 444.195,201.551 443.347,205.792 
	442.972,205.973 442.597,206.168 442.04,206.349 441.372,206.544 440.719,206.634 439.961,206.634 439.203,206.544 438.452,206.349 
	437.799,205.973 437.047,205.41 436.38,204.659 436.004,203.812 435.823,202.963 435.727,201.934 435.727,192.985 432.619,192.985 
	432.619,189.126 435.727,189.126 435.727,184.885 "/>
<polygon fill="#f7fbf5" points="455.591,189.029 455.591,190.538 455.876,190.26 456.252,189.975 456.815,189.592 457.573,189.216 
	458.505,188.938 459.45,188.841 460.298,188.938 461.049,189.126 461.612,189.314 462.086,189.501 462.37,189.689 462.648,189.877 
	461.425,194.209 461.237,194.021 461.049,193.736 460.674,193.451 460.111,193.173 459.45,193.076 458.797,192.985 458.129,193.076 
	457.379,193.36 456.627,193.924 456.057,194.682 455.682,195.621 455.591,196.657 455.591,206.356 451.447,206.356 451.447,189.029 
	"/>
<polygon fill="none" stroke="#0e518d" stroke-width="0.039" points="455.591,189.029 455.591,190.538 455.876,190.26 
	456.252,189.975 456.815,189.592 457.573,189.216 458.505,188.938 459.45,188.841 460.298,188.938 461.049,189.126 461.612,189.314 
	462.086,189.501 462.37,189.689 462.648,189.877 461.425,194.209 461.237,194.021 461.049,193.736 460.674,193.451 460.111,193.173 
	459.45,193.076 458.797,192.985 458.129,193.076 457.379,193.36 456.627,193.924 456.057,194.682 455.682,195.621 455.591,196.657 
	455.591,206.356 451.447,206.356 451.447,189.029 "/>
<path fill="#f7fbf5" d="M480.921,198.728h-10.548l0.091,0.376v0.57l0.188,0.744l0.285,0.758l0.473,0.66l0.653,0.563l0.759,0.375
	l0.758,0.194l0.743-0.097l0.758-0.187l0.66-0.285l0.467-0.285l0.376-0.188l0.284-0.278l2.83,2.163l-0.473,0.466l-0.473,0.479
	l-0.945,0.653l-1.503,0.661l-1.411,0.382l-1.509,0.091l-1.696-0.285l-1.697-0.744l-1.501-1.237l-1.127-1.592l-0.848-2.163
	l-0.286-2.733l0.286-2.732l0.751-2.26l1.126-1.599l1.412-1.223l1.794-0.751l1.981-0.382l1.877,0.285l1.891,0.661l1.683,1.411
	l0.752,0.938l0.472,0.946l0.571,2.072l0.097,1.877v0.66v0.375V198.728z M476.777,195.155l-0.098-0.383l-0.181-0.466l-0.39-0.473
	l-0.369-0.563l-0.569-0.382l-0.758-0.278l-0.834-0.188l-0.758,0.188l-0.661,0.278l-0.563,0.382l-0.376,0.563l-0.383,0.473
	l-0.09,0.466l-0.188,0.383v0.466h6.307L476.777,195.155z"/>
<path fill="none" stroke="#0e518d" stroke-width="0.039" d="M480.921,198.728h-10.548l0.091,0.376v0.57l0.188,0.744l0.285,0.758
	l0.473,0.66l0.653,0.563l0.759,0.375l0.758,0.194l0.743-0.097l0.758-0.187l0.66-0.285l0.467-0.285l0.376-0.188l0.284-0.278
	l2.83,2.163l-0.473,0.466l-0.473,0.479l-0.945,0.653l-1.503,0.661l-1.411,0.382l-1.509,0.091l-1.696-0.285l-1.697-0.744
	l-1.501-1.237l-1.127-1.592l-0.848-2.163l-0.286-2.733l0.286-2.732l0.751-2.26l1.126-1.599l1.412-1.223l1.794-0.751l1.981-0.382
	l1.877,0.285l1.891,0.661l1.683,1.411l0.752,0.938l0.472,0.946l0.571,2.072l0.097,1.877v0.66v0.375V198.728z M476.777,195.155
	l-0.098-0.383l-0.181-0.466l-0.39-0.473l-0.369-0.563l-0.569-0.382l-0.758-0.278l-0.834-0.188l-0.758,0.188l-0.661,0.278
	l-0.563,0.382l-0.376,0.563l-0.383,0.473l-0.09,0.466l-0.188,0.383v0.466h6.307L476.777,195.155z"/>
<polygon fill="#f7fbf5" points="501.154,192.422 498.525,195.343 498.338,194.96 498.144,194.584 497.581,193.924 496.829,193.271 
	495.787,192.895 494.569,192.708 493.241,192.985 492.212,193.548 491.364,194.3 490.794,195.343 490.517,196.566 490.426,197.978 
	490.613,199.292 490.988,200.516 491.74,201.363 492.588,202.024 493.534,202.497 494.569,202.685 495.696,202.497 496.732,202.122 
	497.581,201.454 498.053,200.891 498.338,200.516 498.525,200.14 501.154,202.963 500.876,203.436 500.403,203.999 499.555,204.75 
	498.144,205.598 496.356,206.266 494.569,206.544 492.964,206.356 491.184,205.792 489.39,204.659 487.784,202.963 486.664,200.613 
	486.372,199.292 486.281,197.88 486.566,195.147 487.513,192.895 488.917,191.101 490.703,189.787 492.588,189.126 494.66,188.849 
	496.635,189.126 498.429,189.787 499.75,190.725 500.494,191.574 500.974,192.047 "/>
<polygon fill="none" stroke="#0e518d" stroke-width="0.039" points="501.154,192.422 498.525,195.343 498.338,194.96 
	498.144,194.584 497.581,193.924 496.829,193.271 495.787,192.895 494.569,192.708 493.241,192.985 492.212,193.548 491.364,194.3 
	490.794,195.343 490.517,196.566 490.426,197.978 490.613,199.292 490.988,200.516 491.74,201.363 492.588,202.024 493.534,202.497 
	494.569,202.685 495.696,202.497 496.732,202.122 497.581,201.454 498.053,200.891 498.338,200.516 498.525,200.14 501.154,202.963 
	500.876,203.436 500.403,203.999 499.555,204.75 498.144,205.598 496.356,206.266 494.569,206.544 492.964,206.356 491.184,205.792 
	489.39,204.659 487.784,202.963 486.664,200.613 486.372,199.292 486.281,197.88 486.566,195.147 487.513,192.895 488.917,191.101 
	490.703,189.787 492.588,189.126 494.66,188.849 496.635,189.126 498.429,189.787 499.75,190.725 500.494,191.574 500.974,192.047 
	"/>
<polygon fill="#f7fbf5" points="508.219,183.383 512.453,183.383 512.453,191.95 512.647,191.671 512.919,191.296 513.392,190.823 
	514.059,190.253 514.72,189.787 515.561,189.404 516.409,189.224 517.16,189.126 518.009,189.126 518.856,189.314 519.795,189.599 
	520.637,190.072 521.589,190.725 522.333,191.671 522.813,192.7 523.091,193.646 523.279,194.772 523.279,196.093 523.279,206.349 
	519.052,206.349 519.052,196.941 519.052,196.093 518.856,195.155 518.669,194.397 518.294,193.833 517.724,193.368 517.16,192.985 
	516.506,192.797 515.839,192.797 515.088,192.888 514.337,193.263 513.684,193.646 513.113,194.209 512.738,194.96 512.544,195.718 
	512.453,196.559 512.453,197.504 512.453,206.349 508.219,206.349 "/>
<polygon fill="none" stroke="#0e518d" stroke-width="0.039" points="508.219,183.383 512.453,183.383 512.453,191.95 
	512.647,191.671 512.919,191.296 513.392,190.823 514.059,190.253 514.72,189.787 515.561,189.404 516.409,189.224 517.16,189.126 
	518.009,189.126 518.856,189.314 519.795,189.599 520.637,190.072 521.589,190.725 522.333,191.671 522.813,192.7 523.091,193.646 
	523.279,194.772 523.279,196.093 523.279,206.349 519.052,206.349 519.052,196.941 519.052,196.093 518.856,195.155 
	518.669,194.397 518.294,193.833 517.724,193.368 517.16,192.985 516.506,192.797 515.839,192.797 515.088,192.888 514.337,193.263 
	513.684,193.646 513.113,194.209 512.738,194.96 512.544,195.718 512.453,196.559 512.453,197.504 512.453,206.349 508.219,206.349 
	"/>
<polygon fill="#f7fbf5" points="537.213,183.383 537.213,189.126 541.356,189.126 541.356,192.985 537.213,192.985 537.213,200.988 
	537.213,201.461 537.213,201.836 537.407,202.115 537.782,202.49 538.256,202.685 538.728,202.775 539.193,202.685 539.757,202.588 
	540.23,202.4 540.786,202.115 541.162,201.836 541.544,201.551 540.696,205.792 540.327,205.973 539.938,206.168 539.382,206.349 
	538.728,206.544 538.061,206.634 537.407,206.634 536.552,206.544 535.809,206.349 535.141,205.973 534.39,205.41 533.736,204.659 
	533.354,203.812 533.166,202.963 533.068,201.934 533.068,192.985 529.968,192.985 529.968,189.126 533.068,189.126 
	533.068,184.885 "/>
<polygon fill="none" stroke="#0e518d" stroke-width="0.039" points="537.213,183.383 537.213,189.126 541.356,189.126 
	541.356,192.985 537.213,192.985 537.213,200.988 537.213,201.461 537.213,201.836 537.407,202.115 537.782,202.49 538.256,202.685 
	538.728,202.775 539.193,202.685 539.757,202.588 540.23,202.4 540.786,202.115 541.162,201.836 541.544,201.551 540.696,205.792 
	540.327,205.973 539.938,206.168 539.382,206.349 538.728,206.544 538.061,206.634 537.407,206.634 536.552,206.544 
	535.809,206.349 535.141,205.973 534.39,205.41 533.736,204.659 533.354,203.812 533.166,202.963 533.068,201.934 533.068,192.985 
	529.968,192.985 529.968,189.126 533.068,189.126 533.068,184.885 "/>
<polygon fill="#f7fbf5" points="423.962,146.574 421.132,149.112 420.847,148.827 420.472,148.451 419.818,147.888 418.691,147.235 
	417.273,146.859 415.771,146.664 414.45,146.755 413.324,147.137 412.378,147.604 411.718,148.173 411.433,148.736 411.343,149.396 
	411.53,150.058 411.906,150.718 412.566,151.281 413.324,151.566 419.436,152.88 421.793,153.819 422.738,154.389 423.489,155.237 
	424.519,157.024 424.811,159.187 424.519,161.356 423.579,163.046 422.266,164.367 420.389,165.403 418.023,166.153 
	415.674,166.341 413.324,166.056 410.877,165.215 408.805,164.082 407.956,163.519 407.483,162.955 406.92,162.385 406.538,161.919 
	409.36,159.472 409.646,159.848 410.119,160.32 410.96,161.071 412.19,161.822 413.79,162.295 415.486,162.58 417.093,162.483 
	418.497,162.107 419.721,161.537 420.569,160.793 420.944,160.035 421.132,159.187 420.944,158.339 420.569,157.587 
	419.818,157.024 418.872,156.649 412.754,155.328 410.584,154.48 408.992,153.166 407.956,151.372 407.664,149.495 407.859,147.707 
	408.707,146.101 409.84,144.69 411.433,143.745 413.505,143.091 415.674,142.806 417.934,143.091 420.006,143.745 421.793,144.69 
	422.544,145.163 423.017,145.635 423.579,146.198 "/>
<polygon fill="none" stroke="#0e518d" stroke-width="0.039" points="423.962,146.574 421.132,149.112 420.847,148.827 
	420.472,148.451 419.818,147.888 418.691,147.235 417.273,146.859 415.771,146.664 414.45,146.755 413.324,147.137 412.378,147.604 
	411.718,148.173 411.433,148.736 411.343,149.396 411.53,150.058 411.906,150.718 412.566,151.281 413.324,151.566 419.436,152.88 
	421.793,153.819 422.738,154.389 423.489,155.237 424.519,157.024 424.811,159.187 424.519,161.356 423.579,163.046 
	422.266,164.367 420.389,165.403 418.023,166.153 415.674,166.341 413.324,166.056 410.877,165.215 408.805,164.082 
	407.956,163.519 407.483,162.955 406.92,162.385 406.538,161.919 409.36,159.472 409.646,159.848 410.119,160.32 410.96,161.071 
	412.19,161.822 413.79,162.295 415.486,162.58 417.093,162.483 418.497,162.107 419.721,161.537 420.569,160.793 420.944,160.035 
	421.132,159.187 420.944,158.339 420.569,157.587 419.818,157.024 418.872,156.649 412.754,155.328 410.584,154.48 408.992,153.166 
	407.956,151.372 407.664,149.495 407.859,147.707 408.707,146.101 409.84,144.69 411.433,143.745 413.505,143.091 415.674,142.806 
	417.934,143.091 420.006,143.745 421.793,144.69 422.544,145.163 423.017,145.635 423.579,146.198 "/>
<polygon fill="#f7fbf5" points="445.141,152.129 442.408,155.05 442.221,154.765 442.04,154.292 441.567,153.729 440.712,153.068 
	439.676,152.595 438.452,152.505 437.229,152.693 436.103,153.263 435.352,154.104 434.78,155.05 434.413,156.364 434.309,157.678 
	434.503,159.096 434.976,160.223 435.629,161.071 436.478,161.731 437.423,162.205 438.452,162.385 439.593,162.205 
	440.712,161.822 441.47,161.162 441.936,160.598 442.221,160.223 442.408,159.848 445.044,162.768 444.766,163.143 444.292,163.707 
	443.444,164.458 442.04,165.396 440.336,166.063 438.452,166.244 436.853,166.063 435.156,165.5 433.279,164.367 431.68,162.67 
	430.547,160.417 430.269,158.999 430.164,157.678 430.456,154.952 431.388,152.595 432.903,150.808 434.6,149.584 436.478,148.833 
	438.55,148.556 440.524,148.833 442.317,149.495 443.632,150.433 444.48,151.281 444.855,151.748 "/>
<polygon fill="none" stroke="#0e518d" stroke-width="0.039" points="445.141,152.129 442.408,155.05 442.221,154.765 
	442.04,154.292 441.567,153.729 440.712,153.068 439.676,152.595 438.452,152.505 437.229,152.693 436.103,153.263 435.352,154.104 
	434.78,155.05 434.413,156.364 434.309,157.678 434.503,159.089 434.976,160.223 435.629,161.071 436.478,161.731 437.423,162.205 
	438.452,162.385 439.593,162.205 440.712,161.822 441.47,161.162 441.936,160.598 442.221,160.223 442.408,159.848 445.044,162.768 
	444.766,163.143 444.292,163.707 443.444,164.458 442.04,165.396 440.336,166.063 438.452,166.244 436.853,166.063 435.156,165.5 
	433.279,164.367 431.68,162.67 430.547,160.417 430.269,158.999 430.164,157.678 430.456,154.952 431.388,152.595 432.903,150.808 
	434.6,149.584 436.478,148.833 438.55,148.556 440.524,148.833 442.317,149.495 443.632,150.433 444.48,151.281 444.855,151.748 "/>
<polygon fill="#f7fbf5" points="452.108,143.091 456.342,143.091 456.342,151.65 456.53,151.379 456.808,151.094 457.28,150.53 
	457.948,149.96 458.699,149.487 459.45,149.112 460.298,148.924 461.146,148.833 461.897,148.924 462.746,149.021 463.685,149.307 
	464.525,149.772 465.479,150.53 466.236,151.469 466.702,152.408 466.98,153.451 467.168,154.48 467.168,155.892 467.168,166.153 
	463.024,166.153 463.024,156.739 462.94,155.793 462.746,154.952 462.559,154.195 462.183,153.541 461.71,153.068 461.049,152.783 
	460.486,152.603 459.729,152.498 458.978,152.693 458.227,152.978 457.565,153.451 457.1,154.007 456.627,154.765 456.433,155.523 
	456.342,156.267 456.342,157.212 456.342,166.153 452.108,166.153 "/>
<polygon fill="none" stroke="#0e518d" stroke-width="0.039" points="452.108,143.091 456.342,143.091 456.342,151.65 
	456.53,151.379 456.808,151.094 457.28,150.53 457.948,149.96 458.699,149.487 459.45,149.112 460.298,148.924 461.146,148.833 
	461.897,148.924 462.746,149.021 463.685,149.307 464.525,149.772 465.479,150.53 466.236,151.469 466.702,152.408 466.98,153.451 
	467.168,154.48 467.168,155.892 467.168,166.153 463.024,166.153 463.024,156.739 462.94,155.793 462.746,154.952 462.559,154.195 
	462.183,153.541 461.71,153.068 461.049,152.783 460.486,152.603 459.729,152.498 458.978,152.693 458.227,152.978 457.565,153.451 
	457.1,154.007 456.627,154.765 456.433,155.523 456.342,156.267 456.342,157.212 456.342,166.153 452.108,166.153 "/>
<path fill="#f7fbf5" d="M481.484,166.341l-1.794-0.285l-1.787-0.744l-1.696-1.418l-1.224-1.975l-0.752-2.26l-0.187-2.35l0.277-2.357
	l0.661-2.072l1.224-1.787l1.696-1.412l1.787-0.758l1.884-0.285l1.878,0.285l1.884,0.758l1.606,1.223l1.224,1.788l0.751,2.162
	l0.285,2.455l-0.285,2.447l-0.751,2.163l-1.224,1.975l-1.696,1.418l-1.878,0.744L481.484,166.341z M482.52,162.483l0.849-0.466
	l0.751-0.848l0.563-1.043l0.285-1.412v-1.501l-0.098-1.412l-0.278-1.231l-0.473-0.938l-0.667-0.751l-0.933-0.473l-0.945-0.181
	l-0.938,0.181l-0.841,0.473l-0.668,0.751l-0.473,0.938l-0.278,1.231l-0.188,1.509l0.09,1.404l0.285,1.231l0.474,1.126l0.653,0.848
	l0.849,0.563l0.945,0.187L482.52,162.483z"/>
<path fill="none" stroke="#0e518d" stroke-width="0.039" d="M481.484,166.341l-1.794-0.285l-1.787-0.744l-1.696-1.418l-1.224-1.975
	l-0.752-2.26l-0.187-2.35l0.277-2.357l0.661-2.072l1.224-1.787l1.696-1.412l1.787-0.758l1.884-0.285l1.878,0.285l1.884,0.758
	l1.606,1.223l1.224,1.788l0.751,2.162l0.285,2.455l-0.285,2.447l-0.751,2.163l-1.224,1.975l-1.696,1.418l-1.878,0.744
	L481.484,166.341z M482.52,162.483l0.849-0.466l0.751-0.848l0.563-1.043l0.285-1.412v-1.501l-0.098-1.412l-0.278-1.231l-0.473-0.938
	l-0.667-0.751l-0.933-0.473l-0.945-0.181l-0.938,0.181l-0.841,0.473l-0.668,0.751l-0.473,0.938l-0.278,1.231l-0.188,1.509
	l0.09,1.404l0.285,1.231l0.474,1.126l0.653,0.848l0.849,0.563l0.945,0.187L482.52,162.483z"/>
<path fill="#f7fbf5" d="M501.724,166.341l-1.786-0.285l-1.801-0.744l-1.689-1.418l-1.314-1.975l-0.653-2.26l-0.195-2.35l0.195-2.357
	l0.744-2.072l1.224-1.787l1.689-1.412l1.801-0.758l1.877-0.285l1.885,0.285l1.794,0.758l1.6,1.223l1.216,1.788l0.758,2.162
	l0.278,2.455l-0.188,2.447l-0.744,2.163l-1.23,1.975l-1.689,1.418l-1.892,0.744L501.724,166.341z M502.663,162.483l0.938-0.466
	l0.751-0.848l0.473-1.043l0.285-1.412l0.091-1.501l-0.091-1.412l-0.285-1.231l-0.556-0.938l-0.668-0.751l-0.849-0.473l-0.938-0.181
	l-0.938,0.181l-0.848,0.473l-0.661,0.751l-0.466,0.938l-0.382,1.231l-0.091,1.509l0.091,1.404l0.188,1.231l0.473,1.126l0.758,0.848
	l0.841,0.563l0.945,0.187L502.663,162.483z"/>
<path fill="none" stroke="#0e518d" stroke-width="0.039" d="M501.724,166.341l-1.786-0.285l-1.801-0.744l-1.689-1.418l-1.314-1.975
	l-0.653-2.26l-0.195-2.35l0.195-2.357l0.744-2.072l1.224-1.787l1.689-1.412l1.801-0.758l1.877-0.285l1.885,0.285l1.794,0.758
	l1.6,1.223l1.216,1.788l0.758,2.162l0.278,2.455l-0.188,2.447l-0.744,2.163l-1.23,1.975l-1.689,1.418l-1.892,0.744L501.724,166.341z
	 M502.663,162.483l0.938-0.466l0.751-0.848l0.473-1.043l0.285-1.412l0.091-1.501l-0.091-1.412l-0.285-1.231l-0.556-0.938
	l-0.668-0.751l-0.849-0.473l-0.938-0.181l-0.938,0.181l-0.848,0.473l-0.661,0.751l-0.466,0.938l-0.382,1.231l-0.091,1.509
	l0.091,1.404l0.188,1.231l0.473,1.126l0.758,0.848l0.841,0.563l0.945,0.187L502.663,162.483z"/>
<polygon fill="#f7fbf5" points="520.553,148.736 520.553,150.058 520.928,149.772 521.401,149.495 521.957,149.209 522.806,148.924 
	523.751,148.646 524.697,148.556 525.727,148.646 526.949,148.924 528.368,149.584 529.585,150.621 530.538,151.845 
	531.003,153.068 531.281,154.383 531.281,155.892 531.281,166.153 527.242,166.153 527.242,155.892 526.859,154.577 
	526.198,153.534 525.17,152.791 523.849,152.595 522.625,152.88 521.491,153.534 520.831,154.667 520.553,155.892 520.553,166.153 
	516.409,166.153 516.409,148.736 "/>
<polygon fill="none" stroke="#0e518d" stroke-width="0.039" points="520.553,148.736 520.553,150.058 520.928,149.772 
	521.401,149.495 521.957,149.209 522.806,148.924 523.751,148.646 524.697,148.556 525.727,148.646 526.949,148.924 
	528.361,149.584 529.585,150.621 530.538,151.845 531.003,153.068 531.281,154.383 531.281,155.892 531.281,166.153 
	527.242,166.153 527.242,155.892 526.859,154.577 526.198,153.534 525.17,152.791 523.849,152.595 522.625,152.88 521.491,153.534 
	520.831,154.667 520.553,155.892 520.553,166.153 516.409,166.153 516.409,148.736 "/>
<polygon fill="#f7fbf5" points="540.133,143.091 544.374,143.091 544.374,151.65 544.555,151.379 544.84,151.094 545.306,150.53 
	545.973,149.96 546.627,149.487 547.475,149.112 548.226,148.924 549.074,148.833 549.923,148.924 550.771,149.021 551.709,149.307 
	552.558,149.772 553.504,150.53 554.247,151.469 554.733,152.408 555.005,153.451 555.096,154.48 555.199,155.892 555.199,166.153 
	550.952,166.153 550.952,156.739 550.952,155.793 550.771,154.952 550.59,154.195 550.117,153.541 549.638,153.068 549.074,152.783 
	548.42,152.603 547.76,152.498 547.002,152.693 546.251,152.978 545.598,153.451 545.027,154.007 544.652,154.765 544.458,155.523 
	544.374,156.267 544.374,157.212 544.374,166.153 540.133,166.153 "/>
<polygon fill="none" stroke="#0e518d" stroke-width="0.039" points="540.133,143.091 544.374,143.091 544.374,151.65 
	544.555,151.379 544.84,151.094 545.306,150.53 545.973,149.96 546.627,149.487 547.475,149.112 548.226,148.924 549.074,148.833 
	549.923,148.924 550.771,149.021 551.709,149.307 552.558,149.772 553.504,150.53 554.247,151.469 554.733,152.408 555.005,153.451 
	555.096,154.48 555.199,155.892 555.199,166.153 550.952,166.153 550.952,156.739 550.952,155.793 550.771,154.952 550.59,154.195 
	550.117,153.541 549.638,153.068 549.074,152.783 548.42,152.603 547.76,152.498 547.002,152.693 546.251,152.978 545.598,153.451 
	545.027,154.007 544.652,154.765 544.458,155.523 544.374,156.267 544.374,157.212 544.374,166.153 540.133,166.153 "/>
<path fill="#f7fbf5" d="M569.509,166.341l-1.786-0.285l-1.794-0.744l-1.697-1.418l-1.321-1.975l-0.653-2.26l-0.188-2.35l0.285-2.357
	l0.653-2.072l1.224-1.787l1.697-1.412l1.794-0.758l1.877-0.285l1.877,0.285l1.892,0.758l1.599,1.223l1.127,1.788l0.848,2.162
	l0.285,2.455l-0.285,2.447l-0.75,2.163l-1.225,1.975l-1.696,1.418l-1.877,0.744L569.509,166.341z M570.545,162.483l0.849-0.466
	l0.751-0.848l0.556-1.043l0.293-1.412v-1.501l-0.099-1.412l-0.277-1.231l-0.473-0.938l-0.751-0.751l-0.849-0.473l-0.945-0.181
	l-0.938,0.181l-0.842,0.473l-0.667,0.751l-0.473,0.938l-0.376,1.231l-0.09,1.509l0.09,1.404l0.188,1.231l0.563,1.126l0.668,0.848
	l0.841,0.563l0.945,0.187L570.545,162.483z"/>
<path fill="none" stroke="#0e518d" stroke-width="0.039" d="M569.509,166.341l-1.786-0.285l-1.794-0.744l-1.697-1.418l-1.321-1.975
	l-0.653-2.26l-0.188-2.35l0.285-2.357l0.653-2.072l1.224-1.787l1.697-1.412l1.794-0.758l1.877-0.285l1.877,0.285l1.892,0.758
	l1.599,1.223l1.127,1.788l0.848,2.162l0.285,2.455l-0.285,2.447l-0.75,2.163l-1.225,1.975l-1.696,1.418l-1.877,0.744
	L569.509,166.341z M570.545,162.483l0.849-0.466l0.751-0.848l0.556-1.043l0.293-1.412v-1.501l-0.099-1.412l-0.277-1.231
	l-0.473-0.938l-0.751-0.751l-0.849-0.473l-0.945-0.181l-0.938,0.181l-0.842,0.473l-0.667,0.751l-0.473,0.938l-0.376,1.231
	l-0.09,1.509l0.09,1.404l0.188,1.231l0.563,1.126l0.668,0.848l0.841,0.563l0.945,0.187L570.545,162.483z"/>
<polygon fill="#f7fbf5" points="599.352,148.833 592.857,166.153 588.525,166.153 582.122,148.833 586.453,148.833 590.681,160.223 
	594.922,148.833 "/>
<polygon fill="none" stroke="#0e518d" stroke-width="0.039" points="599.352,148.833 592.857,166.153 588.525,166.153 
	582.122,148.833 586.453,148.833 590.681,160.223 594.922,148.833 "/>
<path fill="#f7fbf5" d="M618.557,158.436h-10.451v0.466v0.473l0.194,0.751l0.278,0.848l0.569,0.661l0.654,0.563l0.661,0.383
	l0.743,0.09h0.758l0.759-0.187l0.653-0.286l0.473-0.278l0.375-0.285l0.278-0.278l2.829,2.259l-0.382,0.369l-0.556,0.479
	l-0.946,0.654l-1.411,0.66l-1.502,0.382l-1.509,0.09l-1.696-0.285l-1.697-0.751l-1.502-1.126l-1.126-1.606l-0.758-2.26l-0.382-2.635
	l0.292-2.725l0.75-2.357l1.126-1.606l1.51-1.217l1.689-0.75l1.975-0.285l1.891,0.187l1.885,0.751l1.786,1.418l0.655,0.842
	l0.472,0.946l0.57,2.162l0.182,1.787v0.66l-0.09,0.376V158.436z M614.412,154.952l-0.092-0.472l-0.194-0.376l-0.277-0.563
	l-0.473-0.466l-0.57-0.479l-0.751-0.278l-0.752-0.09l-0.84,0.09l-0.661,0.278l-0.57,0.479l-0.376,0.466l-0.277,0.563l-0.188,0.376
	l-0.09,0.382l-0.104,0.466h6.307L614.412,154.952z"/>
<path fill="none" stroke="#0e518d" stroke-width="0.039" d="M618.557,158.436h-10.451v0.466v0.473l0.194,0.751l0.278,0.848
	l0.569,0.661l0.654,0.563l0.661,0.383l0.743,0.09h0.758l0.759-0.187l0.653-0.286l0.473-0.278l0.375-0.285l0.278-0.278l2.829,2.259
	l-0.382,0.369l-0.556,0.479l-0.946,0.654l-1.411,0.66l-1.502,0.382l-1.509,0.09l-1.696-0.285l-1.697-0.751l-1.502-1.126
	l-1.126-1.606l-0.758-2.26l-0.382-2.635l0.292-2.725l0.75-2.357l1.126-1.606l1.51-1.217l1.689-0.75l1.975-0.285l1.891,0.187
	l1.885,0.751l1.786,1.418l0.655,0.842l0.472,0.946l0.57,2.162l0.182,1.787v0.66l-0.09,0.376V158.436z M614.412,154.952l-0.092-0.472
	l-0.194-0.376l-0.277-0.563l-0.473-0.466l-0.57-0.479l-0.751-0.278l-0.752-0.09l-0.84,0.09l-0.661,0.278l-0.57,0.479l-0.376,0.466
	l-0.277,0.563l-0.188,0.376l-0.09,0.382l-0.104,0.466h6.307L614.412,154.952z"/>
<polygon fill="#f7fbf5" points="630.042,148.736 630.042,150.058 630.418,149.772 630.89,149.495 631.453,149.209 632.302,148.924 
	633.247,148.646 634.186,148.556 635.223,148.646 636.446,148.924 637.864,149.584 639.073,150.621 640.02,151.845 640.492,153.068 
	640.68,154.383 640.77,155.892 640.77,166.153 636.633,166.153 636.633,155.892 636.349,154.577 635.688,153.534 634.652,152.791 
	633.338,152.595 632.113,152.88 630.981,153.534 630.326,154.667 630.042,155.892 630.042,166.153 625.897,166.153 625.897,148.736 
	"/>
<polygon fill="none" stroke="#0e518d" stroke-width="0.039" points="630.042,148.736 630.042,150.058 630.418,149.772 
	630.89,149.495 631.453,149.209 632.302,148.924 633.247,148.646 634.186,148.556 635.223,148.646 636.446,148.924 637.864,149.584 
	639.073,150.621 640.02,151.845 640.492,153.068 640.68,154.383 640.77,155.892 640.77,166.153 636.633,166.153 636.633,155.892 
	636.349,154.577 635.688,153.534 634.652,152.791 633.338,152.595 632.113,152.88 630.981,153.534 630.326,154.667 630.042,155.892 
	630.042,166.153 625.897,166.153 625.897,148.736 "/>
<polygon fill="#f7fbf5" points="412.003,302.759 410.209,302.377 408.805,301.438 407.762,299.93 407.483,298.233 407.483,268.578 
	407.762,266.889 408.805,265.387 410.209,264.434 411.906,264.059 484.592,264.059 486.281,264.434 487.784,265.387 
	488.736,266.889 489.014,268.578 489.014,298.233 488.736,299.93 487.784,301.438 486.281,302.377 484.592,302.759 "/>
<polygon fill="#c1121c" points="411.906,300.777 410.967,300.59 410.126,300.027 409.556,299.178 409.368,298.24 409.368,268.585 
	409.556,267.64 410.126,266.798 410.967,266.228 411.906,266.04 484.592,266.04 485.523,266.228 486.372,266.798 486.942,267.64 
	487.13,268.585 487.13,298.24 486.942,299.178 486.372,300.027 485.523,300.59 484.592,300.777 "/>
<polygon fill="#f7fbf5" points="479.502,273.668 479.502,276.866 479.127,277.249 478.563,277.812 478.098,278.375 477.528,279.224 
	476.109,281.385 474.886,283.833 473.954,286.469 473.287,289.291 473.105,290.613 473.008,291.647 473.008,292.31 473.008,292.684 
	473.008,293.15 469.81,293.15 469.81,292.594 469.81,292.212 469.81,291.647 469.894,290.703 469.99,289.576 470.464,287.038 
	471.313,284.306 472.258,281.852 473.384,279.779 473.856,278.841 474.33,278.278 474.886,277.429 475.269,276.866 463.872,276.866 
	463.872,273.668 "/>
<polygon fill="none" stroke="#c1121c" stroke-width="0.055" points="479.502,273.668 479.502,276.866 479.127,277.249 
	478.563,277.812 478.098,278.375 477.528,279.224 476.109,281.385 474.886,283.833 473.954,286.469 473.287,289.291 
	473.105,290.613 473.008,291.647 473.008,292.31 473.008,292.684 473.008,293.15 469.81,293.15 469.81,292.594 469.81,292.212 
	469.81,291.647 469.894,290.703 469.99,289.576 470.464,287.038 471.313,284.306 472.258,281.852 473.384,279.779 473.856,278.841 
	474.33,278.278 474.886,277.429 475.269,276.866 463.872,276.866 463.872,273.668 "/>
<polygon fill="#f7fbf5" points="459.826,289.952 459.826,293.157 444.195,293.157 444.195,292.399 444.292,291.558 444.383,290.8 
	444.668,289.861 445.419,287.978 446.268,286.566 447.304,285.245 448.715,283.931 450.224,282.985 451.732,282.325 
	453.332,281.858 454.277,281.573 454.931,281.385 455.501,281.198 455.967,280.815 456.35,280.35 456.627,279.787 456.627,279.224 
	456.53,278.563 456.252,278 455.682,277.429 454.833,276.957 453.519,276.678 452.011,276.581 450.689,276.678 449.375,276.957 
	448.151,277.429 447.213,278 446.74,278.375 446.268,278.744 444.195,276.394 444.668,276.018 445.141,275.643 446.364,274.885 
	447.964,274.134 449.841,273.661 451.913,273.48 453.895,273.57 455.779,274.043 457.56,274.885 458.887,276.115 459.54,277.624 
	459.826,279.126 459.735,280.447 459.353,281.573 458.699,282.609 457.948,283.36 456.815,284.021 455.501,284.494 454.082,284.96 
	452.671,285.342 451.732,285.717 450.786,286.281 449.841,287.219 448.91,288.165 448.437,288.923 448.248,289.486 448.062,289.952 
	"/>
<polygon fill="none" stroke="#c1121c" stroke-width="0.055" points="459.826,289.952 459.826,293.157 444.195,293.157 
	444.195,292.399 444.292,291.558 444.383,290.8 444.668,289.861 445.419,287.978 446.268,286.566 447.304,285.245 448.715,283.931 
	450.224,282.985 451.732,282.325 453.332,281.858 454.277,281.573 454.931,281.385 455.501,281.198 455.967,280.815 456.35,280.35 
	456.627,279.787 456.627,279.224 456.53,278.563 456.252,278 455.682,277.429 454.833,276.957 453.519,276.678 452.011,276.581 
	450.689,276.678 449.375,276.957 448.151,277.429 447.213,278 446.74,278.375 446.268,278.744 444.195,276.394 444.668,276.018 
	445.141,275.643 446.364,274.885 447.964,274.134 449.841,273.661 451.913,273.48 453.895,273.57 455.779,274.043 457.56,274.885 
	458.887,276.115 459.54,277.624 459.826,279.126 459.735,280.447 459.353,281.573 458.699,282.609 457.948,283.36 456.815,284.021 
	455.501,284.494 454.082,284.96 452.671,285.342 451.732,285.717 450.786,286.281 449.841,287.219 448.91,288.165 448.437,288.923 
	448.248,289.486 448.062,289.952 "/>
<path fill="#f7fbf5" d="M426.883,278.187l2.913,6.967h-5.932L426.883,278.187z M425.276,273.668l-8.197,19.482h3.393l1.975-4.797
	h8.664l1.988,4.797h3.477l-8.191-19.482H425.276z"/>
<path fill="none" stroke="#c1121c" stroke-width="0.055" d="M426.883,278.187l2.913,6.967h-5.932L426.883,278.187z M425.276,273.668
	l-8.197,19.482h3.393l1.975-4.797h8.664l1.975,4.797h3.49l-8.191-19.482H425.276z"/>
</svg>
