<?xml version="1.0" encoding="utf-8"?>
<!-- Generator: Adobe Illustrator 14.0.0, SVG Export Plug-In . SVG Version: 6.00 Build 43363)  -->
<!DOCTYPE svg PUBLIC "-//W3C//DTD SVG 1.1//EN" "http://www.w3.org/Graphics/SVG/1.1/DTD/svg11.dtd">
<svg version="1.1" id="Layer_1" xmlns="http://www.w3.org/2000/svg" xmlns:xlink="http://www.w3.org/1999/xlink" x="0px" y="0px"
	 width="452.526px" height="459.389px" viewBox="0 0 452.526 459.389" enable-background="new 0 0 452.526 459.389"
	 xml:space="preserve">
<polygon fill="#0e518d" points="-0.047,0 -0.047,229.7 -0.047,459.389 226.243,459.389 452.526,459.389 452.526,0 "/>
<path fill="#f7fbf5" d="M24.077,455.382l-3.854-0.291l-3.703-1.18l-3.541-1.927l-3.107-2.502l-2.523-2.967l-1.765-3.541l-1.19-3.704
	l-0.444-3.995V24.113l0.444-3.995l1.19-3.703l1.765-3.541l2.523-2.967l3.107-2.501l3.541-1.927l3.703-1.18l3.854-0.303h404.347
	l3.854,0.303l3.682,1.18l3.552,1.927l3.118,2.501l2.512,2.967l1.776,3.541l1.17,3.703l0.454,3.995v411.162l-0.454,3.995l-1.17,3.704
	l-1.776,3.541l-2.512,2.967l-3.118,2.502l-3.552,1.927l-3.682,1.18l-3.854,0.291H24.077z M428.424,451.398l3.118-0.303l2.945-0.888
	l2.815-1.474l2.512-2.067l1.928-2.37l1.473-2.816l0.888-3.098l0.303-3.107V24.113l-0.303-3.108l-0.888-3.107l-1.473-2.815
	l-1.928-2.36l-2.512-2.068l-2.815-1.473l-2.945-0.888l-3.118-0.303H24.077l-3.118,0.303l-2.956,0.888l-2.815,1.473l-2.512,2.068
	l-1.917,2.36l-1.473,2.815l-0.888,3.107l-0.303,3.108v411.162l0.303,3.107l0.888,3.098l1.473,2.816l1.917,2.37l2.512,2.067
	l2.815,1.474l2.956,0.888l3.118,0.303H428.424z"/>
<polygon fill="none" stroke="#2a2d2f" stroke-width="0.04" points="220.038,311.038 212.643,303.502 209.979,306.166 
	207.315,308.818 212.643,314.146 212.643,335.746 207.315,341.063 209.979,343.727 212.643,346.391 220.038,338.844 
	220.038,324.941 "/>
<polygon fill="none" stroke="#2a2d2f" stroke-width="0.04" points="237.335,311.038 244.872,303.502 247.535,306.166 
	250.048,308.818 244.742,314.146 244.742,335.746 250.048,341.063 247.535,343.727 244.872,346.391 237.335,338.844 "/>
<polygon fill="none" stroke="#2a2d2f" stroke-width="0.04" points="166.051,197.011 164.719,196.859 163.539,195.982 
	162.803,194.932 162.5,193.459 162.5,152.347 162.803,151.004 163.539,149.834 164.719,149.087 166.051,148.784 291.323,148.784 
	292.795,149.087 293.834,149.834 294.723,151.004 295.026,152.347 295.026,193.459 294.723,194.932 293.834,195.982 
	292.795,196.859 291.323,197.011 "/>
<polygon fill="#f7fbf5" points="39.302,318.726 36.778,318.281 34.862,316.961 33.53,315.033 33.086,312.662 33.086,271.701 
	33.53,269.34 34.862,267.402 36.778,265.93 39.302,265.485 127.45,265.485 129.821,265.93 131.738,267.402 133.07,269.34 
	133.514,271.701 133.514,312.662 133.07,315.033 131.738,316.961 129.821,318.281 127.45,318.726 "/>
<path fill="#f7fbf5" d="M121.679,106.35h3.703h1.332l1.169,0.281l1.332,0.444l1.495,0.747l1.472,1.332l1.18,1.624l0.748,2.079
	l0.141,2.36l-0.292,2.512l-0.736,2.079l-1.19,1.776l-1.473,1.332l-1.624,0.876l-1.483,0.293l-1.18,0.151l-1.04,0.152h-3.552V106.35z
	 M117.24,128.677h8.142h1.473l1.635-0.303l2.22-0.584l2.36-1.332l2.209-1.917l1.786-2.674l1.18-2.945l0.444-3.552l-0.444-3.552
	l-1.028-3.107l-1.938-2.512l-2.058-1.927l-2.23-1.333l-1.917-0.584l-1.917-0.443h-1.776h-8.142V128.677z"/>
<path fill="none" stroke="#0e518d" stroke-width="0.039" d="M121.679,106.35h3.703h1.332l1.169,0.281l1.332,0.444l1.495,0.747
	l1.472,1.332l1.18,1.624l0.748,2.079l0.141,2.36l-0.292,2.512l-0.736,2.079l-1.19,1.776l-1.473,1.332l-1.624,0.876l-1.483,0.293
	l-1.18,0.151l-1.04,0.152h-3.552V106.35z M117.24,128.677h8.142h1.473l1.635-0.303l2.22-0.584l2.36-1.332l2.209-1.917l1.786-2.674
	l1.18-2.945l0.444-3.552l-0.444-3.552l-1.028-3.107l-1.938-2.512l-2.058-1.927l-2.23-1.333l-1.917-0.584l-1.917-0.443h-1.776h-8.142
	V128.677z"/>
<polygon fill="#f7fbf5" points="152.44,108.559 152.44,110.194 152.885,109.891 153.188,109.599 153.924,109.154 154.801,108.71 
	155.852,108.418 157.032,108.267 157.909,108.418 158.807,108.559 159.544,108.862 159.987,109.003 160.431,109.306 
	160.724,109.446 159.251,114.633 159.1,114.33 158.807,114.027 158.363,113.594 157.768,113.301 157.032,113.15 156.295,113.15 
	155.548,113.301 154.66,113.594 153.773,114.189 153.036,115.066 152.592,116.105 152.44,117.286 152.44,128.677 147.709,128.677 
	147.709,108.559 "/>
<polygon fill="none" stroke="#0e518d" stroke-width="0.039" points="152.44,108.559 152.44,110.194 152.885,109.891 
	153.188,109.599 153.924,109.154 154.801,108.71 155.852,108.418 157.032,108.267 157.909,108.418 158.807,108.559 159.544,108.862 
	159.987,109.003 160.431,109.306 160.724,109.446 159.251,114.633 159.1,114.33 158.807,114.027 158.363,113.594 157.768,113.301 
	157.032,113.15 156.295,113.15 155.548,113.301 154.66,113.594 153.773,114.189 153.036,115.066 152.592,116.105 152.44,117.286 
	152.44,128.677 147.709,128.677 147.709,108.559 "/>
<rect x="167.231" y="108.569" fill="#f7fbf5" width="4.732" height="20.107"/>
<rect x="167.231" y="108.559" fill="none" stroke="#0e518d" stroke-width="0.039" width="4.742" height="20.118"/>
<polygon fill="#f7fbf5" points="169.743,107.086 168.715,106.784 167.979,106.199 167.383,105.451 167.231,104.422 167.383,103.535 
	167.979,102.647 168.715,102.062 169.743,101.911 170.783,102.062 171.519,102.647 172.115,103.535 172.267,104.563 
	172.115,105.451 171.519,106.339 170.631,106.784 "/>
<polygon fill="none" stroke="#0e518d" stroke-width="0.039" points="169.743,107.086 168.715,106.784 167.979,106.199 
	167.383,105.451 167.231,104.422 167.383,103.535 167.979,102.647 168.715,102.062 169.743,101.911 170.783,102.062 
	171.519,102.647 172.115,103.535 172.267,104.563 172.115,105.451 171.519,106.339 170.631,106.784 "/>
<path fill="#f7fbf5" d="M197.408,119.657H185.13l0.141,0.596v0.584l0.162,0.888l0.444,0.888l0.585,0.888l0.736,0.585l0.888,0.444
	l0.748,0.163h0.887l0.888-0.303l0.888-0.303l0.444-0.282l0.444-0.303l0.281-0.303l3.259,2.523l-0.444,0.444l-0.595,0.585
	l-1.17,0.748l-1.635,0.887l-1.635,0.292l-1.765,0.151l-2.079-0.292l-1.916-0.898l-1.776-1.332l-1.332-1.917l-0.888-2.512
	l-0.444-3.107l0.303-3.249l1.029-2.674l1.332-1.917l1.635-1.331l2.057-0.888l2.231-0.443l2.219,0.302l2.22,0.888l2.068,1.614
	l1.321,2.079l0.595,2.512l0.152,2.08v1.321V119.657z M192.525,115.662v-0.444l-0.303-0.584l-0.282-0.596l-0.606-0.595l-0.585-0.444
	l-0.888-0.443l-0.887-0.142l-1.04,0.142l-0.737,0.443l-0.595,0.444l-0.444,0.595l-0.444,0.596l-0.141,0.584l-0.141,0.444
	l-0.162,0.444h7.395L192.525,115.662z"/>
<path fill="none" stroke="#0e518d" stroke-width="0.039" d="M197.408,119.657H185.13l0.141,0.596v0.584l0.162,0.888l0.444,0.888
	l0.585,0.888l0.736,0.585l0.888,0.444l0.748,0.163h0.887l0.888-0.303l0.888-0.303l0.444-0.282l0.444-0.303l0.281-0.303l3.259,2.523
	l-0.444,0.444l-0.595,0.585l-1.17,0.748l-1.635,0.887l-1.635,0.292l-1.765,0.151l-2.079-0.292l-1.916-0.898l-1.776-1.332
	l-1.332-1.917l-0.888-2.512l-0.444-3.107l0.303-3.249l1.029-2.674l1.332-1.917l1.635-1.331l2.057-0.888l2.231-0.443l2.219,0.302
	l2.22,0.888l2.058,1.614l1.332,2.079l0.595,2.512l0.152,2.08v1.321V119.657z M192.525,115.662v-0.444l-0.303-0.584l-0.282-0.596
	l-0.606-0.595l-0.585-0.444l-0.888-0.443l-0.887-0.142l-1.04,0.142l-0.737,0.443l-0.595,0.444l-0.444,0.595l-0.444,0.596
	l-0.141,0.584l-0.141,0.444l-0.162,0.444h7.395L192.525,115.662z"/>
<path fill="#f7fbf5" d="M210.716,101.023v8.879l0.444-0.303l0.747-0.444l1.333-0.444l1.916-0.292l1.928,0.141l1.775,0.747
	l1.614,1.472l1.494,2.068l1.029,2.815l0.292,3.108l-0.292,2.967l-0.888,2.501l-1.332,2.068l-1.635,1.495l-1.917,0.887l-1.775,0.282
	l-1.928-0.282l-1.473-0.606l-0.748-0.444l-0.443-0.282v1.332h-4.873v-25.889L210.716,101.023z M210.716,122.765l0.303,0.292
	l0.443,0.444l1.029,0.444l1.332,0.292l1.18-0.141l1.04-0.443l1.04-0.888l0.888-1.191l0.443-1.332l0.141-1.473l-0.141-1.625
	l-0.443-1.483l-0.748-1.18l-1.04-0.887l-1.18-0.444l-1.18-0.141l-1.332,0.282l-0.888,0.443l-0.443,0.444l-0.444,0.444V122.765z"/>
<path fill="none" stroke="#0e518d" stroke-width="0.039" d="M210.716,101.023v8.868l0.444-0.292l0.747-0.444l1.333-0.444
	l1.916-0.292l1.928,0.141l1.775,0.747l1.614,1.472l1.494,2.068l1.029,2.815l0.292,3.108l-0.292,2.967l-0.888,2.501l-1.332,2.068
	l-1.635,1.495l-1.917,0.887l-1.775,0.282l-1.928-0.282l-1.473-0.606l-0.748-0.444l-0.443-0.282v1.332h-4.873v-25.889
	L210.716,101.023z M210.716,122.765l0.303,0.292l0.443,0.444l1.029,0.444l1.332,0.292l1.18-0.141l1.04-0.443l1.04-0.888l0.888-1.191
	l0.443-1.332l0.141-1.473l-0.141-1.625l-0.443-1.483l-0.748-1.18l-1.04-0.887l-1.18-0.444l-1.18-0.141l-1.332,0.282l-0.888,0.443
	l-0.443,0.444l-0.444,0.444V122.765z"/>
<path fill="#f7fbf5" d="M246.214,119.657h-12.132v0.596v0.584l0.14,0.888l0.444,0.888l0.612,0.888l0.736,0.585l0.866,0.444
	l0.758,0.163h0.888l0.887-0.303l0.888-0.303l0.433-0.282l0.434-0.303l0.455-0.303l3.27,2.523l-0.455,0.444l-0.737,0.585l-1.04,0.748
	l-1.624,0.887l-1.775,0.292l-1.776,0.151l-1.927-0.292l-2.063-0.898l-1.636-1.332l-1.331-1.917l-1.029-2.512l-0.292-3.107
	l0.292-3.249l0.888-2.674l1.332-1.917l1.624-1.331l2.063-0.888l2.23-0.443l2.209,0.302l2.209,0.888l2.079,1.614l1.343,2.079
	l0.584,2.512l0.303,2.08v1.321L246.214,119.657z M241.472,115.662l-0.13-0.444l-0.303-0.584l-0.303-0.596l-0.433-0.595l-0.736-0.444
	l-0.888-0.443l-0.888-0.142l-0.909,0.142l-0.866,0.443l-0.606,0.444l-0.433,0.595l-0.309,0.596l-0.282,0.584l-0.163,0.444v0.444
	h7.25V115.662z"/>
<path fill="none" stroke="#0e518d" stroke-width="0.039" d="M246.214,119.657h-12.132v0.596v0.584l0.14,0.888l0.444,0.888
	l0.612,0.888l0.736,0.585l0.866,0.444l0.758,0.163h0.888l0.887-0.303l0.888-0.303l0.433-0.282l0.434-0.303l0.455-0.303l3.27,2.523
	l-0.455,0.444l-0.737,0.585l-1.04,0.748l-1.624,0.887l-1.775,0.292l-1.776,0.151l-1.927-0.292l-2.063-0.898l-1.636-1.332
	l-1.331-1.917l-1.029-2.512l-0.292-3.107l0.292-3.249l0.888-2.674l1.332-1.917l1.624-1.331l2.063-0.888l2.23-0.443l2.209,0.302
	l2.209,0.888l2.079,1.614l1.343,2.079l0.584,2.512l0.303,2.08v1.321L246.214,119.657z M241.472,115.662l-0.13-0.444l-0.303-0.584
	l-0.303-0.596l-0.433-0.595l-0.736-0.444l-0.888-0.443l-0.888-0.142l-0.909,0.142l-0.866,0.443l-0.606,0.444l-0.433,0.595
	l-0.309,0.596l-0.282,0.584l-0.163,0.444v0.444h7.25V115.662z"/>
<polygon fill="#f7fbf5" points="259.532,108.559 259.532,110.194 259.966,109.891 260.269,109.599 261.005,109.154 261.894,108.71 
	262.933,108.418 264.124,108.267 265.011,108.418 265.878,108.559 266.614,108.862 267.068,109.003 267.502,109.306 
	267.805,109.446 266.333,114.633 266.181,114.33 265.878,114.027 265.444,113.594 264.838,113.301 264.124,113.15 263.366,113.15 
	262.478,113.301 261.741,113.594 260.702,114.189 260.117,115.066 259.663,116.105 259.532,117.286 259.532,128.677 254.79,128.677 
	254.79,108.559 "/>
<polygon fill="none" stroke="#0e518d" stroke-width="0.039" points="259.532,108.559 259.532,110.194 259.966,109.891 
	260.269,109.599 261.005,109.154 261.894,108.71 262.933,108.418 264.124,108.267 265.011,108.418 265.878,108.559 266.614,108.862 
	267.068,109.003 267.502,109.306 267.805,109.446 266.333,114.633 266.181,114.33 265.878,114.027 265.444,113.594 264.838,113.301 
	264.124,113.15 263.366,113.15 262.478,113.301 261.741,113.594 260.702,114.189 260.117,115.066 259.663,116.105 259.532,117.286 
	259.532,128.677 254.79,128.677 254.79,108.559 "/>
<path fill="#f7fbf5" d="M289.244,108.71v19.966l-0.281,2.371l-0.759,2.22l-1.169,1.775l-1.495,1.473l-1.775,1.332l-1.603,0.595
	l-0.888,0.292l-0.455,0.151l-2.057-4.591h0.584l0.584-0.141l0.888-0.162l1.191-0.726l1.04-0.888l0.887-1.191l0.434-1.18l0.151-1.332
	v-1.18l-0.455,0.292l-0.585,0.303l-0.736,0.281l-0.888,0.455l-1.04,0.141l-0.888,0.152l-1.169-0.152l-1.342-0.292l-1.322-0.736
	l-1.342-1.181l-1.04-1.332l-0.888-1.928l-0.585-2.219l-0.303-2.36l0.151-2.372l0.585-2.372l1.04-1.916l1.04-1.484l1.342-1.18
	l1.473-0.596l1.321-0.444h1.191l1.19,0.151l1.018,0.152l0.759,0.292l0.584,0.292l0.434,0.303l0.455,0.282v-1.321H289.244z
	 M284.523,114.622l-0.303-0.141l-0.282-0.303l-0.606-0.292l-0.584-0.444l-0.736-0.141l-0.737-0.151l-1.039,0.151l-0.888,0.293
	l-0.758,0.443l-0.714,0.737l-0.607,0.887l-0.281,1.04l-0.303,1.169v1.191l0.13,1.191l0.304,1.029l0.454,1.039l0.585,0.736
	l0.736,0.596l0.888,0.443l0.736,0.292h0.758l0.737-0.152l0.736-0.141l0.736-0.443l0.455-0.304l0.282-0.141l0.303-0.444V114.622z"/>
<path fill="none" stroke="#0e518d" stroke-width="0.039" d="M289.244,108.71v19.966l-0.281,2.371l-0.759,2.22l-1.169,1.775
	l-1.495,1.473l-1.775,1.332l-1.603,0.595l-0.888,0.292l-0.455,0.151l-2.057-4.591h0.584l0.584-0.141l0.888-0.162l1.191-0.726
	l1.04-0.888l0.887-1.191l0.434-1.18l0.151-1.332v-1.18l-0.455,0.292l-0.585,0.303l-0.736,0.281l-0.888,0.455l-1.04,0.141
	l-0.888,0.152l-1.169-0.152l-1.342-0.292l-1.322-0.736l-1.342-1.181l-1.04-1.332l-0.888-1.928l-0.585-2.219l-0.303-2.36l0.151-2.372
	l0.585-2.372l1.04-1.916l1.04-1.484l1.342-1.18l1.473-0.596l1.321-0.444h1.191l1.19,0.151l1.018,0.152l0.759,0.292l0.584,0.292
	l0.434,0.303l0.455,0.282v-1.321H289.244z M284.523,114.622l-0.303-0.141l-0.282-0.303l-0.606-0.292l-0.584-0.444l-0.736-0.141
	l-0.737-0.151l-1.039,0.151l-0.888,0.293l-0.758,0.443l-0.714,0.737l-0.607,0.887l-0.281,1.04l-0.303,1.169v1.191l0.13,1.191
	l0.304,1.029l0.454,1.039l0.585,0.736l0.736,0.596l0.888,0.443l0.736,0.292h0.758l0.737-0.152l0.736-0.141l0.736-0.443l0.455-0.304
	l0.282-0.141l0.303-0.444V114.622z"/>
<path fill="#f7fbf5" d="M314.256,119.657h-12.149v0.596v0.584l0.174,0.888l0.433,0.888l0.585,0.888l0.758,0.585l0.866,0.444
	l0.91,0.163h0.715l0.888-0.303l0.758-0.303l0.585-0.282l0.433-0.303l0.303-0.303l3.27,2.523l-0.456,0.444l-0.433,0.585l-1.191,0.748
	l-1.775,0.887l-1.624,0.292l-1.776,0.151l-2.079-0.292l-1.927-0.898l-1.625-1.332l-1.473-1.917l-0.888-2.512l-0.303-3.107
	l0.303-3.249l0.888-2.674l1.321-1.917l1.624-1.331l2.08-0.888l2.208-0.443l2.23,0.302l2.209,0.888l2.079,1.614l1.321,2.079
	l0.606,2.512l0.282,2.08l-0.13,1.321V119.657z M309.514,115.662l-0.152-0.444l-0.281-0.584l-0.303-0.596l-0.585-0.595l-0.606-0.444
	l-0.888-0.443l-0.866-0.142l-0.91,0.142l-0.866,0.443l-0.606,0.444l-0.455,0.595l-0.433,0.596l-0.152,0.584l-0.129,0.444
	l-0.174,0.444h7.407V115.662z"/>
<path fill="none" stroke="#0e518d" stroke-width="0.039" d="M314.256,119.657h-12.149v0.596v0.584l0.174,0.888l0.433,0.888
	l0.585,0.888l0.758,0.585l0.866,0.444l0.91,0.163h0.715l0.888-0.303l0.758-0.303l0.585-0.282l0.433-0.303l0.303-0.303l3.27,2.523
	l-0.456,0.444l-0.433,0.585l-1.191,0.748l-1.775,0.887l-1.624,0.292l-1.776,0.151l-2.079-0.292l-1.927-0.898l-1.625-1.332
	l-1.473-1.917l-0.888-2.512l-0.303-3.107l0.303-3.249l0.888-2.674l1.321-1.917l1.624-1.331l2.08-0.888l2.208-0.443l2.23,0.302
	l2.209,0.888l2.079,1.614l1.321,2.079l0.606,2.512l0.282,2.08l-0.13,1.321V119.657z M309.514,115.662l-0.152-0.444l-0.281-0.584
	l-0.303-0.596l-0.585-0.595l-0.606-0.444l-0.888-0.443l-0.866-0.142l-0.91,0.142l-0.866,0.443l-0.606,0.444l-0.455,0.595
	l-0.433,0.596l-0.152,0.584l-0.129,0.444l-0.174,0.444h7.407V115.662z"/>
<polygon fill="#f7fbf5" points="327.553,108.418 327.553,110.042 328.137,109.599 328.592,109.306 329.328,109.003 330.216,108.559 
	331.407,108.418 332.446,108.267 333.767,108.267 335.088,108.71 336.734,109.446 338.207,110.638 339.247,112.111 339.831,113.453 
	340.135,114.926 340.135,116.701 340.135,128.677 335.392,128.677 335.392,116.701 335.088,115.229 334.201,114.038 333.031,113.15 
	331.559,112.847 330.064,113.15 328.743,114.038 328.007,115.37 327.553,116.843 327.553,128.677 322.832,128.677 322.832,108.418 
	"/>
<polygon fill="none" stroke="#0e518d" stroke-width="0.039" points="327.553,108.418 327.553,110.042 328.137,109.599 
	328.592,109.306 329.328,109.003 330.216,108.559 331.407,108.418 332.446,108.267 333.767,108.267 335.088,108.71 336.734,109.446 
	338.207,110.638 339.247,112.111 339.831,113.453 340.135,114.926 340.135,116.701 340.135,128.677 335.392,128.677 
	335.392,116.701 335.088,115.229 334.201,114.038 333.031,113.15 331.559,112.847 330.064,113.15 328.743,114.038 328.007,115.37 
	327.553,116.843 327.553,128.677 322.832,128.677 322.832,108.418 "/>
<polygon fill="#f7fbf5" points="282.444,404.514 282.444,420.929 281.708,424.925 279.347,428.324 275.947,430.685 273.869,431.433 
	271.66,431.572 269.429,431.433 267.35,430.685 263.95,428.476 261.894,424.925 261.005,420.777 261.005,404.514 265.444,404.514 
	265.444,420.777 265.878,423.148 267.221,425.228 269.126,426.56 271.66,427.144 274.172,426.7 276.229,425.368 277.724,423.289 
	278.156,420.777 278.156,404.514 "/>
<polygon fill="none" stroke="#0e518d" stroke-width="0.039" points="282.444,404.514 282.444,420.929 281.708,424.925 
	279.347,428.324 275.947,430.685 273.869,431.433 271.66,431.572 269.429,431.433 267.35,430.685 263.95,428.476 261.894,424.925 
	261.005,420.777 261.005,404.514 265.444,404.514 265.444,420.777 265.878,423.148 267.221,425.228 269.126,426.56 271.66,427.144 
	274.172,426.7 276.229,425.368 277.724,423.289 278.156,420.777 278.156,404.514 "/>
<polygon fill="#f7fbf5" points="298.859,404.514 298.859,411.162 303.753,411.162 303.753,415.754 298.859,415.754 298.859,425.065 
	298.859,425.509 298.859,425.952 299.163,426.396 299.617,426.7 300.05,426.992 300.635,426.992 301.22,426.992 301.826,426.841 
	302.41,426.7 302.995,426.256 303.45,425.952 303.905,425.672 302.995,430.544 302.562,430.836 302.128,430.988 301.371,431.279 
	300.635,431.433 299.898,431.572 299.01,431.572 298.123,431.433 297.235,431.279 296.498,430.836 295.611,430.252 294.875,429.363 
	294.419,428.324 294.138,427.285 293.986,426.115 293.986,415.754 290.435,415.754 290.435,411.162 293.986,411.162 293.986,406.29 
	"/>
<polygon fill="none" stroke="#0e518d" stroke-width="0.039" points="298.859,404.514 298.859,411.162 303.753,411.162 
	303.753,415.754 298.859,415.754 298.859,425.065 298.859,425.509 298.859,425.952 299.163,426.396 299.617,426.7 300.05,426.992 
	300.635,426.992 301.22,426.992 301.826,426.841 302.41,426.7 302.995,426.256 303.45,425.952 303.905,425.672 302.995,430.544 
	302.562,430.836 302.128,430.988 301.371,431.279 300.635,431.433 299.898,431.572 299.01,431.572 298.123,431.433 297.235,431.279 
	296.498,430.836 295.611,430.252 294.875,429.363 294.419,428.324 294.138,427.285 293.986,426.115 293.986,415.754 
	290.435,415.754 290.435,411.162 293.986,411.162 293.986,406.29 "/>
<polygon fill="#f7fbf5" points="317.201,411.021 317.201,412.797 317.504,412.494 317.959,412.202 318.674,411.758 319.562,411.173 
	320.602,410.87 321.792,410.87 322.68,410.87 323.568,411.173 324.304,411.466 324.737,411.605 325.192,411.909 325.495,412.05 
	324.001,417.085 323.849,416.944 323.568,416.641 323.135,416.197 322.528,415.894 321.792,415.754 320.904,415.754 
	320.168,415.754 319.28,416.197 318.393,416.781 317.786,417.67 317.353,418.709 317.201,419.89 317.201,431.291 312.48,431.291 
	312.48,411.021 "/>
<polygon fill="none" stroke="#0e518d" stroke-width="0.039" points="317.201,411.021 317.201,412.797 317.504,412.494 
	317.959,412.202 318.674,411.758 319.562,411.173 320.602,410.87 321.792,410.87 322.68,410.87 323.568,411.173 324.304,411.466 
	324.737,411.605 325.192,411.909 325.495,412.05 324.001,417.085 323.849,416.944 323.568,416.641 323.135,416.197 322.528,415.894 
	321.792,415.754 320.904,415.754 320.168,415.754 319.28,416.197 318.393,416.781 317.786,417.67 317.353,418.709 317.201,419.89 
	317.201,431.291 312.48,431.291 312.48,411.021 "/>
<path fill="#f7fbf5" d="M346.783,422.261h-12.279v0.596v0.585l0.304,0.888l0.281,0.888l0.606,0.747l0.737,0.726l0.887,0.444
	l0.888,0.162h0.888l0.887-0.304l0.737-0.303l0.433-0.281l0.455-0.304l0.455-0.304l3.248,2.523l-0.455,0.444l-0.584,0.584
	l-1.191,0.748l-1.624,0.735l-1.776,0.597h-1.775l-1.927-0.293l-2.057-0.888l-1.625-1.343l-1.342-1.917l-1.018-2.512l-0.303-3.248
	l0.303-3.108l0.888-2.674l1.321-1.917l1.624-1.331l2.08-1.029l2.36-0.303l2.231,0.303l2.057,0.726l2.079,1.635l1.321,2.221
	l0.736,2.511l0.152,2.079v1.181V422.261z M341.91,418.265l-0.151-0.443l-0.152-0.584l-0.455-0.597l-0.433-0.595l-0.737-0.444
	l-0.887-0.444l-0.888-0.151l-0.888,0.151l-0.887,0.293l-0.585,0.596l-0.455,0.595l-0.303,0.597l-0.281,0.443l-0.152,0.443v0.585
	h7.406L341.91,418.265z"/>
<path fill="none" stroke="#0e518d" stroke-width="0.039" d="M346.783,422.261h-12.279v0.596v0.585l0.304,0.888l0.281,0.888
	l0.606,0.747l0.737,0.726l0.887,0.444l0.888,0.162h0.888l0.887-0.304l0.737-0.303l0.433-0.281l0.455-0.304l0.455-0.304l3.248,2.523
	l-0.455,0.444l-0.584,0.584l-1.191,0.748l-1.624,0.735l-1.776,0.597h-1.775l-1.927-0.293l-2.057-0.888l-1.625-1.343l-1.342-1.917
	l-1.018-2.512l-0.303-3.248l0.303-3.108l0.888-2.674l1.321-1.917l1.624-1.331l2.08-1.029l2.36-0.303l2.231,0.303l2.057,0.726
	l2.079,1.635l1.321,2.221l0.736,2.511l0.152,2.079v1.181V422.261z M341.91,418.265l-0.151-0.443l-0.152-0.584l-0.455-0.597
	l-0.433-0.595l-0.737-0.444l-0.887-0.444l-0.888-0.151l-0.888,0.151l-0.887,0.293l-0.585,0.596l-0.455,0.595l-0.303,0.597
	l-0.281,0.443l-0.152,0.443v0.585h7.406L341.91,418.265z"/>
<polygon fill="#f7fbf5" points="370.452,415.017 367.333,418.417 367.052,417.973 366.749,417.529 366.165,416.781 365.276,416.046 
	364.085,415.602 362.613,415.45 361.14,415.602 359.949,416.338 358.91,417.226 358.325,418.417 357.871,419.89 357.74,421.524 
	358.022,423.148 358.628,424.48 359.364,425.368 360.382,426.256 361.421,426.7 362.764,426.992 364.085,426.841 365.276,426.256 
	366.165,425.509 366.749,424.925 367.052,424.48 367.182,424.036 370.3,427.436 369.997,427.88 369.413,428.476 368.525,429.363 
	366.9,430.392 364.822,431.129 362.613,431.433 360.686,431.279 358.758,430.544 356.701,429.212 354.773,427.285 353.431,424.621 
	352.998,421.373 353.301,418.276 354.47,415.45 356.094,413.382 358.173,412.05 360.382,411.162 362.764,410.881 365.125,411.162 
	367.182,411.909 368.676,413.089 369.715,413.978 370.149,414.572 "/>
<polygon fill="none" stroke="#0e518d" stroke-width="0.039" points="370.452,415.017 367.333,418.417 367.052,417.973 
	366.749,417.529 366.165,416.781 365.276,416.046 364.085,415.602 362.613,415.45 361.14,415.602 359.949,416.338 358.91,417.226 
	358.325,418.417 357.871,419.89 357.74,421.524 358.022,423.148 358.628,424.48 359.364,425.368 360.382,426.256 361.421,426.7 
	362.764,426.992 364.085,426.841 365.276,426.256 366.165,425.509 366.749,424.925 367.052,424.48 367.182,424.036 370.3,427.436 
	369.997,427.88 369.413,428.476 368.525,429.363 366.9,430.392 364.822,431.129 362.613,431.433 360.686,431.279 358.758,430.544 
	356.701,429.212 354.773,427.285 353.431,424.621 352.998,421.373 353.301,418.276 354.47,415.45 356.094,413.382 358.173,412.05 
	360.382,411.162 362.764,410.881 365.125,411.162 367.182,411.909 368.676,413.089 369.715,413.978 370.149,414.572 "/>
<polygon fill="#f7fbf5" points="378.594,404.514 383.467,404.514 383.467,414.421 383.77,414.129 384.052,413.686 384.658,413.089 
	385.373,412.494 386.283,411.909 387.17,411.466 388.058,411.162 389.076,411.162 389.964,411.162 391.003,411.325 392.042,411.769 
	393.082,412.202 394.1,413.089 395.009,414.129 395.594,415.31 395.897,416.5 396.027,417.821 396.179,419.305 396.179,431.279 
	391.307,431.279 391.307,420.333 391.154,419.305 391.003,418.276 390.722,417.389 390.267,416.641 389.682,416.056 
	389.076,415.754 388.339,415.45 387.452,415.45 386.564,415.602 385.676,415.894 384.94,416.5 384.355,417.085 383.9,417.973 
	383.597,418.86 383.467,419.89 383.467,420.929 383.467,431.279 378.594,431.279 "/>
<polygon fill="none" stroke="#0e518d" stroke-width="0.039" points="378.594,404.514 383.467,404.514 383.467,414.421 
	383.77,414.129 384.052,413.686 384.658,413.089 385.373,412.494 386.283,411.909 387.17,411.466 388.058,411.162 389.076,411.162 
	389.964,411.162 391.003,411.325 392.042,411.769 393.082,412.202 394.1,413.089 395.009,414.129 395.594,415.31 395.897,416.5 
	396.027,417.821 396.179,419.305 396.179,431.279 391.307,431.279 391.307,420.333 391.154,419.305 391.003,418.276 
	390.722,417.389 390.267,416.641 389.682,416.056 389.076,415.754 388.339,415.45 387.452,415.45 386.564,415.602 385.676,415.894 
	384.94,416.5 384.355,417.085 383.9,417.973 383.597,418.86 383.467,419.89 383.467,420.929 383.467,431.279 378.594,431.279 "/>
<polygon fill="#f7fbf5" points="412.312,404.514 412.312,411.162 417.185,411.162 417.185,415.754 412.312,415.754 412.312,425.065 
	412.312,425.509 412.464,425.952 412.594,426.396 413.049,426.7 413.633,426.992 414.218,426.992 414.824,426.992 415.258,426.841 
	415.994,426.7 416.6,426.256 417.033,425.952 417.487,425.672 416.448,430.544 415.994,430.836 415.561,430.988 414.954,431.279 
	414.088,431.433 413.33,431.572 412.594,431.572 411.706,431.433 410.84,431.279 409.951,430.836 409.064,430.252 408.306,429.363 
	407.873,428.324 407.569,427.285 407.569,426.115 407.569,415.754 404.018,415.754 404.018,411.162 407.569,411.162 407.569,406.29 
	"/>
<polygon fill="none" stroke="#0e518d" stroke-width="0.039" points="412.312,404.514 412.312,411.162 417.185,411.162 
	417.185,415.754 412.312,415.754 412.312,425.065 412.312,425.509 412.464,425.952 412.594,426.396 413.049,426.7 413.633,426.992 
	414.218,426.992 414.824,426.992 415.258,426.841 415.994,426.7 416.6,426.256 417.033,425.952 417.487,425.672 416.448,430.544 
	415.994,430.836 415.561,430.988 414.954,431.279 414.088,431.433 413.33,431.572 412.594,431.572 411.706,431.433 410.84,431.279 
	409.951,430.836 409.064,430.252 408.306,429.363 407.873,428.324 407.569,427.285 407.569,426.115 407.569,415.754 
	404.018,415.754 404.018,411.162 407.569,411.162 407.569,406.29 "/>
<path fill="#f7fbf5" d="M43.73,338.844l11.25,26.917h-4.742l-2.805-6.658H35.609l-2.815,6.658h-4.58l11.229-26.917H43.73z
	 M37.525,354.674h8.143l-4.006-9.615L37.525,354.674z"/>
<path fill="none" stroke="#0e518d" stroke-width="0.039" d="M43.73,338.844l11.25,26.917h-4.742l-2.805-6.658H35.609l-2.815,6.658
	h-4.58l11.229-26.917H43.73z M37.525,354.674h8.143l-4.006-9.615L37.525,354.674z"/>
<polygon fill="#f7fbf5" points="67.258,345.503 67.258,347.278 67.551,346.834 67.843,346.531 68.58,346.087 69.467,345.644 
	70.659,345.341 71.687,345.2 72.716,345.341 73.615,345.503 74.21,345.795 74.795,346.087 75.087,346.239 75.39,346.531 
	74.059,351.566 73.766,351.263 73.463,350.971 73.019,350.678 72.435,350.375 71.687,350.234 70.951,350.083 70.215,350.234 
	69.327,350.527 68.438,351.263 67.692,352.151 67.258,353.19 67.258,354.371 67.258,365.772 62.375,365.772 62.375,345.503 "/>
<polygon fill="none" stroke="#0e518d" stroke-width="0.039" points="67.258,345.503 67.258,347.278 67.551,346.834 67.843,346.531 
	68.58,346.087 69.467,345.644 70.659,345.341 71.687,345.2 72.716,345.341 73.615,345.503 74.21,345.795 74.795,346.087 
	75.087,346.239 75.39,346.531 74.059,351.566 73.766,351.263 73.463,350.971 73.019,350.678 72.435,350.375 71.687,350.234 
	70.951,350.083 70.215,350.234 69.327,350.527 68.438,351.263 67.692,352.151 67.258,353.19 67.258,354.371 67.258,365.772 
	62.375,365.772 62.375,345.503 "/>
<polygon fill="#f7fbf5" points="86.629,345.503 86.629,346.976 87.214,346.684 87.658,346.391 88.405,345.946 89.293,345.644 
	90.474,345.341 91.502,345.2 92.693,345.341 94.166,345.644 95.801,346.531 97.273,347.723 98.313,349.043 98.897,350.527 
	99.201,352.011 99.201,353.786 99.201,365.772 94.469,365.772 94.469,353.786 94.166,352.313 93.278,350.971 91.946,350.234 
	90.474,349.932 89.142,350.234 87.81,351.122 87.073,352.313 86.629,353.786 86.629,365.772 81.898,365.772 81.898,345.503 "/>
<polygon fill="none" stroke="#0e518d" stroke-width="0.039" points="86.629,345.503 86.629,346.976 87.214,346.684 87.658,346.391 
	88.405,345.946 89.293,345.644 90.474,345.341 91.502,345.2 92.693,345.341 94.166,345.644 95.801,346.531 97.273,347.723 
	98.313,349.043 98.897,350.527 99.201,352.011 99.201,353.786 99.201,365.772 94.469,365.772 94.469,353.786 94.166,352.313 
	93.278,350.971 91.946,350.234 90.474,349.932 89.142,350.234 87.81,351.122 87.073,352.313 86.629,353.786 86.629,365.772 
	81.898,365.772 81.898,345.503 "/>
<polygon fill="#f7fbf5" points="109.552,338.844 114.436,338.844 114.436,348.902 114.728,348.6 115.031,348.155 115.475,347.57 
	116.363,346.986 117.088,346.38 118.138,345.936 119.026,345.654 120.055,345.492 120.943,345.654 121.972,345.795 123.011,346.099 
	124.039,346.684 125.09,347.57 125.978,348.6 126.563,349.791 126.865,350.971 127.006,352.161 127.146,353.775 127.146,365.761 
	122.123,365.761 122.123,354.663 122.123,353.635 121.972,352.605 121.679,351.718 121.235,350.971 120.639,350.527 
	120.055,350.083 119.308,349.932 118.42,349.932 117.532,350.083 116.645,350.386 115.919,350.971 115.323,351.566 114.879,352.454 
	114.586,353.331 114.436,354.22 114.436,355.41 114.436,365.761 109.552,365.761 "/>
<polygon fill="none" stroke="#0e518d" stroke-width="0.039" points="109.552,338.844 114.436,338.844 114.436,348.902 
	114.728,348.6 115.031,348.155 115.475,347.57 116.363,346.986 117.088,346.38 118.138,345.936 119.026,345.654 120.055,345.492 
	120.943,345.654 121.972,345.795 123.011,346.099 124.039,346.684 125.09,347.57 125.978,348.6 126.563,349.791 126.865,350.971 
	127.006,352.161 127.146,353.775 127.146,365.761 122.123,365.761 122.123,354.663 122.123,353.635 121.972,352.605 
	121.679,351.718 121.235,350.971 120.639,350.527 120.055,350.083 119.308,349.932 118.42,349.932 117.532,350.083 116.645,350.386 
	115.919,350.971 115.323,351.566 114.879,352.454 114.586,353.331 114.436,354.22 114.436,355.41 114.436,365.761 109.552,365.761 
	"/>
<path fill="#f7fbf5" d="M147.558,353.201h-7.396v-0.606l0.151-0.443l0.292-0.444l0.303-0.585l0.443-0.595l0.585-0.596l0.888-0.293
	l0.888-0.141l0.887,0.141l0.888,0.293l0.736,0.596l0.444,0.443l0.444,0.736l0.151,0.444l0.152,0.443L147.558,353.201z
	 M152.3,356.005v-1.19l-0.303-2.22l-0.585-2.36l-1.332-2.22l-2.079-1.624l-2.209-0.888l-2.079-0.152l-2.361,0.293l-2.079,0.888
	l-1.624,1.483l-1.332,1.917l-0.888,2.663l-0.292,3.107l0.292,3.107l0.888,2.664l1.483,1.765l1.624,1.483l2.068,0.747l1.927,0.444
	l1.776-0.152l1.775-0.443l1.635-0.736l1.169-0.736l0.596-0.606l0.444-0.433l-3.259-2.513l-0.444,0.304l-0.444,0.141l-0.444,0.444
	l-0.736,0.292l-1.029,0.151l-0.747,0.141l-0.888-0.292l-0.888-0.292l-0.726-0.748l-0.606-0.735l-0.444-0.889l-0.141-0.888v-0.596
	v-0.584h12.127L152.3,356.005z"/>
<path fill="none" stroke="#0e518d" stroke-width="0.039" d="M147.558,353.19h-7.396v-0.596l0.151-0.443l0.292-0.444l0.303-0.585
	l0.443-0.595l0.585-0.596l0.888-0.293l0.888-0.141l0.887,0.141l0.888,0.293l0.736,0.596l0.444,0.443l0.444,0.736l0.151,0.444
	l0.152,0.443L147.558,353.19z M152.3,356.005v-1.19l-0.303-2.22l-0.585-2.36l-1.332-2.22l-2.079-1.624l-2.209-0.888l-2.079-0.152
	l-2.361,0.293l-2.079,0.888l-1.624,1.483l-1.332,1.917l-0.888,2.663l-0.292,3.107l0.292,3.107l0.888,2.664l1.483,1.765l1.624,1.483
	l2.068,0.747l1.927,0.444l1.776-0.152l1.775-0.443l1.635-0.736l1.169-0.736l0.596-0.606l0.444-0.433l-3.259-2.513l-0.444,0.304
	l-0.444,0.141l-0.444,0.444l-0.736,0.292l-1.029,0.151l-0.747,0.141l-0.888-0.292l-0.888-0.292l-0.726-0.748l-0.606-0.735
	l-0.444-0.889l-0.141-0.888v-0.596v-0.584h12.127L152.3,356.005z"/>
<polygon fill="#f7fbf5" points="165.607,345.503 165.607,347.278 166.051,346.976 166.354,346.531 167.242,346.087 168.271,345.795 
	169.451,345.341 170.783,345.2 172.418,345.503 173.891,345.946 174.919,346.684 175.817,347.278 176.251,347.723 176.554,348.015 
	176.846,347.723 177.442,347.127 178.33,346.391 179.651,345.795 180.842,345.503 182.477,345.341 184.393,345.644 186.31,346.391 
	187.793,347.723 188.984,349.194 189.569,351.263 189.872,353.482 189.872,365.772 184.978,365.772 184.978,353.635 
	184.686,352.313 183.95,351.122 182.758,350.375 181.426,350.083 179.954,350.375 178.925,351.122 178.026,352.313 177.734,353.786 
	177.734,365.772 172.862,365.772 172.862,353.635 172.559,352.313 171.811,351.122 170.783,350.375 169.451,349.932 
	167.968,350.234 166.798,350.971 165.911,352.151 165.607,353.635 165.607,365.772 160.724,365.772 160.724,345.503 "/>
<polygon fill="none" stroke="#0e518d" stroke-width="0.039" points="165.607,345.503 165.607,347.278 166.051,346.976 
	166.354,346.531 167.242,346.087 168.271,345.795 169.451,345.341 170.783,345.2 172.418,345.503 173.891,345.946 174.919,346.684 
	175.817,347.278 176.251,347.723 176.554,348.015 176.846,347.723 177.442,347.127 178.33,346.391 179.651,345.795 180.842,345.503 
	182.477,345.341 184.393,345.644 186.31,346.391 187.793,347.723 188.984,349.194 189.569,351.263 189.872,353.482 189.872,365.772 
	184.978,365.772 184.978,353.635 184.686,352.313 183.95,351.122 182.758,350.375 181.426,350.083 179.954,350.375 178.925,351.122 
	178.026,352.313 177.734,353.786 177.734,365.772 172.862,365.772 172.862,353.635 172.559,352.313 171.811,351.122 
	170.783,350.375 169.451,349.932 167.968,350.234 166.798,350.971 165.911,352.151 165.607,353.635 165.607,365.772 
	160.724,365.772 160.724,345.503 "/>
<polygon fill="#f7fbf5" points="220.038,311.038 212.643,303.502 209.979,306.166 207.315,308.818 212.643,314.146 212.643,335.746 
	207.315,341.063 209.979,343.727 212.643,346.391 220.038,338.844 220.038,324.941 "/>
<polygon fill="#f7fbf5" points="237.335,311.038 244.872,303.502 247.535,306.166 250.048,308.818 244.742,314.146 244.742,335.746 
	250.048,341.063 247.535,343.727 244.872,346.391 237.335,338.844 "/>
<polygon fill="#f7fbf5" points="233.345,296.843 247.384,296.843 247.384,295.067 233.345,295.067 233.345,289.285 247.384,289.285 
	247.384,287.531 233.345,287.531 233.345,242.412 245.175,245.216 245.911,245.216 246.647,244.923 247.103,244.491 
	247.384,243.743 247.384,243.007 247.254,242.412 230.238,217.865 230.086,217.725 229.794,217.421 229.351,217.27 229.058,217.118 
	228.754,217.118 228.311,217.118 228.029,217.27 227.726,217.421 227.423,217.725 227.142,217.865 210.272,242.412 209.969,243.007 
	209.969,243.743 210.272,244.491 210.856,244.923 211.462,245.216 212.188,245.216 224.034,242.412 224.034,287.531 
	179.066,287.531 181.719,275.696 181.719,274.949 181.438,274.213 180.993,273.769 180.246,273.466 179.5,273.466 178.915,273.628 
	154.509,290.627 154.227,290.779 153.924,291.071 153.773,291.516 153.621,291.819 153.621,292.111 153.621,292.555 
	153.773,292.847 153.924,293.15 154.227,293.432 154.509,293.735 178.915,310.594 179.5,310.887 180.246,310.887 180.993,310.594 
	181.438,310.15 181.719,309.414 181.719,308.667 179.066,296.843 224.034,296.843 224.034,353.038 209.969,353.038 209.969,354.966 
	224.034,354.966 224.034,360.586 209.969,360.586 209.969,362.361 224.034,362.361 224.034,431.279 233.345,431.279 
	233.345,362.361 278.459,362.361 275.644,374.186 275.644,374.933 275.947,375.658 276.38,376.264 277.117,376.416 277.853,376.416 
	278.611,376.264 303.017,359.254 303.298,359.113 303.45,358.81 303.602,358.507 303.753,358.063 303.753,357.781 303.753,357.338 
	303.602,357.034 303.45,356.73 303.298,356.449 303.017,356.146 278.611,339.288 277.853,338.995 277.117,338.995 276.38,339.288 
	275.947,339.883 275.644,340.468 275.644,341.215 278.459,353.038 233.345,353.038 "/>
<polygon fill="#f7fbf5" points="418.224,384.396 420.585,383.812 422.512,382.479 423.833,380.552 424.288,378.191 424.288,337.22 
	423.833,334.848 422.512,332.932 420.585,331.6 418.224,331.156 330.064,331.156 327.704,331.6 325.647,332.932 324.304,334.848 
	323.871,337.22 323.871,378.191 324.304,380.552 325.647,382.479 327.704,383.812 330.064,384.396 "/>
<polygon fill="#f0ca00" points="166.051,197.011 164.719,196.859 163.539,195.982 162.803,194.932 162.5,193.459 162.5,152.347 
	162.803,151.004 163.539,149.834 164.719,149.087 166.051,148.784 291.323,148.784 292.795,149.087 293.834,149.834 
	294.723,151.004 295.026,152.347 295.026,193.459 294.723,194.932 293.834,195.982 292.795,196.859 291.323,197.011 "/>
<polygon fill="#f7fbf5" points="360.989,81.793 361.725,81.793 363.198,81.208 364.388,80.017 364.973,78.544 364.973,77.797 
	364.973,32.245 364.973,31.357 364.388,29.884 363.198,28.845 361.725,28.109 360.989,28.109 96.537,28.109 95.649,28.109 
	94.166,28.845 93.137,29.884 92.4,31.357 92.4,32.245 92.4,77.797 92.4,78.544 93.137,80.017 94.166,81.208 95.649,81.793 
	96.537,81.793 228.766,81.793 "/>
<polygon fill="#c1121c" points="330.064,381.732 328.743,381.43 327.553,380.704 326.816,379.513 326.513,378.181 326.513,337.22 
	326.816,335.888 327.553,334.696 328.743,333.971 330.064,333.668 418.224,333.668 419.546,333.971 420.736,334.696 
	421.473,335.888 421.775,337.22 421.775,378.181 421.473,379.513 420.736,380.704 419.546,381.43 418.224,381.732 "/>
<polygon fill="#c1121c" points="127.45,316.213 128.782,315.921 129.962,315.033 130.698,313.994 131.001,312.662 131.001,271.701 
	130.698,270.369 129.962,269.178 128.782,268.442 127.45,268.149 39.302,268.149 37.818,268.442 36.79,269.178 35.901,270.369 
	35.75,271.701 35.75,312.662 35.901,313.994 36.79,315.033 37.818,315.921 39.302,316.213 "/>
<polygon fill="#2a2d2f" points="344.119,52.211 344.119,53.403 344.574,53.1 344.855,52.958 345.462,52.655 346.198,52.363 
	346.934,52.211 347.973,52.07 348.992,52.211 349.879,52.363 350.767,52.655 351.374,52.958 351.655,53.1 352.11,53.403 
	350.182,59.466 350.053,59.314 349.879,58.871 349.446,58.427 348.861,57.982 348.104,57.679 347.389,57.679 346.501,57.831 
	345.743,58.134 345.007,58.578 344.574,59.314 344.271,60.191 344.119,61.241 344.119,72.329 338.51,72.329 338.51,52.211 "/>
<polygon fill="none" stroke="#f7fbf5" stroke-width="0.039" points="344.119,52.211 344.119,53.403 344.574,53.1 344.855,52.958 
	345.462,52.655 346.198,52.363 346.934,52.211 347.973,52.07 348.992,52.211 349.879,52.363 350.767,52.655 351.374,52.958 
	351.655,53.1 352.11,53.403 350.182,59.466 350.053,59.314 349.879,58.871 349.446,58.427 348.861,57.982 348.104,57.679 
	347.389,57.679 346.501,57.831 345.743,58.134 345.007,58.578 344.574,59.314 344.271,60.191 344.119,61.241 344.119,72.329 
	338.51,72.329 338.51,52.211 "/>
<path fill="#2a2d2f" d="M325.192,59.456h-5.912l0.13-0.444l0.151-0.292l0.152-0.444l0.303-0.292l0.433-0.444l0.455-0.292
	l0.585-0.303l0.736-0.141l0.606,0.141l0.584,0.151l0.585,0.293l0.455,0.444l0.303,0.443l0.13,0.444l0.151,0.292L325.192,59.456z
	 M330.953,63.31v-0.595v-0.595l-0.13-1.333l-0.303-1.775l-0.455-1.765l-0.736-1.483l-1.169-1.332l-1.343-1.039l-1.472-0.726
	l-1.624-0.444l-1.495-0.162l-1.473,0.162l-1.473,0.282l-1.472,0.747l-1.343,1.029l-1.191,1.332l-0.887,1.928l-0.737,2.219
	l-0.151,2.513l0.151,2.371l0.606,2.068l0.888,1.775l1.018,1.473l1.494,1.191l1.473,0.736l1.624,0.444l1.473,0.292l1.495-0.151
	l1.321-0.293l1.191-0.584l1.169-0.595l1.039-0.596l0.607-0.585l0.281-0.444l0.303-0.303l-3.855-2.956l-0.281,0.152l-0.303,0.292
	l-0.433,0.444l-0.758,0.444l-0.888,0.151l-0.736,0.141l-0.736-0.141l-0.737-0.304l-0.455-0.444l-0.584-0.736l-0.455-0.736
	l-0.13-0.736v-0.444v-0.444h11.542L330.953,63.31z"/>
<path fill="none" stroke="#f7fbf5" stroke-width="0.039" d="M325.192,59.456h-5.912l0.13-0.444l0.151-0.292l0.152-0.444l0.303-0.292
	l0.433-0.444l0.455-0.292l0.585-0.303l0.736-0.141l0.606,0.141l0.584,0.151l0.585,0.293l0.455,0.444l0.303,0.443l0.13,0.444
	l0.151,0.292L325.192,59.456z M330.953,63.31v-0.595v-0.595l-0.13-1.333l-0.303-1.775l-0.455-1.765l-0.736-1.483l-1.169-1.332
	l-1.343-1.039l-1.472-0.726l-1.624-0.444l-1.495-0.162l-1.473,0.162l-1.473,0.282l-1.472,0.747l-1.343,1.029l-1.191,1.332
	l-0.887,1.928l-0.737,2.219l-0.151,2.513l0.151,2.371l0.606,2.068l0.888,1.775l1.018,1.473l1.494,1.191l1.473,0.736l1.624,0.444
	l1.473,0.292l1.495-0.151l1.321-0.293l1.191-0.584l1.169-0.595l1.039-0.596l0.607-0.585l0.281-0.444l0.303-0.303l-3.855-2.956
	l-0.281,0.152l-0.303,0.292l-0.433,0.444l-0.758,0.444l-0.888,0.151l-0.736,0.141l-0.736-0.141l-0.737-0.304l-0.455-0.444
	l-0.584-0.736l-0.455-0.736l-0.13-0.736v-0.444v-0.444h11.542L330.953,63.31z"/>
<path fill="#2a2d2f" d="M308.041,63.754h-11.542v0.444v0.444l0.282,0.736l0.303,0.736l0.585,0.747l0.606,0.433l0.585,0.304
	l0.758,0.141l0.866-0.141l0.736-0.151l0.758-0.444l0.433-0.444l0.303-0.292l0.303-0.152l3.833,2.956l-0.282,0.303l-0.303,0.444
	l-0.585,0.585l-1.061,0.585l-1.169,0.606l-1.191,0.584l-1.321,0.303l-1.495,0.141l-1.472-0.302l-1.473-0.434l-1.624-0.736
	l-1.343-1.191l-1.169-1.473l-0.888-1.775l-0.455-2.068l-0.303-2.371l0.303-2.513l0.585-2.219l0.909-1.928l1.321-1.332l1.321-1.029
	l1.343-0.747l1.473-0.292l1.472-0.141l1.495,0.141l1.624,0.444l1.472,0.736l1.343,1.039l1.191,1.321l0.714,1.494l0.606,1.776
	l0.151,1.765l0.152,1.333v0.595v0.595L308.041,63.754z M302.259,59.022v-0.303l-0.152-0.444l-0.433-0.443l-0.454-0.444l-0.585-0.293
	l-0.585-0.151l-0.606-0.141l-0.584,0.141l-0.737,0.303l-0.455,0.292l-0.433,0.444l-0.281,0.292l-0.174,0.444l-0.129,0.303v0.444
	h5.76L302.259,59.022z"/>
<path fill="none" stroke="#f7fbf5" stroke-width="0.039" d="M308.041,63.754h-11.542v0.444v0.444l0.282,0.736l0.303,0.736
	l0.585,0.747l0.606,0.433l0.585,0.304l0.758,0.141l0.866-0.141l0.736-0.151l0.758-0.444l0.433-0.444l0.303-0.292l0.303-0.152
	l3.833,2.956l-0.282,0.303l-0.303,0.444l-0.585,0.585l-1.061,0.585l-1.169,0.606l-1.191,0.584l-1.321,0.303l-1.495,0.141
	l-1.472-0.302l-1.473-0.434l-1.624-0.736l-1.343-1.191l-1.169-1.473l-0.888-1.775l-0.455-2.068l-0.303-2.371l0.303-2.513
	l0.585-2.219l0.909-1.928l1.321-1.332l1.321-1.029l1.343-0.747l1.473-0.292l1.472-0.141l1.495,0.141l1.624,0.444l1.472,0.736
	l1.343,1.039l1.191,1.321l0.714,1.494l0.606,1.776l0.151,1.765l0.152,1.333v0.595v0.595L308.041,63.754z M302.259,59.022v-0.303
	l-0.152-0.444l-0.433-0.443l-0.454-0.444l-0.585-0.293l-0.585-0.151l-0.606-0.141l-0.584,0.141l-0.737,0.303l-0.455,0.292
	l-0.433,0.444l-0.281,0.292l-0.174,0.444l-0.129,0.303v0.444h5.76L302.259,59.022z"/>
<polygon fill="#2a2d2f" points="260.269,52.211 260.269,53.403 260.572,53.1 261.005,52.796 261.741,52.515 262.629,52.211 
	263.669,52.07 264.687,51.919 265.878,52.07 267.221,52.363 268.411,52.958 269.277,53.543 269.732,53.987 270.166,54.29 
	270.469,53.987 271.053,53.543 271.941,52.958 273.132,52.363 274.475,52.07 276.099,51.919 277.853,52.211 279.628,52.796 
	281.253,53.987 282.444,55.622 283.332,57.831 283.635,60.191 283.635,72.329 278.004,72.329 278.004,60.495 277.724,59.314 
	277.117,58.274 276.099,57.679 275.059,57.387 273.869,57.679 272.829,58.274 272.092,59.314 271.941,60.636 271.941,72.329 
	266.333,72.329 266.333,60.636 266.029,59.314 265.444,58.274 264.557,57.679 263.366,57.387 262.196,57.679 261.156,58.274 
	260.572,59.314 260.269,60.636 260.269,72.329 254.639,72.329 254.639,52.211 "/>
<polygon fill="none" stroke="#f7fbf5" stroke-width="0.039" points="260.269,52.211 260.269,53.403 260.572,53.1 261.005,52.796 
	261.741,52.515 262.629,52.211 263.669,52.07 264.687,51.919 265.878,52.07 267.221,52.363 268.411,52.958 269.277,53.543 
	269.732,53.987 270.166,54.29 270.469,53.987 271.053,53.543 271.941,52.958 273.132,52.363 274.475,52.07 276.099,51.919 
	277.853,52.211 279.628,52.796 281.253,53.987 282.444,55.622 283.332,57.831 283.635,60.191 283.635,72.329 278.004,72.329 
	278.004,60.495 277.724,59.314 277.117,58.274 276.099,57.679 275.059,57.387 273.869,57.679 272.829,58.274 272.092,59.314 
	271.941,60.636 271.941,72.329 266.333,72.329 266.333,60.636 266.029,59.314 265.444,58.274 264.557,57.679 263.366,57.387 
	262.196,57.679 261.156,58.274 260.572,59.314 260.269,60.636 260.269,72.329 254.639,72.329 254.639,52.211 "/>
<polygon fill="#2a2d2f" points="235.408,44.524 235.408,57.842 240.455,52.222 247.687,52.222 242.078,58.73 247.535,72.329 
	241.624,72.329 237.942,63.45 235.408,66.266 235.408,72.329 229.946,72.329 229.946,46.44 "/>
<polygon fill="none" stroke="#f7fbf5" stroke-width="0.039" points="235.408,44.524 235.408,57.842 240.455,52.222 247.687,52.222 
	242.078,58.73 247.535,72.329 241.624,72.329 237.942,63.45 235.408,66.266 235.408,72.329 229.946,72.329 229.946,46.44 "/>
<path fill="#2a2d2f" d="M216.487,59.456h-5.76l0.141-0.444l0.141-0.292l0.163-0.444l0.282-0.292l0.444-0.444l0.444-0.292
	l0.596-0.303l0.736-0.141l0.595,0.141l0.596,0.151l0.433,0.293l0.595,0.444l0.292,0.443l0.151,0.444l0.152,0.292V59.456z
	 M222.258,63.31v-0.595v-0.595v-1.333l-0.303-1.775l-0.444-1.765l-0.888-1.483l-1.028-1.332l-1.332-1.039l-1.473-0.726l-1.635-0.444
	l-1.624-0.162l-1.483,0.162l-1.483,0.282l-1.332,0.747l-1.332,1.029l-1.18,1.332l-1.029,1.928l-0.596,2.219l-0.292,2.513
	l0.292,2.371l0.596,2.068l0.888,1.775l1.029,1.473l1.331,1.191l1.625,0.736l1.483,0.444l1.483,0.292l1.473-0.151l1.483-0.293
	l1.18-0.584l1.18-0.595l0.888-0.596l0.747-0.585l0.293-0.444l0.292-0.303l-3.996-2.956l-0.14,0.152l-0.303,0.292l-0.444,0.444
	l-0.736,0.444l-0.888,0.151l-0.888,0.141l-0.736-0.141l-0.596-0.304l-0.584-0.444l-0.444-0.736l-0.444-0.736l-0.141-0.736
	l-0.163-0.444v-0.444h11.694V63.31z"/>
<path fill="none" stroke="#f7fbf5" stroke-width="0.039" d="M216.487,59.456h-5.76l0.141-0.444l0.141-0.292l0.163-0.444l0.282-0.292
	l0.444-0.444l0.444-0.292l0.596-0.303l0.736-0.141l0.595,0.141l0.596,0.151l0.433,0.293l0.595,0.444l0.292,0.443l0.151,0.444
	l0.152,0.292V59.456z M222.258,63.31v-0.595v-0.595v-1.333l-0.303-1.775l-0.444-1.765l-0.888-1.483l-1.028-1.332l-1.332-1.039
	l-1.473-0.726l-1.635-0.444l-1.624-0.162l-1.483,0.162l-1.483,0.282l-1.332,0.747l-1.332,1.029l-1.18,1.332l-1.029,1.928
	l-0.596,2.219l-0.292,2.513l0.292,2.371l0.596,2.068l0.888,1.775l1.029,1.473l1.331,1.191l1.625,0.736l1.483,0.444l1.483,0.292
	l1.473-0.151l1.483-0.293l1.18-0.584l1.18-0.595l0.888-0.596l0.747-0.585l0.293-0.444l0.292-0.303l-3.996-2.956l-0.14,0.152
	l-0.303,0.292l-0.444,0.444l-0.736,0.444l-0.888,0.151l-0.888,0.141l-0.736-0.141l-0.596-0.304l-0.584-0.444l-0.444-0.736
	l-0.444-0.736l-0.141-0.736l-0.163-0.444v-0.444h11.694V63.31z"/>
<path fill="#2a2d2f" d="M194.301,62.422l-0.141,1.179l-0.163,1.029l-0.141,1.051l-0.444,0.726l-0.444,0.595l-0.584,0.444
	l-0.748,0.151l-0.748,0.141l-0.726-0.141l-0.747-0.304l-0.444-0.444l-0.444-0.584l-0.444-0.585l-0.141-0.888l-0.303-1.191v-1.331
	l0.152-1.181l0.151-1.191l0.444-1.028l0.292-0.585l0.444-0.444l0.595-0.303l0.585-0.303l0.747-0.141l0.585,0.141l0.748,0.303
	l0.584,0.303l0.444,0.585l0.303,0.584l0.282,1.04l0.163,1.039L194.301,62.422z M199.477,59.758l-0.585-2.219l-0.888-1.635
	l-1.191-1.321l-1.473-1.191l-1.483-0.736l-1.472-0.444h-1.495h-1.321l-1.483,0.444l-1.624,0.736l-1.472,1.039l-1.051,1.332
	l-0.888,1.776l-0.584,2.219l-0.293,2.665l0.152,2.652l0.725,2.372l0.888,1.624l1.191,1.332l1.332,1.04l1.483,0.736l1.624,0.293
	l1.483,0.162h1.473l1.472-0.455l1.483-0.736l1.332-1.04l1.191-1.332l0.888-2.068l0.726-2.209l0.162-2.371L199.477,59.758z"/>
<path fill="none" stroke="#f7fbf5" stroke-width="0.039" d="M194.301,62.422l-0.141,1.179l-0.163,1.029l-0.141,1.051l-0.444,0.726
	l-0.444,0.595l-0.584,0.444l-0.748,0.151l-0.748,0.141l-0.726-0.141l-0.747-0.304l-0.444-0.444l-0.444-0.584l-0.444-0.585
	l-0.141-0.888l-0.303-1.191v-1.331l0.152-1.181l0.151-1.191l0.444-1.028l0.292-0.585l0.444-0.444l0.595-0.303l0.585-0.303
	l0.747-0.141l0.585,0.141l0.748,0.303l0.584,0.303l0.444,0.585l0.303,0.584l0.282,1.04l0.163,1.039L194.301,62.422z M199.477,59.758
	l-0.585-2.219l-0.888-1.635l-1.191-1.321l-1.473-1.191l-1.483-0.736l-1.472-0.444h-1.495h-1.321l-1.483,0.444l-1.624,0.736
	l-1.472,1.039l-1.051,1.332l-0.888,1.776l-0.584,2.219l-0.293,2.665l0.152,2.652l0.725,2.372l0.888,1.624l1.191,1.332l1.332,1.04
	l1.483,0.736l1.624,0.293l1.483,0.162h1.473l1.472-0.455l1.483-0.736l1.332-1.04l1.191-1.332l0.888-2.068l0.726-2.209l0.162-2.371
	L199.477,59.758z"/>
<path fill="#2a2d2f" d="M153.773,45.552h13.015l1.634,0.152l1.473,0.292l1.332,0.747l1.181,0.888l1.04,1.18l0.736,1.483l0.444,1.624
	l0.151,1.332l-0.151,1.333l-0.293,1.18l-0.595,0.888l-0.444,0.736l-0.292,0.303l-0.292,0.443l0.292,0.293l0.444,0.292l0.736,0.888
	l0.596,1.18l0.444,1.636l0.151,1.613l-0.151,1.494l-0.292,1.473l-0.888,1.483l-1.04,1.473l-1.473,1.029l-1.332,0.747l-1.635,0.443
	l-1.917,0.142h-12.874V45.552z M158.948,55.611h8.143l0.888-0.292l0.888-0.433l0.585-0.748l0.141-0.888l-0.141-0.887l-0.585-0.888
	l-0.888-0.595l-1.04-0.142h-7.991V55.611z M158.948,67.294h7.991l1.321-0.292l1.05-0.736l0.726-1.04l0.303-1.332l-0.303-1.18
	l-0.726-1.04l-1.19-0.736l-1.332-0.293h-7.84V67.294z"/>
<path fill="none" stroke="#f7fbf5" stroke-width="0.039" d="M153.773,45.552h13.015l1.634,0.152l1.473,0.292l1.332,0.747
	l1.181,0.888l1.04,1.18l0.736,1.483l0.444,1.624l0.151,1.332l-0.151,1.333l-0.293,1.18l-0.595,0.888l-0.444,0.736l-0.292,0.303
	l-0.292,0.443l0.292,0.293l0.444,0.292l0.736,0.888l0.596,1.18l0.444,1.636l0.151,1.613l-0.151,1.494l-0.292,1.473l-0.888,1.483
	l-1.04,1.473l-1.473,1.029l-1.332,0.747l-1.635,0.443l-1.917,0.142h-12.874V45.552z M158.948,55.611h8.143l0.888-0.292l0.888-0.433
	l0.585-0.748l0.141-0.888l-0.141-0.887l-0.585-0.888l-0.888-0.595l-1.04-0.142h-7.991V55.611z M158.948,67.294h7.991l1.321-0.292
	l1.05-0.736l0.726-1.04l0.303-1.332l-0.303-1.18l-0.726-1.04l-1.19-0.736l-1.332-0.293h-7.84V67.294z"/>
<polygon fill="#2a2d2f" points="195.037,159.439 195.037,186.367 189.861,186.367 178.33,169.357 178.33,186.367 173.154,186.367 
	173.154,172.897 173.154,159.439 177.734,159.439 189.861,177.033 189.861,159.439 "/>
<polygon fill="none" stroke="#f0ca00" stroke-width="0.039" points="195.037,159.439 195.037,186.367 189.861,186.367 
	178.33,169.357 178.33,186.367 173.154,186.367 173.154,172.897 173.154,159.439 177.734,159.439 189.861,177.033 189.861,159.439 
	"/>
<polygon fill="#2a2d2f" points="229.501,181.18 229.501,186.508 207.759,186.508 207.759,185.771 207.759,184.873 208.052,183.26 
	208.496,181.04 209.536,178.669 211.019,176.309 212.936,174.229 215.155,172.605 217.375,171.425 219.746,170.678 222.106,169.941 
	222.842,169.638 223.579,169.194 224.034,168.761 224.174,168.307 224.326,167.722 224.326,167.277 224.174,166.531 
	223.882,165.805 222.994,165.21 221.662,164.614 220.027,164.322 218.555,164.17 217.223,164.322 215.891,164.614 214.56,164.917 
	213.379,165.502 212.491,166.098 211.744,166.531 211.3,166.833 210.856,167.277 207.315,163.586 207.759,163.283 208.344,162.698 
	209.536,161.961 211.16,160.911 213.076,160.186 214.852,159.58 216.779,159.298 218.695,159.136 221.077,159.298 223.438,159.882 
	226.091,161.074 228.029,162.838 229.058,164.917 229.501,167.277 229.198,169.194 228.614,170.981 227.585,172.454 
	226.253,173.645 224.619,174.37 222.55,175.117 220.916,175.561 219.302,176.146 217.971,176.752 216.779,177.489 215.891,178.376 
	215.003,179.405 214.408,180.152 214.126,180.737 213.823,181.18 "/>
<polygon fill="none" stroke="#f0ca00" stroke-width="0.039" points="229.501,181.18 229.501,186.508 207.759,186.508 
	207.759,185.771 207.759,184.873 208.052,183.26 208.496,181.04 209.536,178.669 211.019,176.309 212.936,174.229 215.155,172.605 
	217.375,171.425 219.746,170.678 222.106,169.941 222.842,169.638 223.579,169.194 224.034,168.761 224.174,168.307 
	224.326,167.722 224.326,167.277 224.174,166.531 223.882,165.805 222.994,165.21 221.662,164.614 220.027,164.322 218.555,164.17 
	217.223,164.322 215.891,164.614 214.56,164.917 213.379,165.502 212.491,166.098 211.744,166.531 211.3,166.833 210.856,167.277 
	207.315,163.586 207.759,163.283 208.355,162.698 209.536,161.961 211.16,160.911 213.076,160.186 214.852,159.58 216.779,159.298 
	218.695,159.136 221.077,159.298 223.438,159.882 226.091,161.074 228.029,162.838 229.058,164.917 229.501,167.277 
	229.198,169.194 228.614,170.981 227.585,172.454 226.253,173.645 224.619,174.37 222.55,175.117 220.916,175.561 219.302,176.146 
	217.971,176.752 216.779,177.489 215.891,178.365 215.003,179.405 214.408,180.152 214.126,180.737 213.823,181.18 "/>
<polygon fill="#2a2d2f" points="281.708,159.439 281.708,164.614 268.996,164.614 268.845,168.469 269.429,168.307 270.014,168.166 
	270.902,167.862 272.092,167.722 273.284,167.43 274.604,167.43 276.229,167.581 277.853,168.025 279.499,168.75 280.971,169.8 
	282.314,171.273 283.483,172.897 284.068,174.976 284.372,177.196 284.068,179.253 283.332,181.18 282.314,182.957 280.971,184.429 
	279.347,185.479 277.571,186.205 275.947,186.649 274.02,186.649 271.963,186.649 269.884,186.367 267.805,185.923 266.029,185.317 
	264.708,184.873 263.82,184.429 263.063,184.147 262.478,183.845 264.708,179.253 265.596,179.557 266.484,180 268.108,180.585 
	270.014,181.18 271.963,181.483 273.869,181.625 275.493,181.625 276.684,181.18 277.724,180.585 278.611,179.557 279.044,178.365 
	279.196,177.196 279.044,175.864 278.611,174.532 277.724,173.493 276.532,172.897 275.493,172.605 274.604,172.454 
	273.717,172.454 272.829,172.605 271.79,172.897 270.62,173.189 269.732,173.493 269.126,173.645 268.693,173.786 268.108,174.088 
	263.517,172.746 264.124,159.439 "/>
<polygon fill="none" stroke="#f0ca00" stroke-width="0.039" points="281.708,159.439 281.708,164.614 268.996,164.614 
	268.845,168.469 269.429,168.307 270.014,168.166 270.902,167.862 272.092,167.722 273.284,167.43 274.604,167.43 276.229,167.581 
	277.853,168.025 279.499,168.75 280.971,169.8 282.314,171.273 283.483,172.897 284.068,174.976 284.372,177.196 284.068,179.253 
	283.332,181.18 282.314,182.957 280.971,184.429 279.347,185.479 277.571,186.205 275.947,186.649 274.02,186.649 271.963,186.649 
	269.884,186.367 267.805,185.923 266.029,185.317 264.708,184.873 263.82,184.429 263.063,184.147 262.478,183.845 264.708,179.253 
	265.596,179.557 266.484,180 268.108,180.585 270.014,181.18 271.963,181.483 273.869,181.625 275.493,181.625 276.684,181.18 
	277.724,180.585 278.611,179.557 279.044,178.365 279.196,177.196 279.044,175.864 278.611,174.532 277.724,173.493 
	276.532,172.897 275.493,172.605 274.604,172.454 273.717,172.454 272.829,172.605 271.79,172.897 270.62,173.189 269.732,173.493 
	269.126,173.645 268.693,173.786 268.108,174.088 263.517,172.746 264.124,159.439 "/>
<polygon fill="#2a2d2f" points="256.414,181.18 256.414,186.508 234.678,186.508 234.678,185.771 234.678,184.873 234.823,183.26 
	235.408,181.04 236.447,178.669 237.942,176.309 239.848,174.229 242.078,172.605 244.287,171.425 246.669,170.678 249.03,169.941 
	249.917,169.638 250.502,169.194 250.806,168.761 251.087,168.307 251.238,167.722 251.238,167.277 251.087,166.531 
	250.806,165.805 249.917,165.21 248.575,164.614 246.951,164.322 245.479,164.17 244.005,164.322 242.663,164.614 241.32,164.917 
	240.302,165.502 239.414,166.098 238.656,166.531 238.224,166.833 237.769,167.277 234.233,163.586 234.678,163.283 
	235.278,162.698 236.447,161.961 238.072,160.911 239.999,160.186 241.775,159.58 243.702,159.298 245.608,159.136 247.99,159.298 
	250.351,159.882 253.015,161.074 254.941,162.838 255.981,164.917 256.414,167.277 256.133,169.194 255.526,170.981 
	254.508,172.454 253.166,173.645 251.542,174.37 249.463,175.117 247.687,175.561 246.063,176.146 244.72,176.752 243.702,177.489 
	242.814,178.376 241.927,179.405 241.32,180.152 241.039,180.737 240.735,181.18 "/>
<polygon fill="none" stroke="#f0ca00" stroke-width="0.039" points="256.414,181.18 256.414,186.508 234.678,186.508 
	234.678,185.771 234.678,184.873 234.823,183.26 235.408,181.04 236.447,178.669 237.942,176.309 239.848,174.229 242.078,172.605 
	244.287,171.425 246.669,170.678 249.03,169.941 249.917,169.638 250.502,169.194 250.806,168.761 251.087,168.307 251.238,167.722 
	251.238,167.277 251.087,166.531 250.806,165.805 249.917,165.21 248.575,164.614 246.951,164.322 245.479,164.17 244.005,164.322 
	242.663,164.614 241.32,164.917 240.302,165.502 239.414,166.098 238.656,166.531 238.224,166.833 237.769,167.277 234.233,163.586 
	234.678,163.283 235.278,162.698 236.447,161.961 238.072,160.911 239.999,160.186 241.775,159.58 243.702,159.298 245.608,159.136 
	247.99,159.298 250.351,159.882 253.015,161.074 254.941,162.838 255.981,164.917 256.414,167.277 256.133,169.194 255.526,170.981 
	254.508,172.454 253.166,173.645 251.542,174.37 249.463,175.117 247.687,175.561 246.063,176.146 244.72,176.752 243.702,177.489 
	242.814,178.365 241.927,179.405 241.32,180.152 241.039,180.737 240.735,181.18 "/>
<path fill="#2a2d2f" d="M115.323,69.222h-5.316v-5.76h5.316V69.222z M125.826,69.222h-5.327v-5.76h5.327V69.222z M136.329,69.222
	h-5.327v-5.76h5.327V69.222z M128.934,72.329h11.532V60.636l-2.804-4.873l-8.728,4.873l-2.815-4.873l-8.728,4.873l-2.805-4.873
	l-8.727,5.035v11.532h11.531H128.934z"/>
<polygon fill="#2a2d2f" points="122.123,41.708 120.943,41.708 119.763,41.708 119.318,57.831 120.943,56.802 122.718,55.904 "/>
<polygon fill="#2a2d2f" points="132.031,45.855 131.001,45.855 129.821,45.855 129.226,58.871 131.001,57.982 132.626,56.943 "/>
<polygon fill="#2a2d2f" points="129.811,44.372 129.811,44.967 132.031,44.967 133.806,43.484 136.025,43.484 137.65,42.152 
	139.577,42.152 140.476,40.972 139.577,39.781 137.509,39.781 135.441,41.557 134.25,41.557 131.294,44.372 "/>
<polygon fill="#2a2d2f" points="119.763,40.821 122.123,40.821 125.079,39.792 128.63,40.679 131.294,39.348 133.958,39.933 
	137.509,38.017 139.285,38.309 140.465,36.533 140.021,35.504 137.206,35.504 133.221,37.28 130.417,37.128 127.894,38.752 
	125.079,38.46 122.275,40.236 119.763,40.236 "/>
<path fill="#f7fbf5" d="M352.695,344.322l11.239,26.756h-4.721l-2.815-6.508h-11.824l-2.815,6.508h-4.743l11.413-26.756H352.695z
	 M346.479,360.142h8.143l-4.006-9.614L346.479,360.142z"/>
<path fill="none" stroke="#c1121c" stroke-width="0.039" d="M352.695,344.322l11.239,26.756h-4.721l-2.815-6.508h-11.824
	l-2.815,6.508h-4.743l11.413-26.756H352.695z M346.479,360.142h8.143l-4.006-9.614L346.479,360.142z"/>
<polygon fill="#f7fbf5" points="382.579,344.171 382.579,371.229 377.988,371.229 377.988,350.537 374.588,350.537 374.588,346.976 
	375.042,346.834 375.476,346.684 376.212,346.391 377.101,345.946 377.707,345.351 378.14,344.907 378.421,344.615 378.725,344.171 
	"/>
<polygon fill="none" stroke="#c1121c" stroke-width="0.039" points="382.579,344.171 382.579,371.229 377.988,371.229 
	377.988,350.537 374.588,350.537 374.588,346.976 375.042,346.834 375.476,346.684 376.212,346.391 377.101,345.946 
	377.707,345.351 378.14,344.907 378.443,344.615 378.725,344.171 "/>
<polygon fill="#f7fbf5" points="411.121,366.649 411.121,371.24 389.379,371.24 389.53,370.201 389.53,368.869 390.115,366.649 
	391.154,363.985 392.346,362.059 393.667,360.142 395.746,358.366 397.825,357.034 399.882,356.146 402.091,355.562 
	403.434,355.106 404.321,354.814 405.209,354.521 405.794,354.078 406.379,353.494 406.682,352.605 406.682,351.858 406.53,350.971 
	406.248,350.083 405.36,349.347 404.17,348.751 402.394,348.308 400.315,348.167 398.409,348.308 396.763,348.751 395.009,349.347 
	393.667,350.234 392.931,350.668 392.346,351.274 389.379,348.015 389.985,347.419 390.873,346.824 392.346,345.795 
	394.706,344.767 397.218,344.16 400.185,343.879 402.979,344.02 405.49,344.604 408.024,345.795 409.8,347.57 410.818,349.639 
	411.121,351.718 410.969,353.494 410.385,355.106 409.497,356.59 408.458,357.63 406.984,358.507 405.058,359.254 403.131,359.698 
	401.203,360.282 399.882,360.889 398.712,361.614 397.218,362.957 396.027,364.289 395.291,365.317 395.009,366.054 
	394.858,366.649 "/>
<polygon fill="none" stroke="#c1121c" stroke-width="0.039" points="411.121,366.649 411.121,371.24 389.379,371.24 389.53,370.201 
	389.53,368.869 390.115,366.649 391.154,363.985 392.346,362.059 393.667,360.142 395.746,358.366 397.825,357.034 399.882,356.146 
	402.091,355.562 403.434,355.106 404.321,354.814 405.209,354.521 405.794,354.078 406.379,353.494 406.682,352.605 
	406.682,351.858 406.53,350.971 406.248,350.083 405.36,349.347 404.17,348.751 402.394,348.308 400.315,348.167 398.409,348.308 
	396.763,348.751 395.009,349.347 393.667,350.234 392.931,350.668 392.346,351.274 389.379,348.015 389.985,347.419 
	390.873,346.824 392.346,345.795 394.706,344.767 397.218,344.16 400.185,343.879 402.979,344.02 405.49,344.604 408.024,345.795 
	409.8,347.57 410.818,349.639 411.121,351.718 410.969,353.494 410.385,355.106 409.497,356.59 408.458,357.63 406.984,358.507 
	405.058,359.254 403.131,359.698 401.203,360.282 399.882,360.889 398.712,361.614 397.218,362.957 396.027,364.289 
	395.291,365.317 395.009,366.054 394.858,366.649 "/>
<path fill="#f7fbf5" d="M59.863,285.008l3.984,9.615h-8.121L59.863,285.008z M57.644,278.793l-11.391,26.766h4.731l2.805-6.647
	h11.834l2.815,6.647h4.732l-11.239-26.766H57.644z"/>
<path fill="none" stroke="#c1121c" stroke-width="0.039" d="M59.863,285.008l3.984,9.615h-8.121L59.863,285.008z M57.644,278.793
	l-11.391,26.766h4.731l2.805-6.647h11.834l2.815,6.647h4.732l-11.239-26.766H57.644z"/>
<polygon fill="#f7fbf5" points="91.805,278.652 91.805,305.569 87.214,305.569 87.214,285.008 83.663,285.008 83.663,281.305 
	84.106,281.305 84.713,281.013 85.438,280.72 86.186,280.276 86.922,279.833 87.366,279.388 87.669,278.944 87.81,278.652 "/>
<polygon fill="none" stroke="#c1121c" stroke-width="0.039" points="91.805,278.652 91.805,305.569 87.214,305.569 87.214,285.008 
	83.663,285.008 83.663,281.305 84.106,281.305 84.713,281.013 85.438,280.72 86.186,280.276 86.922,279.833 87.366,279.388 
	87.669,278.944 87.81,278.652 "/>
<polygon fill="#f7fbf5" points="120.347,301.131 120.347,305.569 98.605,305.569 98.746,304.683 98.746,303.35 99.353,300.979 
	100.24,298.467 101.572,296.398 102.893,294.623 104.82,292.847 107.029,291.516 109.108,290.627 111.328,289.891 112.659,289.588 
	113.547,289.296 114.424,289.003 115.031,288.559 115.475,287.823 115.919,287.087 115.919,286.199 115.756,285.312 
	115.312,284.564 114.586,283.817 113.396,283.232 111.479,282.647 109.552,282.496 107.635,282.789 105.86,283.081 104.224,283.817 
	102.893,284.564 102.157,285.149 101.42,285.604 98.605,282.345 99.19,281.9 99.937,281.316 101.572,280.276 103.781,279.248 
	106.445,278.501 109.412,278.198 112.064,278.501 114.728,279.085 117.25,280.276 119.015,282.052 120.055,284.12 120.347,286.199 
	120.207,287.964 119.61,289.588 118.723,290.931 117.694,292.101 116.2,292.988 114.283,293.594 112.367,294.179 110.439,294.764 
	109.108,295.349 107.776,296.106 106.445,297.287 105.264,298.77 104.528,299.799 104.224,300.383 103.932,301.131 "/>
<polygon fill="none" stroke="#c1121c" stroke-width="0.039" points="120.347,301.131 120.347,305.569 98.605,305.569 
	98.746,304.683 98.746,303.35 99.353,300.979 100.24,298.467 101.572,296.398 102.893,294.623 104.82,292.847 107.029,291.516 
	109.108,290.627 111.328,289.891 112.659,289.588 113.547,289.296 114.424,289.003 115.031,288.559 115.475,287.823 
	115.919,287.087 115.919,286.199 115.756,285.312 115.312,284.564 114.586,283.817 113.396,283.232 111.479,282.647 
	109.552,282.496 107.635,282.789 105.86,283.081 104.224,283.817 102.893,284.564 102.157,285.149 101.42,285.604 98.605,282.345 
	99.201,281.9 99.937,281.305 101.572,280.276 103.781,279.248 106.445,278.501 109.412,278.198 112.064,278.501 114.728,279.085 
	117.25,280.276 119.015,282.052 120.055,284.12 120.347,286.199 120.207,287.964 119.61,289.588 118.723,290.931 117.694,292.101 
	116.211,292.988 114.283,293.594 112.367,294.179 110.439,294.764 109.108,295.349 107.776,296.106 106.445,297.287 105.264,298.77 
	104.528,299.799 104.224,300.383 103.932,301.131 "/>
</svg>
